<?xml version="1.0" encoding="UTF-8" standalone="no"?>
<!DOCTYPE svg PUBLIC "-//W3C//DTD SVG 1.1//EN" "http://www.w3.org/Graphics/SVG/1.1/DTD/svg11.dtd">
<svg width="100%" height="100%" viewBox="0 0 1024 1280" version="1.1" xmlns="http://www.w3.org/2000/svg" xmlns:xlink="http://www.w3.org/1999/xlink" xml:space="preserve" xmlns:serif="http://www.serif.com/" style="fill-rule:evenodd;clip-rule:evenodd;stroke-linecap:round;stroke-linejoin:round;stroke-miterlimit:1.5;">
    <g id="Ebene-1" serif:id="Ebene 1" transform="matrix(1.05785,0,0,1.05785,-59.9281,-2.24727)">
        <path d="M363.623,636.111C359.779,637.16 351.577,583.22 353.375,562.344C354.966,543.873 370.569,511.907 374.414,510.859C378.259,509.81 377.738,541.029 376.444,556.053C374.645,576.928 367.468,635.063 363.623,636.111Z" style="fill:rgb(41,47,54);stroke:rgb(41,47,54);stroke-width:3.98px;"/>
        <path d="M605.182,311.351C605.182,311.351 581.189,334.228 573.935,348.178C566.682,362.127 561.66,395.048 561.66,395.048C561.66,395.048 586.717,370.125 592.907,358.221C600.16,344.272 605.182,311.351 605.182,311.351Z" style="fill:rgb(41,47,54);stroke:rgb(41,47,54);stroke-width:4.54px;"/>
        <g transform="matrix(0.974195,0.22571,-0.22571,0.974195,147.963,-71.5222)">
            <path d="M532.739,299.403C540.962,311.625 523.679,348.07 512,352.736C500.321,357.403 458.988,316.07 444,310.07C431.012,304.87 425.283,314.07 414.073,307.403C402.863,300.736 383.446,292.546 382.073,279.403C381.225,271.286 385.895,252.065 392.135,242.493C397.342,234.506 416.974,207.668 426.073,227.403C431.487,239.146 433.012,230.736 441.334,239.403C448.414,246.777 453.334,272.736 453.334,272.736C453.334,272.736 524.517,287.181 532.739,299.403Z" style="fill:rgb(209,215,219);stroke:rgb(41,47,54);stroke-width:9.08px;"/>
        </g>
        <g transform="matrix(0.971506,0.237016,-0.237016,0.971506,124.84,-164.311)">
            <path d="M615.598,373.562C607.187,394.597 631.988,423.231 646.67,450.981C650.504,458.227 669.828,485.021 677.123,479.211C692.152,467.243 713.851,447.403 723.406,420.736C732.962,394.07 727.495,330.687 718.073,327.403C708.651,324.119 686.749,384.539 678.344,387.923C669.939,391.307 676.463,350.375 667.644,347.708C658.825,345.041 623.69,353.325 615.598,373.562Z" style="fill:rgb(242,242,242);"/>
            <path d="M678.05,383.33C677.907,382.18 677.869,380.609 677.717,379.383C676.811,372.062 676.652,361.527 675.098,354.466C673.906,349.051 671.529,345.487 668.562,344.671C663.319,343.222 649.52,345.24 636.895,351.281C626.842,356.09 617.534,363.304 613.928,372.894C610.287,380.764 610.99,389.927 614.376,399.774C616.247,405.213 619.009,410.827 622.163,416.553C628.665,428.359 637.051,440.591 643.406,452.707C645.927,457.504 654.915,470.508 663.101,477.855C666.448,480.858 669.757,482.914 672.499,483.568C675.196,484.211 677.558,483.735 679.501,482.196C687.799,475.62 698.089,466.706 707.338,455.61C715.342,446.008 722.551,434.78 727.121,422.067C732.045,407.943 732.918,383.9 731.178,363.407C730.089,350.58 727.957,339.164 725.353,332.392C723.585,327.796 721.239,325.119 719.127,324.379C717.477,323.789 715.587,323.986 713.568,325.221C711.098,326.732 708.104,330.336 704.967,335.236C697.649,346.666 688.883,365.523 682.217,376.792C680.525,379.653 679.209,382.044 678.05,383.33ZM717.278,330.55C718.398,331.204 719.032,333.422 719.968,336.33C722.656,344.681 724.34,358.684 724.718,373.371C725.155,390.325 723.802,408.225 719.692,419.405C715.466,431.236 708.739,441.661 701.327,450.616C692.494,461.286 682.673,469.882 674.746,476.226C674.194,476.668 673.55,475.992 672.697,475.545C669.507,473.874 665.828,470.269 662.322,466.28C656.738,459.925 651.675,452.523 649.933,449.254C643.458,437.12 635.151,424.763 628.324,413.06C625.205,407.712 622.425,402.504 620.278,397.498C616.695,389.145 614.835,381.395 617.269,374.23C620.879,365.714 629.637,359.649 638.897,355.717C650.154,350.937 662.21,349.26 666.726,350.745C667.264,350.923 667.334,351.66 667.616,352.423C668.224,354.061 668.547,356.214 668.806,358.624C669.857,368.415 669.285,381.941 671.379,387.332C673.107,391.784 676.093,393.097 679.82,391.589C681.572,390.87 684.034,388.513 686.513,384.64C693.399,373.884 703.232,350.285 711.343,337.554C712.89,335.127 714.353,333.123 715.717,331.76C716.218,331.26 717,330.732 717.278,330.55ZM678.196,384.16C678.339,384.751 678.562,385.047 678.929,384.806C679.382,384.509 678.869,384.247 678.196,384.16Z" style="fill:rgb(41,47,54);"/>
        </g>
        <g transform="matrix(1,0,0,1,4.46382,-32.3627)">
            <path d="M768.739,982.07C768.739,982.07 787.628,1093.62 794.073,1124.74C798.476,1146 805.628,1154.07 807.406,1168.74C808.674,1179.2 803.147,1195.09 792.739,1196.74C775.851,1199.4 733.006,1186.74 706.073,1184.74C681.163,1182.89 648.694,1187.18 631.139,1182.07C617.319,1178.05 591.362,1140.96 600.739,1132.74C610.117,1124.51 668.517,1146.51 690.073,1138.07C706.626,1131.59 725.752,1122.51 726.073,1104.74C726.517,1080.07 690.073,987.403 690.073,987.403L715.406,947.403L768.739,982.07Z" style="fill:rgb(209,215,219);stroke:rgb(41,47,54);stroke-width:14.55px;"/>
        </g>
        <g transform="matrix(0.972705,-0.232043,0.232043,0.972705,-89.4894,114.736)">
            <path d="M362.073,504.736C362.073,504.736 286.739,514.292 268.739,510.07C257.991,507.549 254.073,488.736 254.073,488.736L170.073,538.07C170.073,538.07 177.751,553.456 202.053,553.421C229.676,553.382 236.607,552.015 254.073,553.421C287.184,556.088 362.073,574.07 362.073,574.07" style="fill:rgb(209,215,219);stroke:rgb(41,47,54);stroke-width:8.16px;"/>
        </g>
        <g transform="matrix(0.900903,-0.43402,0.43402,0.900903,-168.379,192.151)">
            <path d="M187.406,488.736C177.628,502.838 157.184,520.736 152.739,531.403C149.682,538.742 155.645,551.012 163.406,552.736C173.406,554.959 193.933,541.202 207.406,531.403C222.073,520.736 254.295,489.06 266.073,472.736C276.362,458.475 273.628,459.237 278.073,446.792C281.79,436.385 281.517,422.635 278.073,414.07C275.068,406.599 269.968,391.855 262.739,395.403C251.628,400.857 232.851,411.237 220.739,426.792C211.103,439.169 196.344,475.846 187.406,488.736Z" style="fill:rgb(209,215,219);stroke:rgb(41,47,54);stroke-width:9.1px;"/>
        </g>
        <path d="M747.528,215.403L760.739,267.403L834.073,227.403C834.073,227.403 823.898,213.693 817.895,203.505C810.561,191.06 810.561,154.736 810.561,154.736L747.528,215.403Z" style="fill:rgb(209,215,219);stroke:rgb(41,47,54);stroke-width:6.29px;"/>
        <g transform="matrix(0.98171,-0.190383,0.190383,0.98171,-7.4039,136.796)">
            <path d="M703.164,111.403C689.387,128.959 683.144,171.596 684.739,192.736C686.08,210.497 700.739,230.66 712.739,238.245C724.739,245.83 743.628,242.941 756.739,238.245C769.851,233.549 783.851,220.988 791.406,210.07C798.771,199.427 799.804,185.478 802.073,172.736C804.962,156.514 814.517,126.959 808.739,112.736C802.962,98.514 783.565,87.607 767.406,87.403C749.81,87.181 716.942,93.847 703.164,111.403Z" style="fill:rgb(209,215,219);stroke:rgb(41,47,54);stroke-width:8.92px;"/>
        </g>
        <g transform="matrix(0.886374,-0.0908671,0.0978322,0.954316,77.1002,75.4328)">
            <path d="M825.406,154.736C829.628,144.514 829.643,129.223 827.739,116.403C826.252,106.383 826.509,104.953 819.739,94.731C813.012,84.573 789.295,73.68 773.739,72.403C758.184,71.126 737.406,75.403 725.073,79.736C715.177,83.213 698.406,90.625 699.739,98.403C701.073,106.181 711.517,117.848 724.406,123.07C737.295,128.292 753.628,125.278 759.739,131.736C765.851,138.195 765.628,156.155 769.739,165.155C773.851,174.155 802.284,190.403 810.561,190.403C818.839,190.403 822.143,162.636 825.406,154.736Z" style="fill:rgb(41,47,54);stroke:rgb(41,47,54);stroke-width:9.3px;"/>
        </g>
        <g transform="matrix(1.01904,0,0,1.03993,-5.8303,-40.0105)">
            <path d="M663.618,644.13C663.618,644.13 627.432,708.505 621.769,748.736C616.677,784.91 615.548,798.518 619.769,833.028C629.026,908.714 665.262,984.997 665.262,984.997C665.262,984.997 704.741,1007.26 730.073,1000.74C755.462,994.198 774.691,973.745 774.691,973.745C774.691,973.745 769.184,923.181 755.406,866.07C751.852,851.336 736.642,788.863 747.509,769.376C781.628,708.193 856.739,616.736 856.739,616.736L663.618,644.13Z" style="fill:rgb(242,242,242);"/>
            <path d="M663.232,641.514C662.395,641.633 661.663,642.129 661.255,642.855C661.255,642.855 642.906,671.962 629.662,703.635C623.29,718.875 618.393,734.769 616.463,748.019C613.884,765.988 612.293,778.459 611.833,790.63C611.352,803.351 612.099,815.747 614.257,833.676C617.537,860.929 624.265,888.266 631.583,912.177C644.812,955.406 659.959,987.416 659.959,987.416C660.467,988.486 661.3,989.376 662.344,989.965C662.344,989.965 681.314,1000.67 701.753,1005.42C711.994,1007.8 722.588,1008.63 731.571,1006.32C741.182,1003.86 749.981,999.546 757.319,994.972C770.565,986.715 779.024,977.657 779.024,977.657C780.174,976.434 780.729,974.785 780.549,973.132C780.549,973.132 777.949,950.651 772.011,918.712C769.02,902.624 765.185,884.135 760.408,864.911C758.264,856.243 751.825,830.861 749.398,807.643C747.851,792.851 747.708,778.981 751.805,771.676C762.613,752.627 777.499,730.644 792.781,709.431C809.759,685.864 827.367,663.355 840.334,646.738C852.859,630.688 861.115,620.187 861.115,620.187C862.563,618.425 862.762,615.974 861.618,614.009C860.474,612.044 858.22,610.965 855.935,611.289L663.232,641.514ZM665.407,646.568L843.493,623.967C839.519,628.833 834.412,635.178 828.589,642.625C818.729,655.234 806.908,671.064 794.745,687.945C775.895,714.107 756.438,742.941 743.213,767.076C739.46,773.879 738.425,785.424 739.102,798.557C740.44,824.523 748.013,857.07 750.404,867.228C754.867,886.299 758.408,904.631 761.147,920.577C765.451,945.637 767.765,964.794 768.536,971.634C765.617,974.411 759.359,979.968 750.972,985.194C744.58,989.177 736.944,992.988 728.574,995.149C721.309,997.025 712.745,996.123 704.456,994.21C689.027,990.647 674.504,983.388 669.78,980.893C666.538,973.862 653.843,945.508 642.504,908.947C635.272,885.631 628.585,858.973 625.28,832.381C623.139,815.151 622.36,803.236 622.766,791.003C623.16,779.139 624.656,766.979 627.075,749.454C629.096,733.837 636.019,714.555 643.115,696.77C652.67,672.82 662.908,651.662 665.407,646.568L665.407,646.568Z" style="fill:rgb(41,47,54);"/>
        </g>
        <path d="M644.241,355.99C643.87,345.055 635.127,302.982 629.733,293.496C624.339,284.01 612.064,289.218 608.53,280.105C605.031,271.081 607.042,259.459 609.646,251.09C612.19,242.913 618.016,232.863 624.153,229.887C630.291,226.911 639.154,231.492 646.473,233.235C654.284,235.094 656.516,243.836 658.748,249.974C660.98,256.112 669.536,261.319 667.676,271.177C665.816,281.035 661.107,280.328 663.212,290.148C665.444,300.564 682.069,339.67 686.647,350.41C691.483,361.755 691.669,361.011 688.879,368.265C686.089,375.519 665.816,375.519 656.516,376.077C648.578,376.553 635.685,378.123 633.081,371.613C630.477,365.103 644.613,366.963 644.241,355.99Z" style="fill:rgb(209,215,219);stroke:rgb(41,47,54);stroke-width:7.04px;"/>
        <g transform="matrix(1,0,0,0.988127,0,2.70005)">
            <path d="M708.929,421.13L703.406,498.07C703.406,498.07 648.928,488.628 598.806,482.783C578.079,480.365 531.123,479.335 515.507,481.254C437.729,490.809 376.087,516.547 376.087,516.547C376.087,516.547 377.894,541.441 376.471,559.126C374.915,578.459 363.623,640.453 363.623,640.453C363.623,640.453 493.549,600.209 534.882,605.236C567.065,609.151 579.432,614.143 610.073,624.736C651.851,639.181 731.851,673.625 775.406,664.736C818.962,655.847 853.999,636.206 870.073,594.57C888.517,546.792 880.517,376.736 874.073,319.403C868.122,266.461 832.739,227.403 832.739,227.403C832.739,227.403 785.862,260.787 759.406,271.403C724.517,285.403 697.566,344.209 660.233,347.543C630.27,350.218 606.303,316.969 606.303,316.969C606.303,316.969 596.842,354.895 593.123,363.745C588.377,375.037 565.552,397.148 565.552,397.148C565.552,397.148 617.639,443.354 648.233,443.354C693.245,443.354 767.565,381.473 767.565,381.473L708.929,421.13Z" style="fill:rgb(242,242,242);"/>
            <path d="M705.53,428.3L699.747,493.125C691.814,491.562 673.78,488.113 651.942,484.615C635.665,482.008 617.259,479.532 599.422,477.377C589.352,476.183 573.161,475.293 557.299,474.914C540.012,474.501 523.114,474.709 514.842,475.712C488.645,478.9 464.258,483.904 443.389,489.165C401.621,499.693 373.925,511.243 373.925,511.243C371.661,512.188 370.253,514.496 370.432,516.968C370.432,516.968 371.289,528.953 371.32,542.114C371.333,547.696 371.198,553.493 370.777,558.657C370.218,565.527 368.398,577.86 366.309,590.826C362.56,614.101 357.928,639.391 357.928,639.391C357.562,641.404 358.26,643.466 359.77,644.828C361.28,646.19 363.384,646.656 365.318,646.057C365.318,646.057 417.891,629.83 466.658,619.373C493.742,613.566 519.608,609.439 534.171,611.224C546.355,612.711 555.637,614.349 564.174,616.406C577.825,619.696 589.589,624.049 608.137,630.469C636.597,640.32 682.691,659.397 723.099,667.897C743.151,672.116 761.866,673.69 776.589,670.672C798.844,666.047 818.924,658.674 835.566,647.254C852.994,635.295 866.715,618.941 875.246,596.615C883.178,575.853 886.268,532.507 886.583,485.064C887.001,422.104 882.748,351.849 878.993,318.837C876.921,299.896 871.196,282.666 864.606,268.231C852.186,241.025 836.651,223.774 836.651,223.774C834.848,221.785 831.867,221.458 829.686,223.011C829.686,223.011 808.675,237.839 786.916,250.745C776.448,256.954 765.812,262.726 757.326,266.093C742.687,271.902 729.227,285.058 715.994,299.169C704.285,311.654 692.712,324.863 680.216,333.315C673.688,337.729 666.931,340.811 659.701,341.441C649.769,342.334 640.638,338.571 633.037,333.764C619.758,325.365 610.989,313.51 610.989,313.51C609.663,311.671 607.407,310.774 605.199,311.207C602.991,311.64 601.23,313.326 600.679,315.532C600.679,315.532 597.086,330.393 593.507,343.655C591.445,351.294 589.414,358.393 588.1,361.583C586.627,365.155 583.112,369.882 579.245,374.592C571.421,384.119 562.014,393.407 562.014,393.407C560.978,394.411 560.406,395.81 560.437,397.261C560.468,398.713 561.101,400.084 562.179,401.041C562.179,401.041 585.347,421.244 610.059,434.964C623.381,442.36 637.177,447.81 648.233,447.719C663.93,447.586 683.052,440.308 701.457,430.516C702.821,429.791 704.181,429.052 705.53,428.3ZM711.475,424.922L707.48,498.369C707.396,499.532 706.831,500.605 705.924,501.324C705.017,502.043 703.852,502.341 702.717,502.144L598.191,488.189C588.355,487.061 572.546,486.27 557.059,485.952C540.41,485.61 524.135,485.805 516.172,486.795C490.48,489.983 466.568,494.955 446.107,500.16C414.25,508.264 390.773,516.937 382.01,520.35C382.284,525.114 382.673,533.344 382.71,542.075C382.736,547.987 382.598,554.126 382.164,559.595C381.602,566.661 379.771,579.348 377.649,592.685C375.332,607.244 372.674,622.586 370.996,632.103C388.229,626.965 427.294,615.694 464.204,607.705C492.824,601.51 520.194,597.39 535.593,599.249C548.322,600.792 558.017,602.508 566.936,604.651C580.928,608.012 592.995,612.437 612.008,619.004C636.335,627.405 673.675,642.606 709.159,652.031C733.467,658.487 756.85,662.336 774.223,658.801C794.899,654.658 813.616,648.057 829.127,637.572C844.784,626.988 857.135,612.434 864.899,592.524C872.689,572.552 875.721,530.729 876.243,484.968C876.957,422.484 872.793,352.744 869.152,319.97C867.104,302.217 861.629,286.091 855.355,272.596C846.795,254.185 836.745,240.668 831.835,234.594C824.681,239.607 808.82,250.516 792.531,260.353C781.562,266.976 770.392,273.1 761.487,276.713C748.26,282.08 736.396,294.401 724.492,307.274C712.243,320.52 700.033,334.416 686.909,343.394C678.632,349.056 669.963,352.804 660.765,353.645C650.621,354.546 641.058,351.906 632.69,347.599C622.75,342.484 614.549,335.061 609.073,329.266C607.333,335.785 605.041,344.19 602.913,351.431C601.065,357.719 599.323,363.158 598.146,365.907C596.31,370.192 592.155,375.953 587.401,381.562C582.408,387.453 576.811,393.236 573.134,396.917C580.636,403.301 597.17,416.743 614.577,426.793C626.313,433.569 638.401,438.908 648.233,438.989C662.834,439.112 680.655,432.392 697.922,423.571C702.047,421.464 706.139,419.234 710.145,416.937L765.792,378.787C767.206,377.831 769.113,378.165 770.128,379.547C771.142,380.929 770.907,382.873 769.593,383.967C769.593,383.967 742.754,406.674 711.475,424.922Z" style="fill:rgb(41,47,54);"/>
        </g>
        <g transform="matrix(0.968749,0,0,0.975643,27.3874,14.8949)">
            <path d="M697.829,492.736C697.829,492.736 753.495,549.695 763.474,557.243C778.924,568.928 857.203,619.21 862.948,610.667C874.604,593.333 878.738,579.673 875.093,573.236C872.537,568.722 818.494,553.922 784.046,536.736C740.994,515.258 699.406,474.07 699.406,474.07L697.829,492.736Z" style="fill:rgb(41,47,54);stroke:rgb(41,47,54);stroke-width:11.78px;"/>
        </g>
        <g transform="matrix(0.991918,0.12688,-0.12688,0.991918,20.2864,-83.1721)">
            <path d="M800.406,78.403C792.073,72.403 799.228,26.848 810.561,21.736C821.895,16.625 859.406,43.292 856.406,54.403C853.406,65.514 808.739,84.403 800.406,78.403Z" style="fill:rgb(41,47,54);stroke:rgb(41,47,54);stroke-width:4.45px;"/>
        </g>
    </g>
</svg>
