<?xml version="1.0" encoding="UTF-8" standalone="no"?>
<!DOCTYPE svg PUBLIC "-//W3C//DTD SVG 1.1//EN" "http://www.w3.org/Graphics/SVG/1.1/DTD/svg11.dtd">
<svg width="100%" height="100%" viewBox="0 0 1024 1280" version="1.1" xmlns="http://www.w3.org/2000/svg" xmlns:xlink="http://www.w3.org/1999/xlink" xml:space="preserve" xmlns:serif="http://www.serif.com/" style="fill-rule:evenodd;clip-rule:evenodd;stroke-linecap:round;stroke-linejoin:round;stroke-miterlimit:1.5;">
    <g id="Ebene1" transform="matrix(1.07171,0,0,1.07171,-68.0748,-89.1822)">
        <g transform="matrix(0.914843,0,0,0.914843,0,107.222)">
            <path d="M376.412,945.922C376.412,945.922 357.998,1018.27 351.861,1045.24C347.133,1066.02 342.561,1091.37 338.469,1107.74C335.444,1119.84 330.657,1134.33 327.31,1143.45C324.9,1150.01 320.242,1155.72 318.382,1162.42C316.522,1169.11 312.237,1177.69 316.15,1183.62C321.916,1192.36 339.032,1207.12 352.976,1214.87C366.921,1222.61 385.125,1230.27 399.819,1230.08C414.512,1229.89 437.24,1220.01 441.137,1213.75C445.033,1207.5 430.403,1198.36 423.198,1192.55C412.597,1183.99 384.581,1173.02 377.527,1162.42C371.315,1153.08 376.667,1139.34 380.875,1128.94C393.523,1097.69 455.644,971.589 455.644,971.589L376.412,945.922Z" style="fill:rgb(209,215,219);stroke:rgb(41,47,54);stroke-width:12.76px;"/>
        </g>
        <g transform="matrix(0.914843,0,0,0.914843,0,107.222)">
            <path d="M704.502,996.14C704.502,996.14 664.142,1093.79 664.328,1120.01C664.435,1135.08 683.171,1140.99 697.806,1144.56C713.058,1148.28 742.445,1154.61 751.372,1161.3C760.3,1168 739.354,1180.54 730.248,1184.74C713.694,1192.36 713.43,1195.34 698.922,1193.66C684.415,1191.99 683.113,1185.85 669.908,1179.16C658.038,1173.14 646.659,1170.6 636.429,1165.77C627.995,1161.78 617.458,1158.33 612.994,1151.26C608.53,1144.19 607.106,1133.47 609.646,1123.36C612.436,1112.26 624.263,1100.8 627.501,1088C631.407,1072.57 633.825,1054.97 634.197,1039.66C634.478,1028.08 629.226,996.14 629.226,996.14" style="fill:rgb(209,215,219);stroke:rgb(41,47,54);stroke-width:10.8px;"/>
        </g>
        <g transform="matrix(0.890573,0,0,0.914843,17.9669,107.222)">
            <path d="M436.673,529.671C436.673,529.671 415.994,589.895 411.006,621.179C404.868,659.68 403.938,723.847 399.847,760.674C396.808,788.025 391.597,815.104 386.455,842.138C380.689,872.455 365.252,942.574 365.252,942.574C365.252,942.574 411.373,975.405 429.131,979.491C457.418,986.001 481.311,981.633 481.311,981.633C481.311,981.633 515.349,912.774 523.718,875.617C533.017,834.327 554.964,739.471 554.964,739.471C554.964,739.471 587.327,835.071 596.255,865.573C601.706,884.2 608.033,903.086 608.53,922.487C609.088,944.248 599.602,996.14 599.602,996.14C599.602,996.14 640.043,1008.95 657.069,1008.51C678.831,1007.95 714.838,996.14 714.838,996.14C714.838,996.14 741.329,896.448 740.213,862.226C739.38,836.699 732.402,811.385 723.473,787.457C704.874,737.611 628.617,563.15 628.617,563.15C628.617,563.15 568.074,566.083 538.459,560.918C506.468,555.338 436.673,529.671 436.673,529.671Z" style="fill:rgb(242,242,242);"/>
            <path d="M437.764,526.86C436.979,526.572 436.107,526.607 435.349,526.957C434.591,527.308 434.012,527.944 433.746,528.719C433.746,528.719 423.815,555.805 415.485,583.061C411.372,596.52 407.651,610.004 405.722,620.381C403.618,632.448 401.894,647.017 400.596,662.506C397.755,696.411 396.553,734.706 393.675,760.024C392.453,770.864 390.884,781.66 389.117,792.428C386.452,808.673 383.333,824.854 380.237,841.018L358.94,941.258C358.407,943.681 359.387,946.184 361.442,947.647C361.442,947.647 380.569,961.295 399.049,972.208C410.003,978.677 420.803,984.115 427.625,985.694C437.45,987.967 446.77,988.988 454.839,989.334C471.249,990.04 482.532,987.959 482.532,987.959C484.599,987.581 486.358,986.269 487.27,984.424C487.27,984.424 502.78,953.165 515.517,921.29C521.839,905.47 527.46,889.491 530.276,877.017L556.234,764.148C561.157,778.642 567.766,798.189 574.002,816.919C580.725,837.108 587.021,856.341 590.262,867.236C593.536,878.241 597.129,889.336 599.604,900.583C601.205,907.862 602.34,915.205 602.566,922.632C602.785,929.862 601.864,940.518 600.577,951.414C598.046,972.845 594.068,995.182 594.068,995.182C593.577,997.87 595.196,1000.5 597.863,1001.34C597.863,1001.34 615.504,1006.88 632.526,1010.55C641.853,1012.57 651.009,1014 657.213,1013.82C664.428,1013.64 673.149,1012.3 681.687,1010.53C699.563,1006.84 716.63,1001.32 716.63,1001.32C718.426,1000.73 719.795,999.294 720.27,997.508C720.27,997.508 731.483,956.085 739.235,917.392C743.614,895.537 746.844,874.529 746.501,862.031C746.137,848.855 744.187,835.726 741.19,822.798C738.23,810.029 734.239,797.458 729.748,785.238C724.338,770.701 714.212,745.542 702.184,717.313C672.898,648.576 633.214,561.246 633.214,561.246C632.394,559.37 630.46,558.191 628.369,558.293C628.369,558.293 601.281,559.879 574.555,559.466C561.611,559.267 548.755,558.616 539.171,557.049C528.464,555.291 513.462,551.318 498.3,546.798C468.342,537.867 437.764,526.86 437.764,526.86ZM438.654,533.624C447.131,536.756 471.838,545.768 496.128,553.484C511.561,558.386 526.825,562.77 537.747,564.787C547.632,566.619 560.925,567.605 574.32,568.09C595.55,568.858 617.032,568.37 625.311,568.124C631.284,582.344 656.97,643.507 680.455,699.782C695.866,736.711 710.446,771.482 717.199,789.675C721.629,801.369 725.591,813.401 728.556,825.637C731.491,837.747 733.459,850.053 733.925,862.42C734.374,874.321 731.392,894.351 727.43,915.208C721.279,947.59 712.692,981.911 710.146,991.896C704.684,993.614 692.257,997.354 679.38,1000.08C671.549,1001.74 663.55,1003.02 656.926,1003.2C651.394,1003.33 643.253,1001.91 634.948,1000.07C623.71,997.575 612.199,994.245 605.994,992.372C607.377,984.609 610.145,968.448 612.146,952.761C613.615,941.251 614.654,929.989 614.495,922.342C614.324,914.204 613.178,906.147 611.496,898.158C609.067,886.614 605.501,875.214 602.247,863.911C599.08,852.909 592.929,833.476 586.327,813.084C574.571,776.77 561.401,737.406 561.401,737.406C560.447,734.589 557.68,732.737 554.636,732.881C551.593,733.024 549.022,735.127 548.353,738.021L517.159,874.217C514.477,886.155 509.061,901.43 503.037,916.575C492.89,942.089 480.972,967.217 476.846,975.769C472.757,976.264 465.081,976.928 455.403,976.536C448.062,976.238 439.581,975.336 430.638,973.289C424.682,971.926 415.359,966.984 405.789,961.364C392.364,953.48 378.588,944.121 372.413,939.844C372.412,939.844 392.673,843.259 392.673,843.259C395.747,826.983 398.848,810.691 401.483,794.334C403.251,783.364 404.809,772.366 406.018,761.324C408.78,735.883 410.216,697.446 412.485,663.353C413.496,648.166 414.575,633.847 416.29,621.978C417.643,611.814 420.556,598.543 423.918,585.295C429.495,563.318 436.212,541.433 438.654,533.624L438.654,533.624Z" style="fill:rgb(41,47,54);"/>
        </g>
        <path d="M520.274,266.664C507.98,264.027 508.621,295.897 503.856,304.908C500.746,310.791 491.126,314.103 491.687,320.733C493.044,336.766 502.421,384.739 512,401.104C518.939,412.959 540.472,429.562 549.159,418.921C560.096,405.526 582.432,346.11 577.618,320.733C572.804,295.357 532.568,269.302 520.274,266.664Z" style="fill:rgb(209,215,219);stroke:rgb(41,47,54);stroke-width:7.4px;"/>
        <path d="M706.928,474.547C706.928,474.547 701.804,453.988 705.035,451.597C708.266,449.205 724.824,460.197 724.824,460.197L706.928,474.547Z" style="stroke:black;stroke-width:8.86px;"/>
        <g transform="matrix(0.88571,0,0,0.914843,25.3085,107.222)">
            <path d="M423.282,487.265C424.584,470.898 439.091,448.578 441.137,431.467C443.005,415.845 436.016,400.324 435.557,384.597C434.813,359.116 428.303,303.318 436.673,278.581C443.604,258.096 468.811,246.591 485.775,236.175C501.792,226.341 538.459,216.088 538.459,216.088C538.459,216.088 545.062,249.253 552.732,264.074C562.551,283.045 597.371,329.915 597.371,329.915C597.371,329.915 617.086,294.391 621.922,277.465C626.437,261.663 626.385,228.363 626.385,228.363C626.385,228.363 667.166,250.938 687.763,261.842C709.896,273.56 735.226,286.69 759.184,298.669C787.083,312.618 837.301,331.217 855.156,345.539C865.719,354.011 872.639,373.623 866.316,384.597C859.992,395.571 833.023,408.59 817.214,411.38C801.837,414.094 773.505,407.66 771.459,401.336C769.414,395.013 800.846,382.551 804.938,373.437C808.793,364.853 802.306,353.649 796.01,346.655C789.315,339.215 775.142,322.783 764.764,328.799C751.93,336.239 791.423,387.086 777.659,393.781C764.751,400.061 682.183,368.974 682.183,368.974C682.183,368.974 663.074,414.653 655.4,438.163C646.659,464.946 634.197,508.282 629.733,529.671C627.224,541.693 628.617,566.498 628.617,566.498C628.617,566.498 568.027,567.61 538.459,562.034C505.91,555.896 433.325,529.671 433.325,529.671C433.325,529.671 422.13,501.746 423.282,487.265Z" style="fill:rgb(242,242,242);"/>
            <path d="M765.742,399.694C765.564,400.88 765.671,401.996 765.989,402.995C766.573,404.832 768.05,406.867 770.641,408.664C774.05,411.028 780.03,413.344 786.993,415.009C797.242,417.459 809.643,418.55 818.284,417.068C827.815,415.433 841.191,410.358 852.206,404.117C861.245,398.997 868.62,392.953 871.772,387.544C875.788,380.651 875.89,370.963 872.955,361.734C870.308,353.413 865.251,345.561 859.277,340.723C852.871,335.534 842.489,329.74 830.388,323.858C808.389,313.167 780.551,301.995 762.306,292.816L691.009,256.096L629.726,222.706C627.642,221.552 625.08,221.561 623.003,222.729C620.927,223.897 619.651,226.048 619.654,228.373C619.654,228.373 619.691,243.049 618.389,257.391C617.775,264.153 616.884,270.844 615.491,275.743C613.935,281.219 610.731,288.722 607.203,296.266C603.55,304.077 599.536,311.922 596.49,317.717C591.014,310.212 582.747,298.736 575.084,287.52C568.249,277.516 561.888,267.732 558.528,261.262C556.138,256.659 553.88,250.166 551.893,243.543C547.687,229.529 544.755,214.913 544.755,214.913C544.414,213.2 543.345,211.705 541.808,210.794C540.272,209.882 538.41,209.639 536.679,210.123C536.679,210.123 519.872,214.846 503.894,220.986C495.799,224.096 487.921,227.583 482.382,230.995C472.016,237.378 458.662,244.201 448.07,253.109C440.228,259.704 433.872,267.422 430.751,276.703C427.92,285.129 426.638,296.953 426.362,310.022C425.811,336.136 429.089,367.428 429.656,384.759C430.302,395.919 434.122,406.888 435.914,417.92C436.618,422.253 437.008,426.589 436.608,430.96C435.367,444.14 426.664,460.592 422.521,474.854C421.275,479.145 420.399,483.245 420.187,487.034L420.187,487.034C419.759,492.084 420.735,498.696 422.235,505.284C425.16,518.131 430.087,530.888 430.087,530.888C430.446,531.783 431.182,532.486 432.111,532.822C432.111,532.822 463.766,544.627 494.635,554.535C510.627,559.668 526.408,564.286 537.556,566.52C547.433,568.493 560.727,569.767 574.131,570.592C601.21,572.258 628.726,572.068 628.726,572.068C630.287,572.039 631.769,571.397 632.832,570.29C633.895,569.183 634.448,567.705 634.363,566.195C634.363,566.195 633.901,555.271 634.357,544.535C634.57,539.515 634.976,534.537 635.783,530.854C637.782,521.736 641.341,508.601 645.368,494.464C650.702,475.742 656.888,455.282 661.904,440.152C664.364,432.527 668.041,422.548 671.849,412.569C677.195,398.558 682.818,384.553 685.875,377.011C697.768,381.265 724.956,390.704 746.751,396.152C753.738,397.899 760.251,399.108 765.742,399.694ZM778.53,400.272C778.832,400.446 779.14,400.611 779.431,400.747C783.117,402.467 788.458,403.93 794.178,404.937C801.782,406.274 810.075,406.793 816.143,405.692C823.213,404.409 832.64,400.879 841.217,396.468C849.982,391.961 857.991,386.682 860.859,381.65C863.342,377.294 862.731,371.194 860.829,365.41C858.875,359.466 855.349,353.781 851.035,350.354C845.15,345.68 835.565,340.607 824.496,335.325C802.354,324.76 774.407,313.637 756.062,304.521L684.517,267.589C684.517,267.589 632.898,239.402 632.898,239.402C632.713,244.869 632.37,251.742 631.735,258.542C631.025,266.155 629.935,273.675 628.352,279.188C626.637,285.16 623.167,293.36 619.293,301.585C611.939,317.196 603.177,332.936 603.177,332.936C602.101,334.875 600.069,336.14 597.8,336.283C595.532,336.427 593.347,335.428 592.019,333.642C592.019,333.642 577.234,313.683 564.188,294.477C557.052,283.971 550.44,273.678 546.937,266.886C544.27,261.716 541.699,254.448 539.491,247.014C536.963,238.504 534.887,229.781 533.598,224C527.444,225.863 517.866,228.909 508.576,232.45C501.283,235.23 494.161,238.299 489.168,241.355C479.254,247.425 466.435,253.831 456.294,262.305C450.186,267.408 445.047,273.259 442.595,280.459C440.028,287.995 439.001,298.597 438.689,310.298C437.997,336.193 441.017,367.245 441.458,384.436C441.464,395.219 444.612,405.972 445.738,416.69C446.275,421.798 446.417,426.89 445.666,431.975C443.696,445.554 433.995,462.212 428.987,476.775C427.693,480.536 426.723,484.138 426.376,487.496L426.376,487.496C426.038,492.048 427.02,497.993 428.465,503.906C430.865,513.728 434.568,523.451 435.985,527.022C442.521,529.285 470.163,538.77 497.188,546.787C512.914,551.454 528.427,555.615 539.361,557.547C548.913,559.243 561.742,560.179 574.664,560.689C593.792,561.444 613.12,561.241 622.564,561.064C622.373,556.705 622.187,550.416 622.313,544.181C622.43,538.427 622.844,532.722 623.684,528.488C625.922,517.19 630.242,499.814 635.193,481.957C639.701,465.696 644.746,449.043 648.897,436.173C651.468,428.386 655.276,418.189 659.263,408.008C667.377,387.288 676.176,366.618 676.176,366.618C677.507,363.438 681.229,361.882 684.532,363.126C684.532,363.126 714.107,374.436 740.456,382.106C750.243,384.955 759.569,387.313 766.685,388.33C770.041,388.81 772.715,389.258 774.362,388.86C774.25,388.443 774.731,387.637 774.668,386.961C774.481,384.955 773.855,382.607 772.988,380.032C769.21,368.806 761.228,354.045 758.075,343.359C755.317,334.012 756.901,327.018 761.889,324.15C766.968,321.23 772.655,321.563 778.338,324.227C786.754,328.172 795.311,337.78 800.137,343.174C804.305,347.777 808.495,354.034 810.443,360.351C812.059,365.591 812.137,370.881 810.042,375.586C808.878,378.2 806.153,381.17 802.386,384.084C797.004,388.246 789.312,392.632 783.396,396.583C782.546,397.548 781.517,398.333 780.326,398.92L779.863,399.126C779.391,399.513 778.936,399.908 778.53,400.272ZM785.717,382.076C787.134,381.193 788.545,380.304 789.918,379.417C794.441,376.495 798.658,373.886 799.834,371.289C801.25,368.162 800.459,364.556 799.017,361.096C797.32,357.025 794.576,353.145 791.884,350.135C788.286,346.161 782.44,339.39 776.235,335.421C773.395,333.605 770.583,332.046 768.023,333.253C768.482,333.665 767.754,334.764 767.874,335.734C768.127,337.783 768.815,340.161 769.732,342.755C773.73,354.06 781.882,368.792 785.029,379.391C785.302,380.31 785.531,381.206 785.717,382.076Z" style="fill:rgb(41,47,54);"/>
        </g>
        <g transform="matrix(1,0,0,1,-4,0)">
            <path d="M520.705,451.622C526.514,450.627 548.819,479.41 555.56,490.768C560.586,499.236 560.594,513.063 561.153,519.774C561.471,523.587 562.241,532.928 558.916,531.034C552.175,527.194 527.073,509.969 520.705,496.734C514.336,483.498 514.896,452.616 520.705,451.622Z" style="stroke:black;stroke-width:8.86px;"/>
        </g>
        <g transform="matrix(0.914843,0,0,0.914843,0,107.222)">
            <path d="M796.01,346.655C783.735,337.169 751.372,325.079 730.169,322.104C709.788,319.243 688.802,323.99 668.792,328.799C644.799,334.565 600.145,353.845 587.125,360.355C583.542,362.147 593.112,368.114 597.115,367.965C607.074,367.593 634.433,354.993 645.965,354.063C651.262,353.636 660.468,359.189 657.579,363.649C655.78,366.426 638.003,365.206 628.617,368.732C622.915,370.875 625.056,376.917 626.385,377.901C629.902,380.505 664.785,381.993 680.967,377.901C696.966,373.856 709.693,354.459 725.705,356.698C741.717,358.938 777.039,391.338 777.039,391.338C777.039,391.338 802.892,378.653 806.054,371.206C809.216,363.758 804.792,353.44 796.01,346.655Z" style="fill:rgb(209,215,219);stroke:rgb(41,47,54);stroke-width:7.93px;"/>
        </g>
        <g transform="matrix(0.838462,0,0,0.914843,46.5488,107.222)">
            <path d="M517.942,317.743C506.489,332.827 529.826,367.116 538.459,374.005C545.088,379.295 559.777,368.906 563.794,376.376C568.905,385.882 563.027,407.709 570.46,423.043C577.894,438.376 616.171,454.154 608.393,468.376C603.473,477.372 560.559,488.598 538.459,484.376C516.359,480.154 491.806,462.271 475.794,443.043C458.016,421.695 446.81,383.751 437.386,342.949" style="fill:rgb(242,242,242);"/>
            <path d="M558.184,380.143C560.9,386.833 558.727,398.673 559.912,409.92C560.493,415.432 561.71,420.82 564.025,425.663C568.993,435.988 586.909,446.833 597.248,456.998C599.152,458.869 600.745,460.684 601.667,462.512C602.166,463.503 602.478,464.466 601.954,465.418C601.302,466.662 599.189,467.663 596.584,468.951C590.804,471.809 582.594,474.534 573.824,476.517C561.854,479.224 548.866,480.69 539.662,479.085C528.972,476.952 517.7,471.34 507.313,463.881C497.49,456.828 488.541,448.07 481.402,439.12C478.158,435.158 475.301,430.523 472.387,425.511C468.457,418.753 464.522,411.282 460.985,403.045C453.292,385.126 446.681,364.192 440.593,342.327C440.219,340.705 438.477,339.666 436.707,340.01C434.937,340.353 433.804,341.949 434.179,343.571C438.356,366.234 443.092,388.01 449.343,406.767C452.36,415.822 455.598,424.217 459.57,431.554C462.723,437.378 466.392,442.485 470.186,446.966C478.439,456.464 488.755,465.561 499.757,472.993C511.935,481.219 524.954,487.421 537.255,489.668C549.734,492.262 568.565,490.39 584.299,486.567C594.339,484.127 603.102,480.835 608.364,477.559C611.601,475.545 613.705,473.321 614.832,471.334C617.978,465.553 616.953,459.542 612.553,453.503C608.294,447.656 600.365,441.565 592.578,435.535C585.993,430.437 579.386,425.512 576.896,420.422C575.119,416.808 574.247,412.757 573.765,408.628C572.192,395.142 573.858,380.949 569.872,373.631C567.797,369.821 564.551,368.026 560.489,367.522C556.868,367.073 552.13,368.135 547.544,369.001C545.751,369.34 544.004,370.355 542.817,369.417C538.285,365.877 530.071,353.975 524.432,342.303C523.203,339.76 521.81,337.381 520.926,334.897C518.876,329.135 518.038,323.667 520.633,319.459C521.666,318.098 521.3,316.224 519.814,315.277C518.329,314.329 516.284,314.666 515.251,316.027C509.283,322.457 508.854,332.927 512.05,343.671C516.583,358.907 528.562,374.017 534.1,378.592C536.643,380.642 539.783,381.581 543.317,381.679C547.061,381.783 551.44,380.706 555.416,380.034C556.318,379.882 557.518,380.278 558.184,380.143Z" style="fill:rgb(41,47,54);"/>
        </g>
        <g transform="matrix(0.913197,0.0548541,-0.0548541,0.913197,24.0035,72.9436)">
            <path d="M569.127,391.338C569.127,391.338 627.298,361.981 645.965,345.709C661.738,331.96 672.67,308.598 681.127,293.709C687.787,281.984 688.705,267.043 696.705,256.376C704.705,245.709 713.083,240.35 722.486,236.35C729.893,233.2 756.495,230.665 756.273,236.221C756.051,241.776 732.808,249.071 725.697,258.848C719.24,267.726 710.215,288.286 710.46,291.043C710.706,293.8 728.697,279.282 732.414,279.237C736.131,279.191 733.23,284.058 731.016,287.276C727.287,292.693 713.776,303.287 706.898,312.092C696.296,325.665 683.002,353.027 669.15,372.21C652.198,395.687 605.187,452.951 605.187,452.951C605.187,452.951 578.341,438.753 572.331,428.484C566.321,418.215 569.127,391.338 569.127,391.338Z" style="fill:rgb(209,215,219);stroke:rgb(41,47,54);stroke-width:12.95px;"/>
        </g>
        <g transform="matrix(0.814972,0,0,0.908374,66.9565,102.921)">
            <path d="M538.459,118.471C535.481,140.097 535.128,159.011 538.459,179.401C542.22,202.431 593.78,236.168 609.43,239.501C621.557,242.084 655.342,226.299 662.374,216.088C670.707,203.986 679.219,179.749 679.219,160.335C679.219,138.71 682.996,84.002 667.516,68.335C652.036,52.669 606.99,59.669 586.337,66.335C565.685,73.002 541.436,96.846 538.459,118.471Z" style="fill:rgb(209,215,219);stroke:rgb(41,47,54);stroke-width:10.27px;"/>
        </g>
        <g transform="matrix(0.845301,0,0,0.914843,45.2648,102.541)">
            <path d="M645.965,84.335C637.141,93.333 625.08,101.691 609.43,107.025C596.37,111.476 584.474,110.727 577.648,115.816C571.092,120.703 572.446,141.721 568.473,148.869C563.471,157.869 543.516,185.091 538.459,178.335C533.402,171.58 524.608,130.324 529.611,108.991C534.592,87.748 537.584,68.859 549.467,58.859C559.926,50.058 595.911,46.318 609.43,48.335C625.08,50.671 653.55,57.017 662.374,64.351C669.548,70.313 652.496,77.675 645.965,84.335Z" style="fill:rgb(41,47,54);stroke:rgb(41,47,54);stroke-width:10.06px;"/>
        </g>
        <g transform="matrix(0.657579,-0.117791,0.131347,0.733253,151.851,107.718)">
            <path d="M502.72,161.069C496.673,166.92 437.184,143.839 431.332,133.371C425.481,122.904 455.713,93.647 467.611,98.263C479.509,102.879 508.766,155.217 502.72,161.069Z" style="fill:rgb(41,47,54);stroke:rgb(41,47,54);stroke-width:5.15px;"/>
        </g>
        <path d="M408.038,591.787C401.556,592.196 400.558,598.806 397.992,607.13C395.774,614.325 392.117,624.296 396.477,627.831C410.889,639.518 459.427,656.41 492.233,661.91C525.039,667.409 582.276,668.657 597.446,662.02C604.247,659.045 597.088,647.027 593.482,637.853C590.832,631.111 589.9,625.174 584.926,622.936C570.176,616.299 529.956,624.267 503.856,619.812C474.274,614.762 426.093,590.65 408.038,591.787Z" style="fill:rgb(41,47,54);stroke:rgb(41,47,54);stroke-width:9.33px;"/>
        <g transform="matrix(-1.07802,-0.165076,0.157253,-1.02693,897.034,1495.89)">
            <path d="M496.02,656.301C497.199,659.777 499.195,665.287 499.074,672.101C498.995,676.554 498.092,681.592 495.394,686.957C493.662,690.489 490.961,694.307 487.836,698.063C484.812,701.699 481.486,705.321 478.061,708.465C472.842,713.577 467.114,719.698 464.146,727.642C462.258,732.695 461.012,738.345 462.232,744.73C462.657,746.956 463.369,749.131 464.376,751.484C464.618,752.519 465.616,753.154 466.602,752.899C467.588,752.645 468.192,751.598 467.95,750.563C467.824,748.321 468.04,746.34 468.196,744.369C468.589,739.395 469.979,735.356 472.076,731.825C475.542,725.987 480.921,722.021 485.729,718.702C490.82,714.92 495.92,710.431 500.207,705.777C503.611,702.083 506.411,698.217 508.471,694.632C512.857,686.842 514.542,679.394 514.926,672.764C515.471,663.377 513.153,655.634 511.693,650.778C510.241,646.238 505.551,643.789 501.226,645.313C496.901,646.837 494.568,651.76 496.02,656.301Z" style="fill:rgb(41,47,54);"/>
        </g>
        <g transform="matrix(1.35645,-0.655268,-0.421643,-0.87283,185.263,1650.47)">
            <path d="M503.041,669.184C501.264,671.006 498.367,673.918 495.327,679.385C493.432,682.794 491.444,687.125 489.64,692.782C488.312,696.744 487.292,700.997 487.276,706.518C487.263,710.941 487.663,716.054 488.935,722.26C491.481,734.244 493.687,746.165 491.96,757.359C490.517,766.71 486.559,775.975 477.015,784.132C475.791,785.227 474.225,784.573 473.52,782.671C472.816,780.77 473.237,778.336 474.46,777.241C481.898,770.271 485.336,763.118 486.115,755.547C487.091,746.064 483.992,736.589 481.153,727.03C478.833,719.435 477.725,712.99 477.331,707.313C476.741,698.797 477.964,691.962 479.667,685.557C481.75,678.159 484.116,672.427 486.424,667.916C490.247,660.442 493.983,656.37 496.277,653.838C499.001,650.937 502.729,652.02 504.596,656.255C506.462,660.49 505.765,666.283 503.041,669.184Z" style="fill:rgb(41,47,54);"/>
        </g>
    </g>
</svg>
