<?xml version="1.0" encoding="UTF-8" standalone="no"?>
<!DOCTYPE svg PUBLIC "-//W3C//DTD SVG 1.1//EN" "http://www.w3.org/Graphics/SVG/1.1/DTD/svg11.dtd">
<svg width="100%" height="100%" viewBox="0 0 1024 1280" version="1.1" xmlns="http://www.w3.org/2000/svg" xmlns:xlink="http://www.w3.org/1999/xlink" xml:space="preserve" xmlns:serif="http://www.serif.com/" style="fill-rule:evenodd;clip-rule:evenodd;stroke-linecap:round;stroke-linejoin:round;stroke-miterlimit:1.5;">
    <g id="Ebene1" transform="matrix(1.04099,0,0,1.04099,-64.7355,-11.5559)">
        <g transform="matrix(0.95661,-0.138399,0.133681,0.990377,-103.045,64.3223)">
            <path d="M379.661,922.607C353.283,957.297 319.853,1016.22 301.643,1046.77C292.292,1062.45 273.558,1082.1 271.512,1094.75C269.647,1106.28 298.295,1117.26 300.527,1126C302.403,1133.35 304.479,1148.39 298.295,1152.78C291.227,1157.8 258.678,1154.27 246.961,1152.78C235.243,1151.29 226.502,1140.51 223.526,1129.35C220.55,1118.19 221.48,1100.14 227.99,1085.82C233.967,1072.67 248.782,1050.32 253.656,1036.72C260.724,1017.01 263.7,989.48 271.512,967.533C277.887,949.622 291.971,910.247 301.643,893.88" style="fill:rgb(209,215,219);stroke:rgb(41,47,54);stroke-width:12.94px;"/>
        </g>
        <g transform="matrix(0.965905,2.77556e-17,-2.68093e-17,1,3.73131,13.9494)">
            <path d="M598.486,956.373C604.128,986.69 615.412,1047.32 617.458,1074.66C618.608,1090.04 612.064,1108.33 610.762,1120.42C609.805,1129.3 605.368,1141.52 609.646,1147.2C613.924,1152.89 627.751,1151.32 636.429,1154.54C647.96,1158.81 665.816,1168.7 678.835,1172.87C690.369,1176.56 703.012,1183.26 714.546,1179.56C727.565,1175.39 757.696,1155.65 756.952,1147.84C756.208,1140.03 724.589,1138.38 710.082,1132.69C696.294,1127.29 673.129,1128.18 669.908,1113.72C663.026,1082.85 666.87,992.58 668.792,947.446" style="fill:rgb(209,215,219);stroke:rgb(41,47,54);stroke-width:12.25px;"/>
        </g>
        <g transform="matrix(0.965905,0,0,1,3.73131,13.9494)">
            <path d="M393.151,521.151C393.151,521.151 371.259,600.12 361.904,640C351.303,685.196 344.607,747.039 329.541,792.328C315.573,834.319 271.512,911.735 271.512,911.735C271.512,911.735 305.175,932.433 324.03,937.276C344.303,942.484 393.151,942.982 393.151,942.982C393.151,942.982 425.688,868.815 441.137,831.386C459.178,787.678 483.915,685.754 501.398,680.732C518.882,675.711 535.063,739.506 546.037,776.704C555.924,810.221 564.822,878.07 567.24,903.923C569.294,925.888 573.935,969.765 573.935,969.765C573.935,969.765 614.553,980.617 634.862,979.348C655.693,978.046 698.922,961.953 698.922,961.953C698.922,961.953 694.081,867.059 686.647,820.227C679.207,773.357 659.12,698.774 645.357,653.949C631.771,609.705 604.066,551.282 604.066,551.282" style="fill:rgb(242,242,242);"/>
            <path d="M390.402,520.44C390.402,520.44 373.863,573.835 362.677,614.931C360.302,623.656 358.263,631.848 356.555,638.829C349.11,670.219 343.505,709.638 335.727,745.974C332.349,761.754 328.57,776.948 324.006,790.61C319.467,804.197 311.714,821.538 303.362,838.713C286.108,874.194 266.268,908.95 266.268,908.95C264.747,911.622 265.636,914.974 268.298,916.611C268.298,916.611 283.652,926.076 299.553,933.814C307.662,937.76 315.923,941.24 322.473,942.931C329.613,944.774 340.166,946.086 350.999,946.979C371.533,948.671 393.086,948.916 393.086,948.916C395.576,948.942 397.836,947.512 398.808,945.297L446.91,833.609C457.765,807.248 471.106,759.792 483.702,725.026C488.22,712.555 492.59,701.748 496.795,694.311C499.208,690.044 500.912,686.82 503.078,686.188C504.988,685.63 506.288,687.631 508.128,689.884C511.222,693.675 514.203,699.238 517.123,705.834C526.258,726.469 534.437,756.744 540.853,778.131C544.732,791.071 548.511,809.195 551.758,828.01C556.851,857.516 560.682,888.696 562.16,904.367L568.582,970.293C568.808,972.424 570.364,974.203 572.501,974.774C572.501,974.774 590.937,979.794 609.323,982.768C618.744,984.291 628.156,985.25 635.23,984.843C642.551,984.42 652.531,982.293 662.548,979.615C681.738,974.484 701.089,967.383 701.089,967.383C703.515,966.48 705.068,964.175 704.94,961.666C704.94,961.666 703.113,918.691 699.28,876.279C697.4,855.481 694.916,834.835 692.321,819.386C689.073,800.242 683.685,776.508 677.452,752.061C668.39,716.515 657.564,679.461 649.085,652.881C644.843,639.575 639.3,625.006 633.647,611.112C620.486,578.769 606.654,550.137 606.654,550.137C605.999,548.758 604.309,548.151 602.881,548.783C601.453,549.414 600.825,551.047 601.479,552.426C601.479,552.426 612.114,575.252 623.251,603.191C629.915,619.909 636.738,638.467 641.628,655.018C649.485,681.636 659.441,718.727 667.695,754.278C673.33,778.549 678.167,802.093 680.973,821.067C682.725,832.821 684.196,847.622 685.631,863.166C689.179,901.611 691.857,944.632 692.657,958.029C686.124,960.39 672.719,965.076 659.383,968.776C650.258,971.308 641.177,973.404 634.494,973.853C628.116,974.284 619.621,973.432 611.107,972.142C598.071,970.168 584.998,967.133 578.908,965.643C578.908,965.643 572.319,903.48 572.319,903.48C570.853,887.661 566.931,856.2 561.946,826.395C558.724,807.129 555.072,788.548 551.22,775.278C543.758,749.547 533.819,711.309 522.679,691.135C518.974,684.426 514.955,679.576 511.038,677.114C507.329,674.784 503.527,674.201 499.719,675.277C497.164,675.999 494.341,677.873 491.59,681.099C487.409,686.003 482.837,694.641 478.234,705.63C463.789,740.113 447.964,798.752 435.364,829.163L389.075,936.982C381.951,936.843 366.719,936.427 352.019,935.251C341.986,934.449 332.203,933.313 325.586,931.622C319.688,930.114 312.271,926.941 304.964,923.407C294.904,918.542 285.069,912.962 279.467,909.684C285.496,898.855 300.547,871.412 314.017,843.532C322.553,825.864 330.449,808.018 335.077,794.046C339.726,780.011 343.595,764.414 347.002,748.205C354.628,711.912 359.978,672.534 367.253,641.171C371.338,621.97 378.134,593.736 384.062,569.546C390.49,543.315 395.9,521.862 395.9,521.862C396.306,520.396 395.404,518.888 393.887,518.496C392.37,518.103 390.808,518.974 390.402,520.44Z" style="fill:rgb(41,47,54);"/>
        </g>
        <g transform="matrix(0.965905,0,0,1,3.69722,14.9494)">
            <path d="M776.384,201.746C768.075,197.28 786.931,184.593 795.667,181.034C805.309,177.106 822.212,177.701 834.235,178.178C845.576,178.627 864.708,178.297 867.803,183.891C870.897,189.486 863.154,209.724 852.804,211.745C837.568,214.721 785.906,206.865 776.384,201.746Z" style="fill:rgb(41,47,54);stroke:rgb(41,47,54);stroke-width:4.29px;"/>
        </g>
        <g transform="matrix(1.00259,0.155262,-0.121152,0.838532,17.1332,-78.9765)">
            <path d="M783.735,205.336C777.473,195.85 764.95,176.879 755.836,166.277C747.941,157.093 739.097,146.19 729.053,141.726C719.01,137.262 706.15,143.135 695.575,139.494C684.229,135.588 663.212,125.731 660.98,118.291C658.748,110.851 674.371,97.646 682.183,94.856C689.995,92.066 699.116,102.931 707.85,101.552C718.452,99.878 737.981,83.511 745.793,84.813C753.604,86.115 748.888,102.897 754.72,109.364C763.276,118.849 784.112,129.61 797.126,141.726C813.308,156.792 838.975,185.434 851.808,199.756" style="fill:rgb(209,215,219);stroke:rgb(41,47,54);stroke-width:9.67px;"/>
        </g>
        <g transform="matrix(0.962796,-0.080171,0.0774376,0.996781,-16.0928,62.6954)">
            <path d="M576.46,199.515C567.519,198.263 568.323,217.649 561.116,221.834C553.909,226.018 538.026,216.609 533.217,224.624C528.335,232.761 522.011,258.85 531.822,270.657C545.539,287.163 599.012,330.174 615.519,323.664C632.026,317.155 637.373,252.29 630.863,231.598C624.545,211.516 588.085,201.142 576.46,199.515Z" style="fill:rgb(209,215,219);stroke:rgb(41,47,54);stroke-width:7.36px;"/>
        </g>
        <g transform="matrix(0.965905,0,0,1,3.73131,13.9494)">
            <path d="M393.151,521.151C393.151,521.151 477.963,559.651 512,563.557C544.471,567.283 609.646,554.629 609.646,554.629C609.646,554.629 603.514,531.633 607.414,521.151C613.366,505.155 616.714,481.162 625.827,458.657C634.941,436.152 646.123,405.11 662.096,386.12C678.835,366.219 718.721,356.267 745.793,339.25C778.341,318.791 835.627,283.638 857.388,263.365C869.468,252.111 874.313,230.259 876.359,217.611C878.002,207.455 869.663,187.48 869.663,187.48C869.663,187.48 850.946,197.696 840.649,199.756C827.629,202.36 802.52,203.29 791.547,203.104C785.773,203.006 774.807,198.64 774.807,198.64C774.807,198.64 782.391,217.263 775.923,220.959C762.904,228.399 719.196,239.558 696.69,243.278C678.34,246.311 640.893,243.278 640.893,243.278C640.893,243.278 630.477,279.175 621.922,292.38C613.907,304.75 589.559,322.511 589.559,322.511C589.559,322.511 556.545,276.199 547.153,260.017C540.911,249.264 533.203,225.423 533.203,225.423C533.203,225.423 478.41,217.437 456.76,231.003C435.092,244.58 411.564,285.684 403.194,306.888C396.898,322.838 404.287,341.223 406.542,358.221C408.96,376.449 412.308,405.092 417.702,416.251C421.039,423.156 441.33,417.904 438.905,425.179C434.441,438.57 410.82,473.909 402.078,488.788C398.971,494.078 393.151,521.151 393.151,521.151Z" style="fill:rgb(242,242,242);"/>
            <path d="M772.621,216.5C766.957,219.649 755.857,223.408 743.406,227.011C726.941,231.776 708.146,236.182 695.805,238.281C690.01,239.262 682.227,239.609 674.391,239.644C657.966,239.717 641.315,238.41 641.315,238.41C638.898,238.214 636.677,239.704 636.023,241.96C636.023,241.96 631.578,257.34 626.09,271.551C623.347,278.653 620.353,285.46 617.557,289.742C615.087,293.526 610.934,297.822 606.513,301.914C600.882,307.127 594.79,311.982 590.789,315.051C586.067,308.299 576.834,295.024 568.302,282.348C561.665,272.489 555.454,262.998 552.184,257.293C550.255,253.929 548.2,249.215 546.288,244.413C542.247,234.264 538.898,223.705 538.898,223.705C538.217,221.599 536.352,220.054 534.093,219.725C534.093,219.725 509.353,215.989 486.162,217.536C473.536,218.378 461.4,220.91 453.351,225.927C444.045,231.824 434.314,242.43 425.626,254.605C413.352,271.806 403.009,292.034 398.041,304.99C395.915,310.57 395.201,316.386 395.396,322.336C395.791,334.333 399.966,346.903 401.692,358.822C403.407,370.707 405.567,386.994 408.387,400.029C409.992,407.446 411.83,413.849 413.881,417.974C415.052,420.326 417.244,422.012 420.22,422.983C424.133,424.259 432.012,424.994 434.757,425.217C433.135,429.642 429.819,436.018 425.814,443.112C417.049,458.639 405.027,477.445 399.375,487.306C398.377,489.045 397.087,492.939 395.829,497.534C393.133,507.384 390.365,520.592 390.365,520.592C390.097,521.837 390.749,523.098 391.94,523.639C391.94,523.639 436.15,545.267 473.6,558.624C488.143,563.811 501.727,567.627 511.349,568.847C522.372,570.145 537.062,569.657 551.802,568.362C581.192,565.781 610.78,560.078 610.78,560.078C612.328,559.777 613.681,558.875 614.52,557.582C615.359,556.29 615.611,554.721 615.217,553.243C615.217,553.243 612.658,543.6 612.034,534.213C611.758,530.066 611.781,525.965 612.872,523.045C617.257,511.309 620.276,495.302 625.141,478.708C626.892,472.732 628.894,466.676 631.311,460.729C636.704,447.464 642.819,431.202 650.234,416.245C655.112,406.405 660.544,397.135 666.752,389.774C671.877,383.697 679.406,378.704 688.013,374.077C706.949,363.896 730.912,355.631 749.134,344.211C767.675,332.577 794.221,316.2 817.691,300.495C835.823,288.362 852.129,276.6 861.704,267.688C866.979,262.778 871.093,256.11 874.206,248.909C878.775,238.34 881.212,226.643 882.526,218.542C883.173,214.554 882.632,209.271 881.461,204.013C879.362,194.593 875.434,185.233 875.434,185.233C874.764,183.628 873.41,182.38 871.718,181.808C870.027,181.236 868.163,181.397 866.603,182.248C866.603,182.248 858.506,186.721 850.169,190.284C846.342,191.92 842.476,193.388 839.418,194.015C834.462,195.03 827.678,195.791 820.639,196.342C809.697,197.2 798.148,197.546 791.649,197.465C790.139,197.446 788.186,197.019 786.237,196.511C781.589,195.298 777.002,193.498 777.002,193.498C774.868,192.648 772.414,193.112 770.769,194.675C769.124,196.239 768.604,198.601 769.449,200.676C769.449,200.676 771.025,204.492 772.048,208.86C772.498,210.781 772.86,212.816 772.855,214.636C772.853,215.246 772.694,216.14 772.621,216.5ZM783.364,207.379C786.268,208.155 789.188,208.694 791.444,208.742C798.19,208.887 810.182,208.642 821.549,207.855C829.168,207.327 836.51,206.545 841.879,205.497C845.621,204.767 850.385,203.091 855.077,201.137C859.102,199.461 863.077,197.588 866.233,196.034C867.256,199.036 868.41,202.787 869.244,206.547C870.059,210.221 870.642,213.894 870.192,216.68C869.006,224.039 866.852,234.677 862.712,244.279C860.283,249.911 857.192,255.201 853.072,259.043C843.848,267.644 828.099,278.948 810.633,290.667C787.287,306.33 760.889,322.68 742.451,334.29C724.481,345.617 700.804,353.79 682.127,363.894C672.077,369.331 663.414,375.345 657.44,382.467C650.705,390.495 644.765,400.568 639.485,411.291C631.984,426.524 625.793,443.077 620.343,456.585C617.801,462.889 615.694,469.305 613.856,475.638C609.12,491.959 606.235,507.71 601.956,519.256C600.433,523.367 600.093,529.111 600.497,534.944C600.884,540.534 601.889,546.204 602.736,550.253C592.86,552.027 571.756,555.571 550.752,557.52C536.874,558.808 523.041,559.428 512.651,558.267C500.99,557.114 483.215,551.801 464.966,545.597C435.325,535.52 404.554,522.9 396.428,519.526L396.428,519.525C397.229,516.004 398.911,508.805 400.713,502.256C402.163,496.986 403.653,492.148 404.782,490.27C410.655,480.514 423.086,461.926 432.211,446.569C437.084,438.366 441.009,431.04 442.636,426.339C444.183,421.88 442.185,419.32 437.88,417.873C434.834,416.849 429.637,416.791 425.273,415.99C423.66,415.694 422.046,415.645 421.523,414.528C419.284,409.761 417.538,401.673 416.028,392.646C414.07,380.934 412.61,367.685 411.392,357.621C410.187,347.617 407.197,337.115 406.289,326.936C405.73,320.667 405.999,314.532 408.348,308.785C413.32,296.542 423.635,277.534 435.567,261.327C443.407,250.679 451.891,241.208 460.169,236.079C466.729,231.946 476.741,230.219 487.058,229.459C503.753,228.229 521.323,229.844 528.709,230.679C530.113,234.741 532.605,241.722 535.395,248.521C537.575,253.832 539.94,259.03 542.121,262.742C545.543,268.564 552.015,278.247 558.94,288.297C571.326,306.271 585.152,325.442 585.152,325.442C585.98,326.603 587.263,327.387 588.704,327.612C590.145,327.837 591.618,327.484 592.783,326.635C592.783,326.635 603.941,318.4 613.758,309.154C618.798,304.407 623.477,299.387 626.286,295.018C629.33,290.283 632.614,282.787 635.601,274.957C639.486,264.774 642.896,254.025 644.603,248.454C650.682,248.875 662.597,249.581 674.403,249.608C682.879,249.628 691.299,249.288 697.576,248.275C710.252,246.241 729.573,241.912 746.506,237.183C760.43,233.294 772.756,229.068 778.798,225.653C782.214,223.721 784.151,219.76 784.213,214.716C784.241,212.41 783.882,209.84 783.364,207.379Z" style="fill:rgb(41,47,54);"/>
        </g>
        <g transform="matrix(0.965905,0,0,1,3.73131,13.9494)">
            <path d="M395.709,514.571C389.513,511.853 385.786,527.955 383.987,536.859C382.498,544.222 378.404,553.316 382.853,556.709C399.399,569.327 453.581,588.446 491.413,594.562C531.171,600.99 601.64,602.181 621.4,595.277C627.784,593.046 622.786,580.037 619.589,570.928C616.741,562.814 615.997,554.194 609.972,552.424C590.927,546.829 539.933,556.33 505.698,550.281C469.987,543.972 414.16,522.665 395.709,514.571Z" style="fill:rgb(41,47,54);stroke:rgb(41,47,54);stroke-width:10.87px;"/>
        </g>
        <g transform="matrix(0.971907,0,0,0.990654,-1.05846,12.3433)">
            <path d="M489.26,321.357L489.262,321.089C489.313,319.561 489.616,317.72 489.994,315.82C490.657,312.488 491.593,308.994 492.246,306.582C492.702,304.891 491.673,303.155 489.949,302.707C488.225,302.26 486.456,303.27 486,304.961C485.053,308.518 483.517,314.289 483.062,318.743C482.679,322.498 483.344,325.505 484.567,326.808C485.663,327.976 487.202,328.509 489.208,328.029C491.09,327.578 493.924,325.686 496.763,324.116C497.728,323.582 498.692,323.089 499.615,322.834C500.055,322.712 500.466,322.534 500.798,322.757C507.127,327.023 523.167,337.535 535.498,348.581C540.928,353.445 545.633,358.395 548.325,362.939C549.669,365.207 550.511,367.312 550.406,369.219C550.261,371.876 548.647,374.552 546.279,377.301C543.203,380.871 538.813,384.423 533.82,387.861C521.946,396.035 506.679,403.455 496.344,408.404C489.771,411.553 481.964,413.891 474.087,415.694C460.594,418.783 446.878,420.263 438.441,421.172C436.187,421.423 434.565,423.422 434.821,425.634C435.077,427.845 437.115,429.437 439.369,429.186C448.025,428.189 462.102,426.575 475.928,423.282C484.377,421.269 492.728,418.628 499.757,415.171C512.149,409.072 531.434,399.375 543.954,389.14C551.864,382.674 557.022,375.793 557.29,369.543C557.54,363.716 552.786,356.244 545.37,348.891C532.382,336.015 511.721,322.739 504.231,317.801C502.095,316.378 499.343,316.444 496.429,317.6C494.184,318.491 491.783,320.023 489.742,321.157C489.595,321.239 489.43,321.303 489.26,321.357Z" style="fill:rgb(41,47,54);"/>
        </g>
        <g transform="matrix(0.962468,0.0842901,-0.0814162,0.996441,8.3193,-46.6806)">
            <path d="M552.276,163.675C554.895,184.149 574.181,219.063 587.853,234.181C599.18,246.704 621.335,256.461 634.31,254.379C647.285,252.298 658.803,234.582 665.702,221.693C672.6,208.804 675.775,192.295 675.701,177.044C675.615,159.41 668.641,126.722 665.189,115.889C664.085,112.428 658.464,113.107 654.989,112.051C649.361,110.339 639.364,107.41 631.42,105.623C621.897,103.48 607.732,98.242 597.852,99.195C588.417,100.104 577.611,103.596 572.14,111.336C564.544,122.083 549.909,145.165 552.276,163.675Z" style="fill:rgb(209,215,219);stroke:rgb(41,47,54);stroke-width:8.84px;"/>
        </g>
        <g transform="matrix(0.962468,0.0842901,-0.0814162,0.996441,8.3193,-46.6806)">
            <path d="M545,136.334C544.762,147.88 546.044,169.306 550.714,174.901C555.384,180.496 569.135,173.727 573.022,169.902C576.909,166.076 572.314,157.688 574.037,151.946C576.249,144.577 578.512,130.313 586.291,125.687C594.069,121.062 609.226,124.421 620.707,124.192C633.228,123.943 654.155,126.811 661.417,124.192C666.424,122.386 666.622,113.257 664.273,108.479C660.821,101.456 649.87,88.243 640.704,82.054C631.539,75.864 620.331,70.765 609.279,71.341C597.852,71.936 581.663,79.911 572.14,85.625C564.057,90.475 556.591,97.311 552.142,105.623C547.619,114.074 545.217,125.826 545,136.334Z" style="fill:rgb(41,47,54);stroke:rgb(41,47,54);stroke-width:8.5px;"/>
        </g>
        <g transform="matrix(0.950293,-0.211192,0.266056,1.28317,-80.8009,32.5048)">
            <path d="M509.613,313.863C509.829,310.195 521.921,322.203 527.124,327.448C534.566,334.949 553.819,355.215 554.264,358.873C554.709,362.531 535.953,355.604 529.792,349.393C522.35,341.892 508.805,327.54 509.613,313.863Z" style="fill:rgb(41,47,54);stroke:rgb(41,47,54);stroke-width:3.44px;"/>
        </g>
        <g transform="matrix(0.965905,0,0,1,5.11103,16.8063)">
            <path d="M546.572,356.57C546.572,356.57 610.665,303.264 630.849,290.148C641.699,283.098 658.19,283.638 667.676,277.873C676.229,272.674 686.275,260.575 687.763,255.554C689.053,251.2 681.03,246.73 676.603,247.742C670.094,249.23 652.323,265.425 648.704,264.481C645.086,263.538 652.154,249.328 654.89,242.081C657.749,234.508 660.061,225.265 665.86,219.044C671.711,212.766 686.46,208.805 689.995,204.416C692.517,201.285 691.067,193.148 687.069,192.715C682.011,192.166 667.946,196.381 659.644,201.125C650.258,206.489 637.825,214.716 630.755,224.894C623.686,235.072 625.277,252.273 617.225,262.193C609.174,272.113 594.762,278.283 582.446,284.414C563.634,293.779 504.351,318.382 504.351,318.382C504.351,318.382 515.021,338.721 520.391,344.252C525.071,349.072 546.572,356.57 546.572,356.57Z" style="fill:rgb(209,215,219);stroke:rgb(41,47,54);stroke-width:11.15px;"/>
        </g>
        <g transform="matrix(-1.04127,-0.165076,0.151891,-1.02693,874.223,1438.69)">
            <path d="M495.72,656.299C496.907,659.79 498.911,665.318 498.805,672.153C498.736,676.634 497.846,681.707 495.132,687.11C493.414,690.622 490.737,694.418 487.637,698.151C484.619,701.786 481.302,705.404 477.88,708.544C472.615,713.698 466.827,719.879 463.896,727.922C462.072,732.929 460.871,738.527 462.133,744.84C462.572,747.034 463.297,749.172 464.311,751.489C464.553,752.524 465.58,753.157 466.602,752.9C467.624,752.643 468.258,751.594 468.016,750.558C467.908,748.335 468.141,746.369 468.303,744.412C468.714,739.451 470.087,735.412 472.167,731.877C475.642,725.974 481.07,721.969 485.91,718.623C491.032,714.815 496.164,710.294 500.475,705.612C503.876,701.919 506.671,698.06 508.732,694.479C513.13,686.679 514.818,679.229 515.2,672.598C515.736,663.283 513.438,655.602 511.992,650.78C510.539,646.235 505.714,643.782 501.223,645.305C496.733,646.828 494.267,651.754 495.72,656.299Z" style="fill:rgb(41,47,54);"/>
        </g>
        <g transform="matrix(1.3102,-0.655268,-0.407267,-0.87283,186.72,1593.28)">
            <path d="M503.096,669.134C501.332,670.944 498.451,673.835 495.433,679.28C493.555,682.666 491.587,686.965 489.801,692.57C488.466,696.552 487.446,700.832 487.431,706.393C487.42,710.821 487.811,715.941 489.067,722.142C491.552,733.957 493.706,745.714 492.103,756.764C490.715,766.335 486.767,775.791 477.027,784.122C475.76,785.256 474.154,784.637 473.443,782.741C472.731,780.845 473.182,778.384 474.448,777.25C481.955,770.222 485.363,762.988 486.069,755.351C486.938,745.961 483.852,736.603 481.02,727.147C478.707,719.64 477.59,713.261 477.183,707.638C476.563,699.072 477.797,692.2 479.507,685.769C481.588,678.376 483.956,672.643 486.263,668.125C490.126,660.562 493.904,656.445 496.221,653.888C499.04,650.887 502.869,651.867 504.766,656.074C506.663,660.281 505.915,666.133 503.096,669.134Z" style="fill:rgb(41,47,54);"/>
        </g>
        <g transform="matrix(0.0613762,-0.758627,0.743913,0.0645097,443.97,697.199)">
            <path d="M800.406,78.403C792.073,72.403 799.228,26.848 810.561,21.736C821.895,16.625 859.406,43.292 856.406,54.403C853.406,65.514 808.739,84.403 800.406,78.403Z" style="fill:rgb(41,47,54);stroke:rgb(41,47,54);stroke-width:4.45px;"/>
        </g>
    </g>
</svg>
