<?xml version="1.0" encoding="UTF-8" standalone="no"?>
<!DOCTYPE svg PUBLIC "-//W3C//DTD SVG 1.1//EN" "http://www.w3.org/Graphics/SVG/1.1/DTD/svg11.dtd">
<svg width="100%" height="100%" viewBox="0 0 1024 1280" version="1.1" xmlns="http://www.w3.org/2000/svg" xmlns:xlink="http://www.w3.org/1999/xlink" xml:space="preserve" xmlns:serif="http://www.serif.com/" style="fill-rule:evenodd;clip-rule:evenodd;stroke-linecap:round;stroke-linejoin:round;stroke-miterlimit:1.5;">
    <g id="Ebene1" transform="matrix(1.03273,0,0,1.03273,-61.262,-1.33952)">
        <g transform="matrix(0.95661,-0.138399,0.133681,0.990377,-103.045,64.3223)">
            <path d="M379.661,922.607C353.283,957.297 319.853,1016.22 301.643,1046.77C292.292,1062.45 273.558,1082.1 271.512,1094.75C269.647,1106.28 298.295,1117.26 300.527,1126C302.403,1133.35 304.479,1148.39 298.295,1152.78C291.227,1157.8 258.678,1154.27 246.961,1152.78C235.243,1151.29 226.502,1140.51 223.526,1129.35C220.55,1118.19 221.48,1100.14 227.99,1085.82C233.967,1072.67 248.782,1050.32 253.656,1036.72C260.724,1017.01 263.7,989.48 271.512,967.533C277.887,949.622 291.971,910.247 301.643,893.88" style="fill:rgb(209,215,219);stroke:rgb(41,47,54);stroke-width:12.94px;"/>
        </g>
        <g transform="matrix(0.965905,2.77556e-17,-2.68093e-17,1,3.73131,13.9494)">
            <path d="M598.486,956.373C604.128,986.69 615.412,1047.32 617.458,1074.66C618.608,1090.04 612.064,1108.33 610.762,1120.42C609.805,1129.3 605.368,1141.52 609.646,1147.2C613.924,1152.89 627.751,1151.32 636.429,1154.54C647.96,1158.81 665.816,1168.7 678.835,1172.87C690.369,1176.56 703.012,1183.26 714.546,1179.56C727.565,1175.39 757.696,1155.65 756.952,1147.84C756.208,1140.03 724.589,1138.38 710.082,1132.69C696.294,1127.29 673.129,1128.18 669.908,1113.72C663.026,1082.85 666.87,992.58 668.792,947.446" style="fill:rgb(209,215,219);stroke:rgb(41,47,54);stroke-width:12.25px;"/>
        </g>
        <g transform="matrix(0.965905,0,0,1,3.73131,13.9494)">
            <path d="M393.151,521.151C393.151,521.151 371.259,600.12 361.904,640C351.303,685.196 344.607,747.039 329.541,792.328C315.573,834.319 271.512,911.735 271.512,911.735C271.512,911.735 305.175,932.433 324.03,937.276C344.303,942.484 393.151,942.982 393.151,942.982C393.151,942.982 425.688,868.815 441.137,831.386C459.178,787.678 483.915,685.754 501.398,680.732C518.882,675.711 535.063,739.506 546.037,776.704C555.924,810.221 564.822,878.07 567.24,903.923C569.294,925.888 573.935,969.765 573.935,969.765C573.935,969.765 614.553,980.617 634.862,979.348C655.693,978.046 698.922,961.953 698.922,961.953C698.922,961.953 694.081,867.059 686.647,820.227C679.207,773.357 659.12,698.774 645.357,653.949C631.771,609.705 604.066,551.282 604.066,551.282" style="fill:rgb(242,242,242);"/>
            <path d="M390.402,520.44C390.402,520.44 373.863,573.835 362.677,614.931C360.302,623.656 358.263,631.848 356.555,638.829C349.11,670.219 343.505,709.638 335.727,745.974C332.349,761.754 328.57,776.948 324.006,790.61C319.467,804.197 311.714,821.538 303.362,838.713C286.108,874.194 266.268,908.95 266.268,908.95C264.747,911.622 265.636,914.974 268.298,916.611C268.298,916.611 283.652,926.076 299.553,933.814C307.662,937.76 315.923,941.24 322.473,942.931C329.613,944.774 340.166,946.086 350.999,946.979C371.533,948.671 393.086,948.916 393.086,948.916C395.576,948.942 397.836,947.512 398.808,945.297L446.91,833.609C457.765,807.248 471.106,759.792 483.702,725.026C488.22,712.555 492.59,701.748 496.795,694.311C499.208,690.044 500.912,686.82 503.078,686.188C504.988,685.63 506.288,687.631 508.128,689.884C511.222,693.675 514.203,699.238 517.123,705.834C526.258,726.469 534.437,756.744 540.853,778.131C544.732,791.071 548.511,809.195 551.758,828.01C556.851,857.516 560.682,888.696 562.16,904.367L568.582,970.293C568.808,972.424 570.364,974.203 572.501,974.774C572.501,974.774 590.937,979.794 609.323,982.768C618.744,984.291 628.156,985.25 635.23,984.843C642.551,984.42 652.531,982.293 662.548,979.615C681.738,974.484 701.089,967.383 701.089,967.383C703.515,966.48 705.068,964.175 704.94,961.666C704.94,961.666 703.113,918.691 699.28,876.279C697.4,855.481 694.916,834.835 692.321,819.386C689.073,800.242 683.685,776.508 677.452,752.061C668.39,716.515 657.564,679.461 649.085,652.881C644.843,639.575 639.3,625.006 633.647,611.112C620.486,578.769 606.654,550.137 606.654,550.137C605.999,548.758 604.309,548.151 602.881,548.783C601.453,549.414 600.825,551.047 601.479,552.426C601.479,552.426 612.114,575.252 623.251,603.191C629.915,619.909 636.738,638.467 641.628,655.018C649.485,681.636 659.441,718.727 667.695,754.278C673.33,778.549 678.167,802.093 680.973,821.067C682.725,832.821 684.196,847.622 685.631,863.166C689.179,901.611 691.857,944.632 692.657,958.029C686.124,960.39 672.719,965.076 659.383,968.776C650.258,971.308 641.177,973.404 634.494,973.853C628.116,974.284 619.621,973.432 611.107,972.142C598.071,970.168 584.998,967.133 578.908,965.643C578.908,965.643 572.319,903.48 572.319,903.48C570.853,887.661 566.931,856.2 561.946,826.395C558.724,807.129 555.072,788.548 551.22,775.278C543.758,749.547 533.819,711.309 522.679,691.135C518.974,684.426 514.955,679.576 511.038,677.114C507.329,674.784 503.527,674.201 499.719,675.277C497.164,675.999 494.341,677.873 491.59,681.099C487.409,686.003 482.837,694.641 478.234,705.63C463.789,740.113 447.964,798.752 435.364,829.163L389.075,936.982C381.951,936.843 366.719,936.427 352.019,935.251C341.986,934.449 332.203,933.313 325.586,931.622C319.688,930.114 312.271,926.941 304.964,923.407C294.904,918.542 285.069,912.962 279.467,909.684C285.496,898.855 300.547,871.412 314.017,843.532C322.553,825.864 330.449,808.018 335.077,794.046C339.726,780.011 343.595,764.414 347.002,748.205C354.628,711.912 359.978,672.534 367.253,641.171C371.338,621.97 378.134,593.736 384.062,569.546C390.49,543.315 395.9,521.862 395.9,521.862C396.306,520.396 395.404,518.888 393.887,518.496C392.37,518.103 390.808,518.974 390.402,520.44Z" style="fill:rgb(41,47,54);"/>
        </g>
        <path d="M498.051,196.017C488.676,198.396 489.495,225.032 484.659,232.844C481.4,238.108 470.966,237.005 469.036,242.888C465.13,254.791 448.658,287.911 461.224,304.265C474.802,321.934 524.647,353.181 550.5,348.903C576.353,344.625 607.746,290.514 614.628,271.17C620.429,254.863 587.512,251.006 578.649,239.7C570.392,229.167 559.639,200.161 548.001,195.589C532.377,189.451 510.512,192.856 498.051,196.017Z" style="fill:rgb(209,215,219);stroke:rgb(41,47,54);stroke-width:9.56px;"/>
        <g transform="matrix(0.965905,0,0,1,3.73131,13.9494)">
            <path d="M395.709,514.571C389.513,511.853 385.786,527.955 383.987,536.859C382.498,544.222 378.404,553.316 382.853,556.709C399.399,569.327 453.581,588.446 491.413,594.562C531.171,600.99 601.64,602.181 621.4,595.277C627.784,593.046 622.786,580.037 619.589,570.928C616.741,562.814 615.997,554.194 609.972,552.424C590.927,546.829 540.826,549.588 506.853,543.586C471.142,537.277 414.16,522.665 395.709,514.571Z" style="fill:rgb(41,47,54);stroke:rgb(41,47,54);stroke-width:10.87px;"/>
        </g>
        <g transform="matrix(0.962468,0.0842901,-0.0814162,0.996441,-53.0582,-54.4923)">
            <path d="M552.276,163.675C554.895,184.149 574.181,219.063 587.853,234.181C599.18,246.704 621.335,256.461 634.31,254.379C647.285,252.298 658.803,234.582 665.702,221.693C672.6,208.804 675.775,192.295 675.701,177.044C675.615,159.41 668.641,126.722 665.189,115.889C664.085,112.428 658.464,113.107 654.989,112.051C649.361,110.339 639.364,107.41 631.42,105.623C621.897,103.48 607.732,98.242 597.852,99.195C588.417,100.104 577.611,103.596 572.14,111.336C564.544,122.083 549.909,145.165 552.276,163.675Z" style="fill:rgb(209,215,219);stroke:rgb(41,47,54);stroke-width:8.84px;"/>
        </g>
        <g transform="matrix(0.962468,0.0842901,-0.0814162,0.996441,-53.0582,-54.4923)">
            <path d="M545,136.334C544.762,147.88 546.044,169.306 550.714,174.901C555.384,180.496 569.135,173.727 573.022,169.902C576.909,166.076 572.314,157.688 574.037,151.946C576.249,144.577 578.512,130.313 586.291,125.687C594.069,121.062 609.226,124.421 620.707,124.192C633.228,123.943 654.155,126.811 661.417,124.192C666.424,122.386 666.622,113.257 664.273,108.479C660.821,101.456 649.87,88.243 640.704,82.054C631.539,75.864 620.331,70.765 609.279,71.341C597.852,71.936 581.663,79.911 572.14,85.625C564.057,90.475 556.591,97.311 552.142,105.623C547.619,114.074 545.217,125.826 545,136.334Z" style="fill:rgb(41,47,54);stroke:rgb(41,47,54);stroke-width:8.5px;"/>
        </g>
        <g transform="matrix(-1.04127,-0.165076,0.151891,-1.02693,874.223,1438.69)">
            <path d="M495.72,656.299C496.907,659.79 498.911,665.318 498.805,672.153C498.736,676.634 497.846,681.707 495.132,687.11C493.414,690.622 490.737,694.418 487.637,698.151C484.619,701.786 481.302,705.404 477.88,708.544C472.615,713.698 466.827,719.879 463.896,727.922C462.072,732.929 460.871,738.527 462.133,744.84C462.572,747.034 463.297,749.172 464.311,751.489C464.553,752.524 465.58,753.157 466.602,752.9C467.624,752.643 468.258,751.594 468.016,750.558C467.908,748.335 468.141,746.369 468.303,744.412C468.714,739.451 470.087,735.412 472.167,731.877C475.642,725.974 481.07,721.969 485.91,718.623C491.032,714.815 496.164,710.294 500.475,705.612C503.876,701.919 506.671,698.06 508.732,694.479C513.13,686.679 514.818,679.229 515.2,672.598C515.736,663.283 513.438,655.602 511.992,650.78C510.539,646.235 505.714,643.782 501.223,645.305C496.733,646.828 494.267,651.754 495.72,656.299Z" style="fill:rgb(41,47,54);"/>
        </g>
        <g transform="matrix(1.3102,-0.655268,-0.407267,-0.87283,186.72,1593.28)">
            <path d="M503.096,669.134C501.332,670.944 498.451,673.835 495.433,679.28C493.555,682.666 491.587,686.965 489.801,692.57C488.466,696.552 487.446,700.832 487.431,706.393C487.42,710.821 487.811,715.941 489.067,722.142C491.552,733.957 493.706,745.714 492.103,756.764C490.715,766.335 486.767,775.791 477.027,784.122C475.76,785.256 474.154,784.637 473.443,782.741C472.731,780.845 473.182,778.384 474.448,777.25C481.955,770.222 485.363,762.988 486.069,755.351C486.938,745.961 483.852,736.603 481.02,727.147C478.707,719.64 477.59,713.261 477.183,707.638C476.563,699.072 477.797,692.2 479.507,685.769C481.588,678.376 483.956,672.643 486.263,668.125C490.126,660.562 493.904,656.445 496.221,653.888C499.04,650.887 502.869,651.867 504.766,656.074C506.663,660.281 505.915,666.133 503.096,669.134Z" style="fill:rgb(41,47,54);"/>
        </g>
        <g transform="matrix(0.0613762,-0.758627,0.743913,0.0645097,382.592,689.388)">
            <path d="M800.406,78.403C792.073,72.403 799.228,26.848 810.561,21.736C821.895,16.625 859.406,43.292 856.406,54.403C853.406,65.514 808.739,84.403 800.406,78.403Z" style="fill:rgb(41,47,54);stroke:rgb(41,47,54);stroke-width:4.45px;"/>
        </g>
        <path d="M387.571,530.804C387.571,530.804 408.588,485.05 407.658,463.847C406.728,442.643 380.819,421.055 375.296,396.889C369.344,370.85 369.716,330.118 371.948,307.613C373.55,291.452 375.731,271.651 388.687,261.859C404.682,249.769 467.92,235.076 467.92,235.076C467.92,235.076 471.302,267.102 480.195,279.714C490.425,294.221 529.297,322.12 529.297,322.12C529.297,322.12 558.561,308.497 566.124,295.337C575.423,279.156 585.095,225.032 585.095,225.032C585.095,225.032 618.063,230.119 634.197,227.264C658.376,222.986 704.874,207.735 730.169,199.365C749.187,193.073 768.112,179.092 785.967,177.046C803.289,175.061 826.327,179.278 837.301,187.09C848.049,194.741 851.622,211.641 851.808,223.916C851.994,236.192 849.029,253.127 838.417,260.743C822.607,272.088 778.713,284.55 756.952,291.99C740.899,297.478 723.193,298.141 707.85,305.381C691.297,313.193 668.216,321.751 657.632,338.86C644.055,360.807 636.652,404.282 626.385,437.064C615.784,470.914 608.158,503.277 602.95,525.224C600.887,533.918 592.907,567.63 592.907,567.63C592.907,567.63 540.563,576.199 511.442,574.326C479.637,572.28 443.254,559.204 421.05,550.891C396.759,541.797 387.571,530.804 387.571,530.804Z" style="fill:rgb(242,242,242);"/>
        <path d="M384.983,529.615C384.524,530.614 384.681,531.787 385.386,532.63C385.386,532.63 390.108,538.374 401.748,545.18C406.554,547.99 412.558,551.006 419.939,553.857C433.816,559.224 453.217,566.493 473.609,571.82C486.1,575.083 498.957,577.609 511.171,578.541C520.688,579.259 532.652,578.908 544.516,578.103C569.356,576.418 593.739,572.716 593.739,572.716C595.792,572.379 597.442,570.842 597.921,568.817L608.442,526.527C611.423,514.492 615.22,499.325 619.755,482.471C623.434,468.8 627.578,454.01 632.361,438.935C639.049,417.239 644.473,390.881 651.261,369.144C654.581,358.511 658.192,349.017 662.544,341.899C666.31,335.737 671.919,330.836 678.189,326.666C688.455,319.839 700.469,314.943 710.171,310.298C714.485,308.233 719.004,306.73 723.622,305.491C735.183,302.389 747.317,300.821 758.629,296.893C773.135,291.902 797.427,284.611 816.775,277.015C826.975,273.011 835.844,268.892 841.415,264.92C846.51,261.287 850.19,255.887 852.68,249.727C856.032,241.438 857.2,231.751 857.119,223.836C857.038,215.889 855.613,206.161 852.049,197.819C849.421,191.665 845.612,186.276 840.499,182.598C834.192,178.062 824.247,174.502 813.44,172.552C804.042,170.856 794.002,170.361 785.31,171.316C779.114,171.996 772.785,173.964 766.378,176.589C753.92,181.693 741.112,189.434 728.267,193.616C713.564,198.428 691.67,205.507 671.207,211.475C656.752,215.691 643.028,219.369 633.112,221.129C628.158,222.007 621.498,222.043 614.797,221.749C600.509,221.123 586.041,218.898 586.041,218.898C582.71,218.384 579.578,220.622 578.985,223.94C578.985,223.94 575.025,246.164 569.751,266.25C566.971,276.835 563.893,286.828 560.773,292.262C558.599,296.057 554.225,299.794 549.508,303.226C542.347,308.436 534.261,312.795 529.907,315.011C524.585,311.106 512.961,302.415 502.488,293.482C495.227,287.287 488.494,281.021 485.116,276.244C482.48,272.516 480.472,266.838 478.848,260.97C475.316,248.203 473.846,234.45 473.846,234.45C473.666,232.752 472.767,231.212 471.375,230.221C469.984,229.231 468.235,228.885 466.571,229.272C466.571,229.272 440.57,235.351 417.553,242.929C403.886,247.43 391.279,252.56 385.163,257.196C378.94,261.912 374.761,268.545 371.982,276.111C368.418,285.81 367.173,297.08 366.198,307.043C365.052,318.82 364.408,335.508 364.894,352.537C365.356,368.717 366.845,385.2 369.83,398.139C372.985,411.682 381.994,424.585 390.213,436.831C393.569,441.832 396.821,446.679 399.21,451.542C401.27,455.735 402.78,459.865 403.08,464.047C403.566,470.917 401.663,480.564 398.967,490.295C393.555,509.826 384.983,529.615 384.983,529.615ZM390.99,530.246C393.459,524.994 400.921,508.703 406.289,492.523C409.818,481.887 412.366,471.287 412.236,463.646C412.151,458.282 410.654,452.859 408.299,447.365C405.979,441.95 402.812,436.444 399.316,430.905C392.143,419.542 383.533,408.004 380.761,395.64C377.971,383.319 376.665,367.628 376.284,352.234C375.876,335.741 376.546,319.584 377.697,308.183C378.605,299.155 379.645,288.921 382.898,280.139C384.902,274.731 387.749,269.885 392.211,266.522C397.675,262.404 409.029,258.103 421.222,254.125C436.851,249.026 453.88,244.636 462.871,242.419C463.693,247.988 465.121,256.245 467.286,264.152C469.296,271.493 471.991,278.514 475.274,283.184C479.051,288.555 486.484,295.712 494.615,302.686C509.098,315.108 525.735,327.083 525.735,327.083C527.528,328.37 529.875,328.59 531.875,327.658C531.875,327.658 545.36,321.398 556.727,313.176C563,308.637 568.575,303.442 571.474,298.412C574.969,292.34 578.596,281.231 581.716,269.398C585.444,255.256 588.537,240.078 590.102,231.992C595.881,232.734 605.098,233.77 614.246,234.18C621.943,234.524 629.591,234.404 635.283,233.4C645.547,231.589 659.776,227.875 674.723,223.471C695.315,217.404 717.296,210.057 732.071,205.115C745.154,200.716 758.189,192.736 770.867,187.401C776.2,185.157 781.452,183.394 786.623,182.777C794.296,181.861 803.17,182.249 811.489,183.668C820.474,185.201 828.832,187.868 834.103,191.582C838.598,194.748 841.487,199.932 843.395,205.522C845.496,211.676 846.384,218.365 846.497,223.997C846.61,229.614 846.037,236.298 844.205,242.462C842.528,248.105 839.854,253.36 835.419,256.566C828.955,261.234 817.567,266.086 805.015,270.669C787.488,277.068 767.739,282.864 755.276,287.086C744.161,290.826 732.254,292.214 720.9,295.136C715.627,296.493 710.468,298.166 705.53,300.464C695.35,305.198 682.783,310.226 671.991,317.233C664.246,322.262 657.419,328.316 652.72,335.821C647.863,343.581 643.697,353.917 639.941,365.549C632.94,387.227 627.294,413.55 620.41,435.192C616.651,447.283 613.225,459.173 610.236,470.496C604.814,491.044 600.691,509.673 597.458,523.921L588.639,563.125C581.175,564.356 562.632,567.254 543.792,568.961C532.392,569.993 520.887,570.6 511.713,570.111C499.944,569.495 487.52,567.354 475.435,564.49C455.219,559.698 435.95,552.919 422.16,547.926C415.088,545.361 409.31,542.636 404.699,540.039C397.294,535.868 392.94,532.123 390.99,530.246L390.99,530.246Z" style="fill:rgb(41,47,54);"/>
        <path d="M404.092,467.588C404.092,467.588 412.82,475.715 421.183,479.286C425.07,480.945 428.925,481.631 432.117,480.917C439.356,479.302 451.37,474.626 464.12,468.94C480.999,461.413 499.216,452.159 509.095,446.249C512.926,443.963 517.359,440.071 521.54,435.84C529.632,427.651 536.851,418.269 536.851,418.269C537.487,417.454 537.775,416.419 537.651,415.393C537.651,415.393 536.185,403.73 533.085,392.862C531.458,387.159 529.363,381.68 526.846,378.012C524.083,373.941 518.756,368.729 512.977,363.642C502.461,354.384 490.427,345.519 490.427,345.519C488.811,344.363 486.603,344.511 485.155,345.873C485.155,345.873 480.464,350.147 475.142,352.863C473.494,353.705 471.78,354.386 470.15,354.65C469.131,354.815 468.153,354.819 467.4,354.208C465.538,352.697 464.714,349.804 464.057,346.829C462.452,339.57 463.039,331.278 463.039,331.278C463.167,328.429 460.956,326.012 458.107,325.885C455.257,325.758 452.84,327.968 452.713,330.817C452.713,330.817 452.466,340.613 454.699,349.094C456.062,354.269 458.376,358.927 461.744,361.454C464.997,363.897 469.103,364.301 473.42,363.041C478.991,361.414 484.967,356.941 488.276,354.193C492.395,357.15 500.566,363.161 507.928,369.46C513.208,373.977 518.072,378.63 520.589,382.288C522.71,385.405 524.385,390.091 525.732,394.934C527.941,402.869 529.2,411.25 529.664,414.7C527.449,417.415 521.865,424.092 515.786,430.075C512.094,433.709 508.227,437.094 504.862,439.037C495.093,444.663 477.107,453.435 460.45,460.515C448.326,465.668 436.929,469.929 430.07,471.327C428.019,471.744 425.579,470.474 423.127,469.117C416.941,465.694 411.224,460.105 411.224,460.105C409.159,458.137 405.885,458.216 403.917,460.281C401.949,462.346 402.028,465.62 404.092,467.588Z" style="fill:rgb(41,47,54);"/>
        <g transform="matrix(0.997121,0.0758231,-0.0758231,0.997121,21.3092,-59.6924)">
            <path d="M778.155,174.814C787.659,170.554 799.189,172.772 809.402,174.814C819.632,176.86 832.651,178.72 839.533,187.09C846.414,195.459 850.32,213.501 850.692,225.032C851.041,235.859 849.48,248.675 841.765,256.279C828.931,268.926 773.691,300.917 773.691,300.917C773.691,300.917 766.066,264.463 755.836,250.699C745.607,236.936 712.314,218.337 712.314,218.337C712.314,218.337 761.974,182.068 778.155,174.814Z" style="fill:rgb(242,242,242);"/>
            <path d="M777.224,172.737C771.157,175.227 760.474,181.487 749.312,188.418C730.043,200.385 709.415,214.367 709.415,214.367C708.063,215.355 707.306,216.963 707.408,218.635C707.509,220.306 708.455,221.811 709.917,222.628C709.917,222.628 724.291,230.604 737.009,239.792C743.205,244.269 749.065,248.96 752.382,253.266C755.67,257.569 758.766,264.262 761.271,271.312C766.451,285.892 769.38,301.819 769.38,301.819C769.669,303.203 770.605,304.364 771.896,304.94C773.187,305.516 774.676,305.438 775.899,304.729C775.899,304.729 798.445,292.204 818.131,279.609C829.788,272.15 840.396,264.575 845.231,259.796C848.93,256.126 851.473,251.469 853.087,246.335C855.237,239.499 855.75,231.812 855.497,224.877C855.239,217.784 853.714,208.358 851.029,199.992C849.01,193.699 846.316,188.003 843.115,184.144C839.812,180.167 835.375,177.38 830.4,175.417C823.955,172.872 816.603,171.702 810.267,170.488C807.768,170.054 805.205,169.528 802.592,169.248C798.55,168.816 794.482,168.805 790.506,169.161C785.811,169.581 781.299,170.534 777.224,172.737L777.224,172.737ZM779.086,176.891C782.743,175.568 786.614,175.32 790.561,175.605C794.134,175.863 797.665,176.785 801.226,177.576C803.693,178.124 806.158,178.602 808.537,179.14C814.342,180.35 821.092,181.485 826.987,183.901C830.472,185.329 833.651,187.211 835.95,190.036C839.088,193.885 841.418,200.033 843.09,206.468C844.784,212.988 845.737,219.831 845.887,225.187C846.025,230.121 845.745,235.5 844.557,240.525C843.453,245.189 841.573,249.557 838.298,252.762C834.706,256.291 827.613,261.309 819.466,266.809C804.286,277.056 785.381,288.677 776.515,294.065C774.929,287.967 772.189,278.068 768.847,268.625C766.041,260.697 762.856,253.065 759.29,248.132C755.721,243.154 749.437,237.491 742.58,232.277C734.912,226.446 726.569,221.137 721.03,217.771C729.437,211.259 745.498,198.981 759.366,189.316C767.329,183.766 774.544,179.095 779.086,176.891L779.086,176.891Z" style="fill:rgb(41,47,54);"/>
        </g>
        <path d="M506.978,362.295C506.978,362.295 557.754,344.253 566.124,328.816C574.493,313.379 551.802,283.248 557.196,269.67C562.59,256.093 585.839,249.769 598.486,247.351C610.098,245.132 632.151,250.513 633.081,255.163C634.011,259.813 608.53,267.067 604.066,275.25C599.602,283.434 606.115,294.567 606.298,304.265C606.484,314.123 610.836,326.086 605.182,334.396C592.907,352.437 532.645,412.513 532.645,412.513C532.645,412.513 531.343,388.52 527.065,380.15C522.988,372.173 506.978,362.295 506.978,362.295Z" style="fill:rgb(209,215,219);stroke:rgb(41,47,54);stroke-width:9.2px;"/>
        <path d="M712.314,211.641C712.314,211.641 715.116,238.514 720.126,251.815C725.519,266.137 739.841,287.34 748.024,295.337C753.19,300.386 770.344,300.917 770.344,300.917C770.344,300.917 768.557,270.562 761.416,258.511C752.488,243.446 712.314,211.641 712.314,211.641Z" style="fill:rgb(41,47,54);stroke:rgb(41,47,54);stroke-width:5.23px;"/>
        <path d="M724.589,220.568C724.589,220.568 673.255,241.958 658.748,247.351C651.898,249.898 644.082,249.663 637.545,252.931C628.245,257.581 607.6,263.905 602.95,275.25C598.3,286.596 606.298,312.635 609.646,321.004C611.394,325.373 618.907,327.721 623.037,325.468C629.175,322.12 640.149,308.171 646.473,300.917C651.704,294.917 653.692,285.148 660.98,281.946C673.255,276.552 705.06,271.158 720.126,268.555C730.415,266.776 755.836,260.743 755.836,260.743C755.836,260.743 751.372,249.397 746.908,241.772C742.623,234.451 724.589,220.568 724.589,220.568Z" style="fill:rgb(209,215,219);stroke:rgb(41,47,54);stroke-width:8.02px;"/>
    </g>
</svg>
