<?xml version="1.0" encoding="UTF-8" standalone="no"?>
<!DOCTYPE svg PUBLIC "-//W3C//DTD SVG 1.1//EN" "http://www.w3.org/Graphics/SVG/1.1/DTD/svg11.dtd">
<svg width="100%" height="100%" viewBox="0 0 1024 1280" version="1.1" xmlns="http://www.w3.org/2000/svg" xmlns:xlink="http://www.w3.org/1999/xlink" xml:space="preserve" xmlns:serif="http://www.serif.com/" style="fill-rule:evenodd;clip-rule:evenodd;stroke-linecap:round;stroke-linejoin:round;stroke-miterlimit:1.5;">
    <g id="Ebene2" transform="matrix(1.10118,0,0,1.10118,-86.3229,-61.3224)">
        <path d="M655.261,741.789C655.261,741.789 658.441,784.496 659.446,801.772C660.608,821.766 664.56,858.034 662.235,878.493C659.958,898.536 639.451,908.485 645.496,924.527C651.541,940.568 698.578,968.186 723.613,970.56C750.582,973.117 791.035,953.123 805.915,945.451C812.383,942.115 804.309,923.028 797.545,920.342C781.736,914.064 729.022,927.651 718.033,900.813C705.944,871.286 729.193,745.974 729.193,745.974L655.261,741.789Z" style="fill:rgb(209,215,219);stroke:rgb(41,47,54);stroke-width:12.26px;"/>
        <path d="M480.893,964.98C480.893,964.98 441.369,1067.51 427.885,1091.92C421.667,1103.18 413.936,1118.42 413.936,1118.42C413.936,1118.42 473.453,1123.54 490.657,1132.37C497.327,1135.8 496.041,1143.12 490.657,1154.69C484.692,1167.52 447.414,1179.1 425.095,1175.62C403.813,1172.29 382.549,1160.97 366.507,1153.3C353.483,1147.07 345.583,1147.72 340.004,1140.74C334.424,1133.77 333.261,1119.59 338.609,1111.45C343.956,1103.31 355.621,1094.76 360.928,1086.34C367.67,1075.64 376.915,1052.06 380.457,1036.12C384.642,1017.29 381.619,997.064 387.432,980.324C392.1,966.878 402.776,937.081 402.776,937.081L480.893,964.98Z" style="fill:rgb(209,215,219);stroke:rgb(41,47,54);stroke-width:12.47px;"/>
        <path d="M492.052,695.756C492.052,695.756 627.186,584.799 665.025,584.16C701.403,583.546 735.237,609.269 748.722,638.563C762.206,667.857 747.327,764.108 747.327,764.108C747.327,764.108 701.294,767.828 683.16,766.898C665.025,765.968 638.521,745.974 638.521,745.974C638.521,745.974 652.471,704.126 642.706,706.915C632.942,709.705 604.81,750.856 584.119,766.898C564.381,782.201 507.397,828.275 507.397,828.275C507.397,828.275 498.097,744.114 499.027,722.26C499.823,703.562 492.052,695.756 492.052,695.756Z" style="fill:rgb(242,242,242);"/>
        <path d="M636.39,718.19C633.813,728.342 634.036,744.479 634.036,744.479C633.394,746.405 634.053,748.526 635.674,749.748C635.674,749.748 648.188,759.27 662.077,765.788C669.101,769.085 676.483,771.57 682.9,771.95C689.274,772.328 699.034,772.175 709.088,771.804C727.913,771.108 747.775,769.653 747.775,769.653C750.342,769.446 752.431,767.503 752.825,764.958C752.825,764.958 759.184,725.111 760.083,688.673C760.608,667.372 759.068,647.223 753.961,636.151C746.628,620.3 733.702,605.416 717.633,594.778C702.186,584.553 683.869,578.248 664.932,578.609C649.858,578.897 619.684,595.598 588.566,616.71C571.242,628.464 553.347,641.23 537.968,653.355C510.453,675.048 490.366,693.702 490.366,693.702C489.787,694.177 489.436,694.875 489.398,695.623C489.361,696.371 489.641,697.1 490.169,697.631C490.169,697.631 493.459,701.139 495.143,708.971C495.901,712.498 496.295,716.862 495.982,722.13C495.483,730.297 496.24,747.112 497.39,765.059C499.33,795.337 502.391,828.829 502.391,828.829C502.593,830.659 503.777,832.232 505.48,832.933C507.183,833.634 509.132,833.35 510.563,832.192C510.563,832.192 529.583,817.656 549.313,802.017C564.071,790.318 579.15,777.916 587.559,771.335C591.632,768.12 595.989,763.975 600.424,759.323C612.956,746.178 626.245,728.922 635.879,718.727L636.39,718.19ZM495.834,696.308C501.682,692.115 519.18,679.557 540.779,663.952C562.551,648.222 588.283,629.117 611.811,614.412C634.157,600.446 653.982,589.875 665.119,589.712C681.767,589.467 697.815,595.172 711.356,604.216C725.565,613.707 737.034,626.896 743.482,640.975C748.072,650.967 748.898,669.189 748.471,688.401C747.835,717.022 743.958,747.812 742.439,758.94C735.588,759.507 721.846,760.586 708.616,761.284C698.947,761.794 689.557,762.111 683.419,761.846C678.113,761.616 672.017,759.533 666.179,756.89C656.911,752.695 648.289,747.045 644.073,744.126C646.166,737.392 650.638,722.089 650.979,713.275C651.32,704.434 646.994,700.66 641.368,702.231C639.143,702.847 636.048,704.845 632.497,708.101C619.756,719.786 597.669,749.528 580.678,762.461C572.177,768.989 556.679,780.989 542.003,792.906C529.892,802.741 518.298,812.455 511.223,818.427C509.46,804.321 506.117,776.73 503.992,753.867C502.75,740.499 501.916,728.771 502.072,722.389C502.263,714.95 501.191,709.166 499.808,704.83C498.55,700.886 497.017,698.088 495.834,696.308Z" style="fill:rgb(41,47,54);"/>
        <path d="M397.196,649.723C397.196,649.723 389.292,704.823 393.011,732.024C396.648,758.617 414.849,783.4 412.541,810.141C409.751,842.457 383.247,928.711 383.247,928.711C383.247,928.711 411.493,975.804 427.885,983.114C445.089,990.786 489.262,984.509 489.262,984.509C489.262,984.509 517.758,932.9 524.136,910.577C532.041,882.911 532.993,847.476 533.901,811.536C535.063,765.503 531.111,639.958 531.111,639.958C531.111,639.958 491.217,658.124 472.523,659.487C450.204,661.115 397.196,649.723 397.196,649.723Z" style="fill:rgb(242,242,242);"/>
        <path d="M397.755,647.125C397.034,646.97 396.282,647.121 395.678,647.542C395.073,647.963 394.67,648.616 394.566,649.345C394.566,649.345 389.652,674.105 387.716,698.8C386.746,711.168 386.714,723.5 387.829,732.733C390.328,751.427 399.868,769.28 404.7,787.49C406.636,794.786 407.771,802.144 407.105,809.672C406.118,820.815 402.216,838.478 397.606,856.716C388.966,890.889 377.773,927.029 377.773,927.029C377.296,928.582 377.501,930.264 378.336,931.657C378.336,931.657 393.065,956.266 407.569,973.008C413.89,980.305 420.307,986.084 425.521,988.414C431.97,991.296 441.864,992.552 452.114,992.723C470.522,993.031 490.067,990.167 490.067,990.167C491.843,989.915 493.398,988.843 494.266,987.272C494.266,987.272 506.397,964.895 516.523,943.12C521.962,931.424 526.816,919.894 529.012,911.97C532.387,899.828 534.399,886.235 535.772,871.782C537.575,852.811 538.253,832.323 538.823,811.66C539.602,788.612 539.616,745.658 538.744,708.448C537.873,671.237 536.223,639.797 536.223,639.797C536.17,638.087 535.264,636.517 533.811,635.613C532.357,634.71 530.548,634.594 528.991,635.303C528.991,635.303 512.01,643.455 495.153,649.471C486.713,652.483 478.324,654.996 472.236,655.551C464.799,656.237 453.832,655.51 442.621,654.227C420.636,651.711 397.755,647.125 397.755,647.125ZM399.548,652.971C406.412,654.48 424.344,658.294 441.74,660.897C453.476,662.653 464.968,663.844 472.81,663.423C479.443,663.061 488.666,660.736 497.954,657.81C508.57,654.465 519.267,650.331 526.053,647.591C526.136,657.016 526.333,674.495 526.773,694.996C527.33,720.975 528.442,751.796 528.83,777.252C529.033,790.626 529.122,802.51 528.978,811.412C528.51,831.838 528.121,852.11 526.248,870.854C524.868,884.665 522.653,897.622 519.26,909.184C517.056,916.673 512.229,927.527 506.892,938.548C498.676,955.511 489.205,972.83 485.678,979.198C479.846,979.886 465.761,981.332 452.321,981.079C443.832,980.92 435.594,980.193 430.249,977.814C424.906,975.437 418.356,968.19 411.921,960.148C402.033,947.791 392.805,933.28 389.471,927.907C392.107,919.131 401.17,888.563 408.401,859.42C413.096,840.498 417.005,822.164 417.977,810.611C418.717,801.81 417.444,793.206 415.136,784.691C410.32,766.918 400.746,749.571 398.193,731.316C397.235,724.653 397.164,716.251 397.164,707.417C397.164,702.033 397.088,696.506 397.231,691.087C397.668,674.532 398.973,659.157 399.548,652.971L399.548,652.971Z" style="fill:rgb(41,47,54);"/>
        <path d="M487.868,521.388C487.868,521.388 532.324,538.805 543.665,532.548C570.634,517.668 649.681,432.112 649.681,432.112C649.681,432.112 629.687,428.857 623.177,422.347C616.667,415.837 610.623,393.053 610.623,393.053C610.623,393.053 569.472,435.366 547.85,444.666C527.307,453.502 480.893,448.851 480.893,448.851L487.868,521.388Z" style="fill:rgb(242,242,242);"/>
        <path d="M486.759,521.495C486.799,521.912 487.071,522.272 487.461,522.425C487.461,522.425 504.623,529.957 520.455,533.831C530.573,536.307 540.174,536.994 544.741,534.497C554.83,528.955 572.169,513.687 589.968,496.6C620.02,467.751 651.473,433.767 651.473,433.767C652.082,433.107 652.28,432.166 651.988,431.317C651.695,430.468 650.96,429.848 650.073,429.704C650.073,429.704 641.549,428.313 633.935,425.567C630.299,424.255 626.848,422.682 624.832,420.692C622.712,418.597 620.682,414.642 618.872,410.411C615.284,402.022 612.695,392.503 612.695,392.503C612.497,391.757 611.913,391.174 611.166,390.979C610.418,390.783 609.624,391.005 609.085,391.558C609.085,391.558 591.642,409.741 573.444,424.769C563.985,432.579 554.309,439.505 546.964,442.606C540.307,445.418 530.869,446.695 521.252,447.261C515.815,447.581 510.32,447.641 505.212,447.622C491.832,447.572 481.105,446.733 481.105,446.733C480.471,446.67 479.842,446.894 479.391,447.343C478.94,447.793 478.714,448.421 478.775,449.055L486.759,521.495ZM488.917,520.568L483.224,451.243C487.217,451.643 495.504,452.354 505.166,452.501C510.384,452.581 516.002,452.46 521.555,452.09C531.747,451.41 541.718,449.799 548.736,446.726C556.322,443.403 566.235,436.037 576.026,427.882C590.118,416.144 603.934,402.717 609.542,397.163C610.606,400.814 612.449,406.715 614.701,412.164C616.722,417.054 619.114,421.565 621.522,424.002C623.905,426.416 627.938,428.494 632.28,430.098C636.762,431.755 641.555,432.942 644.907,433.667C636.407,442.785 611.094,469.7 586.728,493.235C569.335,510.034 552.458,525.129 542.59,530.598C539.48,532.327 533.633,531.877 526.967,530.754C523.219,530.123 519.236,529.204 515.289,528.239C503.286,525.304 491.724,521.507 488.917,520.568L488.917,520.568Z" style="fill:rgb(41,47,54);"/>
        <path d="M372.087,275.878L360.928,341.44L415.33,381.894L408.356,264.718L372.087,275.878Z" style="fill:rgb(209,215,219);stroke:rgb(41,47,54);stroke-width:5.09px;"/>
        <path d="M362.323,330.281C356.743,355.855 347.384,380.889 345.583,407.003C343.723,433.972 344.109,464.559 351.163,492.094C358.37,520.226 382.317,550.217 388.827,575.791C394.563,598.326 390.221,645.538 390.221,645.538C390.221,645.538 446.252,661.58 469.733,660.882C491.194,660.245 531.111,641.353 531.111,641.353C531.111,641.353 522.362,604.934 517.161,586.95C511.582,567.654 501.352,543.242 497.632,525.573C494.561,510.984 498.196,490.384 498.196,490.384L419.515,454.431C419.515,454.431 496.702,489.537 519.951,500.464C533.125,506.655 547.85,515.576 559.01,519.993C567.923,523.521 577.555,529.064 586.908,526.968C600.393,523.945 639.916,501.859 639.916,501.859C639.916,501.859 634.017,478.901 628.757,468.38C623.409,457.686 607.833,437.691 607.833,437.691C607.833,437.691 579.554,448.647 565.984,444.666C548.548,439.551 519.021,419.092 503.212,407.003C490.664,397.408 482.405,383.189 471.128,372.129C459.039,360.272 447.578,342.362 430.675,335.861C412.541,328.886 362.323,330.281 362.323,330.281" style="fill:rgb(242,242,242);"/>
        <path d="M362.174,327.439L362.075,327.443L362.006,327.452L361.953,327.456L361.883,327.469L361.799,327.481L361.735,327.496L361.672,327.507L361.597,327.529L361.53,327.545L361.474,327.564L361.401,327.585L361.325,327.616L361.271,327.634L361.22,327.657L361.142,327.688L361.069,327.726L361.021,327.748L360.972,327.776L360.896,327.815L360.832,327.857L360.785,327.884L360.733,327.92L360.666,327.964L360.611,328.007L360.562,328.043L360.507,328.09L360.451,328.134L360.407,328.177L360.355,328.222L360.299,328.28L360.254,328.324L360.218,328.365L360.165,328.421L360.113,328.488L360.076,328.531L360.045,328.574L359.995,328.639L359.95,328.709L359.918,328.755L359.89,328.804L359.846,328.874L359.811,328.941L359.782,328.994L359.754,329.056L359.719,329.125L359.696,329.185L359.669,329.246L359.642,329.326L359.616,329.392L359.602,329.443L359.58,329.51L359.558,329.607L359.54,329.674C355.098,347.472 348.867,364.939 344.562,382.759C342.658,390.639 341.133,398.569 340.296,406.638C339.242,420.468 338.734,435.242 339.451,450.085C340.161,464.774 342.079,479.523 345.627,493.513C347.15,499.52 349.39,505.612 352.066,511.727C361.927,534.262 378.042,557.12 383.128,577.241C384.919,584.325 385.617,593.971 385.807,603.709C386.205,624.141 384.252,644.989 384.252,644.989C383.989,647.857 385.802,650.508 388.572,651.301C388.572,651.301 412.927,658.315 436.383,662.954C449.065,665.462 461.498,667.243 469.915,667.006C477.489,666.794 487.237,664.517 496.868,661.474C515.516,655.583 533.761,646.952 533.761,646.952C536.411,645.698 537.818,642.757 537.134,639.906L523.143,585.221C519.337,572.028 513.396,556.446 508.774,542.254C506.688,535.849 504.865,529.743 503.703,524.295C502.614,519.272 502.413,513.463 502.559,508.173C502.657,504.569 502.919,501.195 503.203,498.433L517.794,505.053C526.605,509.241 536.112,514.663 544.764,519.12C549.135,521.372 553.297,523.383 557.067,524.9C562.498,527.092 568.196,529.979 573.938,531.57C578.653,532.877 583.405,533.328 588.105,532.308C593.251,531.191 602.024,527.524 611.1,523.229C626.456,515.962 642.776,506.976 642.776,506.976C645.099,505.678 646.256,502.977 645.594,500.4C645.594,500.4 642.947,489.831 639.606,479.625C637.906,474.431 636.013,469.335 634.203,465.657C632.349,461.895 629.323,457.034 626.086,452.233C619.814,442.934 612.775,433.841 612.775,433.841C611.075,431.66 608.148,430.851 605.57,431.85C605.57,431.85 593.725,436.398 582,438.458C576.748,439.381 571.528,439.97 567.678,438.891C560.718,436.939 551.735,432.407 542.5,427.03C529.201,419.286 515.44,409.781 506.288,402.98C502.704,400.318 499.479,397.26 496.431,394.003C488.841,385.891 482.258,376.653 474.218,368.979C465.592,360.755 457.221,349.571 447.133,341.409C442.484,337.648 437.492,334.493 431.982,332.461C425.415,330.034 414.857,328.657 403.86,327.945C383.787,326.644 362.244,327.434 362.244,327.434L362.174,327.439ZM364.676,333.106C361.312,350.319 356.36,367.329 353.347,384.585C352.03,392.129 351.134,399.708 350.87,407.367C350.043,420.787 349.822,435.109 350.656,449.49C351.465,463.422 353.268,477.416 356.699,490.676C358.101,496.093 360.171,501.577 362.609,507.088C372.827,530.183 389.235,553.699 394.525,574.34C396.522,582.132 397.412,592.739 397.656,603.459C397.995,618.361 397.124,633.482 396.583,641.075C404.665,643.265 421.93,647.77 438.72,651.034C450.388,653.302 461.813,655.001 469.551,654.758C476.19,654.55 484.701,652.399 493.138,649.713C505.382,645.814 517.448,640.696 523.82,637.866L511.18,588.68C507.392,575.609 501.431,560.189 496.879,546.115C494.659,539.252 492.775,532.692 491.561,526.851C490.582,522.058 490.24,516.679 490.28,511.495C490.332,504.61 491.032,498.09 491.592,493.929L417.232,459.428C414.473,458.168 413.258,454.911 414.516,452.151C415.774,449.392 419.03,448.174 421.79,449.429L421.799,449.433L421.799,449.433L500.688,484.931C501.76,485.421 502.63,486.196 503.234,487.136L522.108,495.874C531.048,500.029 540.699,505.427 549.485,509.844C553.559,511.892 557.44,513.718 560.952,515.086C566.045,517.063 571.375,519.742 576.75,521.155C579.743,521.941 582.747,522.313 585.712,521.627C590.321,520.561 598.111,517.045 606.214,513.078C616.575,508.005 627.38,502.122 633.044,498.985C631.951,495.128 630.207,489.216 628.23,483.429C626.665,478.846 624.956,474.342 623.31,471.103C621.612,467.755 618.82,463.457 615.88,459.189C612.177,453.811 608.215,448.501 605.654,445.133C600.731,446.813 592.382,449.394 584.072,450.738C576.803,451.914 569.568,452.059 564.29,450.441C556.635,448.096 546.742,442.97 536.67,436.754C523.208,428.447 509.348,418.272 500.136,411.025C496.158,407.895 492.588,404.34 489.235,400.552C481.976,392.352 475.756,383.057 468.038,375.279C460.897,368.075 454.018,358.699 446.028,350.896C441.048,346.033 435.644,341.776 429.367,339.26C423.332,336.847 413.551,335.383 403.359,334.48C387.495,333.075 370.662,333.055 364.676,333.106Z" style="fill:rgb(41,47,54);"/>
        <g transform="matrix(-0.968749,0,0,0.975643,1217.61,90.2218)">
            <path d="M705.029,588.531C705.029,588.531 760.151,603.536 772.114,607.285C804.843,617.541 845.683,614.921 851.428,606.377C863.085,589.044 858.579,573.954 854.934,567.517C819.259,563.003 814.779,570.902 771.086,563.902C738.578,558.694 708.046,551.277 708.046,551.277L705.029,588.531Z" style="fill:rgb(41,47,54);stroke:rgb(41,47,54);stroke-width:11.78px;"/>
        </g>
        <path d="M617.597,443.271C617.597,443.271 670.605,431.647 684.555,420.952C696.224,412.006 698.271,399.795 704.084,388.868C709.034,379.561 707.339,364.457 716.638,363.759C725.938,363.062 741.282,378.639 747.327,388.868C753.372,399.098 757.557,407.933 752.907,419.557C748.257,431.182 739.19,439.551 729.193,444.666C720.048,449.345 714.75,450.009 705.479,454.431C690.367,461.638 638.521,487.909 638.521,487.909L617.597,443.271Z" style="fill:rgb(209,215,219);stroke:rgb(41,47,54);stroke-width:8.32px;"/>
        <path d="M616.202,402.818C616.202,402.818 636.429,390.263 641.311,383.289C645.652,377.088 642.54,367.938 645.496,360.969C648.751,353.297 653.401,340.743 660.84,337.255C668.28,333.768 682.927,337.72 690.134,340.045C695.801,341.873 701.764,345.721 704.084,351.205C706.641,357.25 708.129,368.361 705.479,376.314C702.689,384.684 695.294,394.836 687.344,401.423C679.207,408.165 665.025,412.35 656.656,416.767C650.025,420.267 637.126,427.927 637.126,427.927C637.126,427.927 621.085,423.742 617.597,419.557C614.11,415.372 616.202,402.818 616.202,402.818Z" style="fill:rgb(209,215,219);stroke:rgb(41,47,54);stroke-width:5.84px;"/>
        <g transform="matrix(0.983922,-0.178599,0.178599,0.983922,-54.9784,122.383)">
            <path d="M648.189,359.172C648.189,359.172 654.774,364.505 660.752,368.867C665.281,372.171 669.429,374.848 669.429,374.848C669.754,375.051 670.102,375.215 670.466,375.336C670.466,375.336 675.985,377.089 682.337,378.781C690.703,381.01 700.403,383.17 700.403,383.17C701.878,383.661 703.474,382.863 703.965,381.389C704.456,379.915 703.658,378.319 702.184,377.828C702.184,377.828 693.128,373.735 685.098,370.499C680.137,368.499 675.594,366.863 674.072,366.322C672.818,365.576 669.337,363.53 665.393,361.442C658.853,357.98 651.173,354.397 651.173,354.397C649.855,353.573 648.117,353.975 647.293,355.292C646.47,356.61 646.871,358.349 648.189,359.172Z" style="fill:rgb(41,47,54);"/>
        </g>
        <g transform="matrix(-0.991918,0.12688,0.12688,0.991918,1121.38,-27.3743)">
            <path d="M800.406,78.403C792.073,72.403 799.228,26.848 810.561,21.736C821.895,16.625 859.406,43.292 856.406,54.403C853.406,65.514 808.739,84.403 800.406,78.403Z" style="fill:rgb(41,47,54);stroke:rgb(41,47,54);stroke-width:4.45px;"/>
        </g>
        <g transform="matrix(-0.98171,-0.190383,-0.190383,0.98171,1149.07,192.594)">
            <path d="M703.164,111.403C689.387,128.959 683.144,171.596 684.739,192.736C686.08,210.497 700.739,230.66 712.739,238.245C724.739,245.83 743.628,242.941 756.739,238.245C769.851,233.549 783.851,220.988 791.406,210.07C798.771,199.427 799.804,185.478 802.073,172.736C804.962,156.514 814.517,126.959 808.739,112.736C802.962,98.514 783.565,87.607 767.406,87.403C749.81,87.181 716.942,93.847 703.164,111.403Z" style="fill:rgb(209,215,219);stroke:rgb(41,47,54);stroke-width:8.92px;"/>
        </g>
        <g transform="matrix(-0.886374,-0.0908671,-0.0978322,0.954316,1064.56,131.231)">
            <path d="M825.406,154.736C829.628,144.514 829.643,129.223 827.739,116.403C826.252,106.383 826.509,104.953 819.739,94.731C813.012,84.573 789.295,73.68 773.739,72.403C758.184,71.126 737.406,75.403 725.073,79.736C715.177,83.213 698.406,90.625 699.739,98.403C701.073,106.181 711.517,117.848 724.406,123.07C737.295,128.292 753.628,125.278 759.739,131.736C765.851,138.195 765.628,156.155 769.739,165.155C773.851,174.155 802.284,190.403 810.561,190.403C818.839,190.403 822.143,162.636 825.406,154.736Z" style="fill:rgb(41,47,54);stroke:rgb(41,47,54);stroke-width:9.3px;"/>
        </g>
        <g transform="matrix(0.973623,0.491366,0.46808,-0.927483,-279.586,1097.18)">
            <path d="M511.693,650.778C513.153,655.634 515.471,663.377 514.926,672.764C514.542,679.394 512.857,686.842 508.471,694.632C506.411,698.217 503.611,702.083 500.207,705.777C495.92,710.431 490.82,714.92 485.729,718.702C480.921,722.021 475.542,725.987 472.076,731.825C469.979,735.356 468.589,739.395 468.196,744.369C468.04,746.34 467.824,748.321 467.95,750.563C468.192,751.598 467.588,752.645 466.602,752.899C465.616,753.154 464.618,752.519 464.376,751.484C463.369,749.131 462.657,746.956 462.232,744.73C461.012,738.345 462.258,732.695 464.146,727.642C467.114,719.698 472.842,713.577 478.061,708.465C481.486,705.321 484.812,701.699 487.836,698.063C490.961,694.307 493.662,690.489 495.394,686.957C498.092,681.592 498.995,676.554 499.074,672.101C499.195,665.287 497.199,659.777 496.02,656.301C494.568,651.76 496.901,646.837 501.226,645.313C505.551,643.789 510.241,646.238 511.693,650.778Z" style="fill:rgb(41,47,54);"/>
        </g>
    </g>
</svg>
