<?xml version="1.0" encoding="UTF-8" standalone="no"?>
<!DOCTYPE svg PUBLIC "-//W3C//DTD SVG 1.1//EN" "http://www.w3.org/Graphics/SVG/1.1/DTD/svg11.dtd">
<svg width="100%" height="100%" viewBox="0 0 1024 1280" version="1.1" xmlns="http://www.w3.org/2000/svg" xmlns:xlink="http://www.w3.org/1999/xlink" xml:space="preserve" xmlns:serif="http://www.serif.com/" style="fill-rule:evenodd;clip-rule:evenodd;stroke-linecap:round;stroke-linejoin:round;stroke-miterlimit:1.5;">
    <g id="Ebene1" transform="matrix(1.0106,0,0,1.0106,-21.3393,16.1675)">
        <g transform="matrix(0.95661,-0.138399,0.133681,0.990377,-37.5753,96.4618)">
            <path d="M379.661,922.607C353.283,957.297 319.853,1016.22 301.643,1046.77C292.292,1062.45 273.558,1082.1 271.512,1094.75C269.647,1106.28 298.295,1117.26 300.527,1126C302.403,1133.35 304.479,1148.39 298.295,1152.78C291.227,1157.8 258.678,1154.27 246.961,1152.78C235.243,1151.29 226.502,1140.51 223.526,1129.35C220.55,1118.19 221.48,1100.14 227.99,1085.82C233.967,1072.67 248.782,1050.32 253.656,1036.72C260.724,1017.01 263.7,989.48 271.512,967.533C277.887,949.622 291.971,910.247 301.643,893.88" style="fill:rgb(209,215,219);stroke:rgb(41,47,54);stroke-width:12.94px;"/>
        </g>
        <path d="M623.856,964.162C618.301,989.953 660.559,1103.63 663.138,1133.19C664.133,1144.6 657.583,1157.4 654.805,1166.52C652.574,1173.85 641.632,1195.12 647.663,1199.85C650.832,1202.34 658.251,1205.57 666.762,1205.62C677.969,1205.68 704.431,1191.44 708.371,1179.62C712.339,1167.71 722.06,1142.32 717.894,1129.62C714.428,1119.06 706.547,1112.96 703.61,1102.24C699.642,1087.76 699.995,1062.6 698.848,1042.73C697.658,1022.09 701.103,990.961 696.468,978.447C686.548,951.664 627.936,945.219 623.856,964.162Z" style="fill:rgb(209,215,219);stroke:rgb(41,47,54);stroke-width:9.2px;"/>
        <g transform="matrix(0.965905,0,0,1,57.2971,23.4722)">
            <path d="M393.151,521.151C393.151,521.151 379.885,600.12 370.531,640C359.929,685.196 350.769,748.229 335.703,793.518C321.735,835.51 289.997,909.354 289.997,909.354C289.997,909.354 305.175,932.433 324.03,937.276C344.303,942.484 411.636,953.695 411.636,953.695C411.636,953.695 444.173,884.289 459.622,846.861C477.664,803.153 483.915,685.754 501.398,680.732C518.882,675.711 535.063,782.359 546.037,819.557C555.924,853.074 553.731,888.783 556.148,914.636C558.203,936.601 566.541,966.194 566.541,966.194C566.541,966.194 614.553,980.617 634.862,979.348C655.693,978.046 698.922,961.953 698.922,961.953C698.922,961.953 671.898,867.059 664.464,820.227C657.025,773.357 645.564,698.774 631.801,653.949C618.215,609.705 604.066,551.282 604.066,551.282" style="fill:rgb(242,242,242);"/>
            <path d="M502.288,687.193C502.98,688.251 504.978,689.397 506.072,691.387C509.633,697.863 513.077,707.882 516.436,719.61C525.914,752.699 534.448,798.956 541.042,820.932C544.667,833.088 546.679,845.544 547.857,857.697C549.895,878.72 549.535,898.846 551.039,915.082C551.646,921.816 552.83,929.252 554.182,936.366C557.312,952.832 561.374,967.552 561.374,967.552C561.855,969.257 563.204,970.608 564.951,971.133C564.951,971.133 585.847,977.52 606.036,981.584C617.048,983.801 627.866,985.28 635.231,984.856C642.553,984.433 652.534,982.305 662.552,979.627C681.742,974.497 701.094,967.395 701.094,967.395C703.989,966.318 705.568,963.296 704.745,960.406C704.745,960.406 690.052,907.846 679.155,861.799C675.444,846.12 672.075,831.222 670.084,819.394C665.38,791.696 659.169,754.324 651.924,719.144C646.886,694.683 641.351,671.284 635.484,652.894C630.306,636.641 625.011,618.467 620.436,601.993C612.615,573.83 606.837,550.656 606.837,550.656C606.479,549.178 604.947,548.26 603.418,548.605C601.889,548.951 600.938,550.43 601.295,551.908C601.295,551.908 608.139,581.088 616.759,613.888C620.358,627.583 624.249,641.91 628.117,655.005C633.514,673.288 638.461,696.517 642.911,720.781C649.368,755.989 654.754,793.36 658.845,821.059C661.174,836.685 665.488,857.651 670.509,878.656C678.521,912.181 688.023,945.857 691.621,958.388C684.778,960.844 672.047,965.248 659.38,968.763C650.256,971.295 641.175,973.391 634.493,973.84C627.882,974.286 618.165,972.932 608.253,971.039C592.935,968.114 577.187,963.824 570.934,962.058C569.786,957.856 567.542,949.332 565.456,939.598C563.691,931.362 562.04,922.252 561.258,914.191C559.724,897.952 559.965,877.826 557.971,856.792C556.762,844.039 554.759,830.958 551.031,818.182C543.644,792.709 533.963,734.811 522.99,702.186C519.216,690.967 515.042,682.57 511.023,678.662C507.37,675.11 503.464,674.231 499.722,675.288C496.864,676.096 493.86,678.422 491.318,682.619C487.903,688.257 484.75,698.091 481.915,710.466C473.02,749.302 466.308,814.57 453.853,844.639C448.878,856.707 442.119,872.11 435.258,887.429C424.009,912.544 412.476,937.429 407.991,947.067C399.084,945.573 378.921,942.151 360.093,938.681C346.076,936.098 332.804,933.494 325.579,931.647C319.303,930.043 313.547,926.033 308.757,921.798C303.23,916.911 298.975,911.634 296.753,908.659C300.564,899.686 312.547,871.278 323.926,842.234C330.439,825.61 336.754,808.776 341.238,795.236C345.888,781.2 349.989,765.484 353.718,749.113C362.064,712.468 368.6,672.528 375.873,641.169C378.061,631.079 380.502,618.526 382.815,605.354C389.698,566.145 395.96,521.591 395.96,521.591C396.211,520.094 395.157,518.681 393.607,518.438C392.056,518.195 390.593,519.213 390.342,520.711C390.342,520.711 384.901,548.856 378.403,579.983C374.057,600.803 369.258,622.947 365.189,638.831C357.756,670.165 350.972,710.078 342.484,746.705C338.776,762.708 334.752,778.08 330.168,791.8C325.701,805.171 319.415,821.789 312.936,838.202C299.147,873.137 284.48,907.142 284.48,907.142C283.733,908.88 283.91,910.86 284.955,912.448C284.955,912.448 292.802,924.412 304.373,933.455C309.76,937.666 315.942,941.217 322.48,942.905C329.873,944.814 343.454,947.525 357.801,950.205C383.005,954.913 410.593,959.54 410.593,959.54C413.349,959.999 416.077,958.602 417.231,956.142C417.231,956.142 432.164,924.355 446.618,892.183C453.549,876.755 460.368,861.238 465.392,849.083C477.95,818.552 484.921,752.396 493.714,712.953C495.758,703.782 497.852,696.125 500.239,690.892C500.886,689.473 501.536,688.257 502.229,687.29L502.288,687.193Z" style="fill:rgb(41,47,54);"/>
        </g>
        <g transform="matrix(0.961825,0.0385587,-0.04351,1.01785,37.6316,-27.2467)">
            <path d="M498.051,196.017C488.676,198.396 489.495,225.032 484.659,232.844C481.4,238.108 470.966,237.005 469.036,242.888C465.13,254.791 448.658,287.911 461.224,304.265C474.802,321.934 524.647,353.181 550.5,348.903C576.353,344.625 607.746,290.514 614.628,271.17C620.429,254.863 587.512,251.006 578.649,239.7C570.392,229.167 559.639,200.161 548.001,195.589C532.377,189.451 510.512,192.856 498.051,196.017Z" style="fill:rgb(209,215,219);stroke:rgb(41,47,54);stroke-width:9.56px;"/>
        </g>
        <path d="M477.443,227.335C465.738,220.391 435.384,243.603 422.687,253.522C412.279,261.654 403.065,273.769 401.261,286.852C398.88,304.112 404.222,333.926 408.403,357.083C413.561,385.651 429.234,425.33 432.21,458.263C435.108,490.333 426.258,554.681 426.258,554.681C426.258,554.681 471.006,583.157 496.489,586.821C526.843,591.185 584.178,583.25 608.382,580.869C619.779,579.748 641.712,572.537 641.712,572.537C641.712,572.537 631.395,494.172 632.189,466.595C632.776,446.201 640.918,425.925 646.473,407.078C651.83,388.901 660.956,371.169 665.519,353.512C669.942,336.396 679.009,316.611 673.851,301.137C668.693,285.662 648.06,270.187 634.569,260.665C622.35,252.039 603.422,237.849 592.907,244C582.392,250.15 581.968,281.446 571.481,297.565C560.768,314.032 528.628,342.799 528.628,342.799C528.628,342.799 500.958,313.322 492.918,295.185C484.387,275.941 489.148,234.278 477.443,227.335Z" style="fill:rgb(242,242,242);"/>
        <path d="M478.702,225.213C474.032,222.278 466.53,223.331 458.163,226.783C444.649,232.359 428.58,243.941 420.084,250.191C414.452,254.375 409.087,259.605 404.916,265.572C400.539,271.835 397.531,278.905 396.491,286.194C395.382,294.061 395.765,304.437 396.956,315.641C398.438,329.576 401.148,344.835 403.489,357.97C407.096,378.121 415.891,403.787 421.83,428.735C424.277,439.01 426.23,449.16 427.08,458.726C427.998,469.06 427.65,482.809 426.791,496.613C425.015,525.174 421.011,553.96 421.011,553.96C420.729,556.011 421.668,558.038 423.415,559.15C423.415,559.15 443.721,572.114 464.92,581.816C475.77,586.781 486.866,590.858 495.724,592.136C507.992,593.907 524.565,593.764 541.656,592.724C567.334,591.16 594.207,587.625 608.902,586.163C612.857,585.752 618.013,584.658 623.149,583.35C633.265,580.774 643.315,577.412 643.315,577.412C645.658,576.642 647.122,574.313 646.8,571.867C646.8,571.867 642.32,539.169 639.329,508.641C637.714,492.165 636.52,476.33 636.743,466.726C636.933,458.919 638.277,451.124 640.165,443.427C643.117,431.395 647.365,419.598 650.664,408.313C654.967,393.944 661.634,379.863 666.523,365.876C667.831,362.136 669.018,358.403 670.006,354.672C673.14,342.852 678.414,329.778 679.887,317.667C680.661,311.31 680.405,305.195 678.567,299.565C676.263,292.517 671.129,285.401 664.763,278.792C656.324,270.03 645.727,262.114 637.631,256.327C629.375,250.452 618.139,242.198 608.274,238.809C601.435,236.46 595.105,236.427 590.169,239.319C586.56,241.468 583.575,245.683 581.357,251.438C576.719,263.474 574.88,283.23 567.445,294.939C564.046,300.315 558.333,307.046 552.249,313.632C543.283,323.337 533.517,332.716 528.811,337.153C524.555,332.569 516.044,323.156 508.432,313.252C503.28,306.549 498.519,299.638 495.873,293.875C489.561,280.086 490.133,254.443 486.417,238.934C484.82,232.27 482.339,227.34 478.702,225.213L478.702,225.213ZM476.185,229.456C478.903,231.092 480.327,235.041 481.437,240.079C484.951,256.018 483.843,282.232 489.962,296.495C492.618,302.705 497.448,310.225 502.749,317.504C513.305,331.999 525.71,345.538 525.71,345.538C527.198,347.122 529.678,347.23 531.297,345.781C531.297,345.781 545.797,333.13 558.763,319.809C565.46,312.928 571.729,305.851 575.517,300.191C583.519,288.184 586.206,267.793 591.268,255.365C592.508,252.319 593.703,249.796 595.645,248.681C599.083,246.67 603.669,248.376 608.587,250.628C616.562,254.28 625.009,260.455 631.507,265.002C639.231,270.386 649.37,277.724 657.452,285.918C662.737,291.276 667.179,296.951 669.135,302.708C671.086,308.441 670.713,314.863 669.467,321.503C667.539,331.773 663.509,342.509 661.031,352.352C660.146,355.866 659.079,359.385 657.889,362.908C653.106,377.064 646.495,391.316 642.281,405.842C638.898,417.231 634.592,429.141 631.531,441.279C629.433,449.595 627.915,458.017 627.635,466.464C627.296,476.321 628.312,492.592 629.785,509.524C631.88,533.591 634.886,559.006 636.092,568.908C632.356,570.039 626.497,571.744 620.616,573.173C616.013,574.293 611.399,575.247 607.861,575.576C593.25,576.996 566.529,580.415 541.004,581.955C524.724,582.936 508.94,583.179 497.253,581.505C489.225,580.356 479.206,576.558 469.367,572.076C453.498,564.848 438.133,555.75 431.952,551.977C433.038,543.445 435.827,520.27 437.189,497.244C438.04,482.871 438.327,468.554 437.339,457.799C436.417,447.768 434.354,437.126 431.755,426.356C425.786,401.617 416.956,376.182 413.316,356.196C410.955,343.283 408.226,328.282 406.698,314.58C405.549,304.284 405.054,294.749 406.03,287.51C406.813,281.632 409.351,276.01 412.729,270.867C416.21,265.565 420.566,260.733 425.29,256.854C432.029,251.261 443.901,241.492 455.209,235.002C463.568,230.206 471.412,226.789 476.184,229.456L476.185,229.456Z" style="fill:rgb(41,47,54);"/>
        <g transform="matrix(0.956119,-0.137145,0.141986,0.989869,-22.8367,95.6733)">
            <path d="M395.709,514.571C389.513,511.853 385.786,527.955 383.987,536.859C382.498,544.222 378.404,553.316 382.853,556.709C399.399,569.327 453.581,588.446 491.413,594.562C531.171,600.99 601.64,602.181 621.4,595.277C627.784,593.046 622.786,580.037 619.589,570.928C616.741,562.814 615.997,554.194 609.972,552.424C590.927,546.829 540.826,549.588 506.853,543.586C471.142,537.277 414.16,522.665 395.709,514.571Z" style="fill:rgb(41,47,54);stroke:rgb(41,47,54);stroke-width:10.87px;"/>
        </g>
        <g transform="matrix(0.922058,0.122906,-0.121663,1.01109,-11.0301,-84.7576)">
            <path d="M552.276,163.675C554.895,184.149 574.181,219.063 587.853,234.181C599.18,246.704 621.335,256.461 634.31,254.379C647.285,252.298 658.803,234.582 665.702,221.693C672.6,208.804 675.775,192.295 675.701,177.044C675.615,159.41 668.641,126.722 665.189,115.889C664.085,112.428 658.464,113.107 654.989,112.051C649.361,110.339 639.364,107.41 631.42,105.623C621.897,103.48 607.732,98.242 597.852,99.195C588.417,100.104 577.611,103.596 572.14,111.336C564.544,122.083 549.909,145.165 552.276,163.675Z" style="fill:rgb(209,215,219);stroke:rgb(41,47,54);stroke-width:8.84px;"/>
        </g>
        <g transform="matrix(0.922058,0.122906,-0.121663,1.01109,-11.0301,-84.7576)">
            <path d="M545,136.334C544.762,147.88 546.044,169.306 550.714,174.901C555.384,180.496 569.135,173.727 573.022,169.902C576.909,166.076 572.314,157.688 574.037,151.946C576.249,144.577 578.512,130.313 586.291,125.687C594.069,121.062 609.226,124.421 620.707,124.192C633.228,123.943 654.155,126.811 661.417,124.192C666.424,122.386 666.622,113.257 664.273,108.479C660.821,101.456 649.87,88.243 640.704,82.054C631.539,75.864 620.331,70.765 609.279,71.341C597.852,71.936 581.663,79.911 572.14,85.625C564.057,90.475 556.591,97.311 552.142,105.623C547.619,114.074 545.217,125.826 545,136.334Z" style="fill:rgb(41,47,54);stroke:rgb(41,47,54);stroke-width:8.5px;"/>
        </g>
        <g transform="matrix(-1.04127,-0.165076,0.151891,-1.02693,914.695,1458.93)">
            <path d="M495.72,656.299C496.907,659.79 498.911,665.318 498.805,672.153C498.736,676.634 497.846,681.707 495.132,687.11C493.414,690.622 490.737,694.418 487.637,698.151C484.619,701.786 481.302,705.404 477.88,708.544C472.615,713.698 466.827,719.879 463.896,727.922C462.072,732.929 460.871,738.527 462.133,744.84C462.572,747.034 463.297,749.172 464.311,751.489C464.553,752.524 465.58,753.157 466.602,752.9C467.624,752.643 468.258,751.594 468.016,750.558C467.908,748.335 468.141,746.369 468.303,744.412C468.714,739.451 470.087,735.412 472.167,731.877C475.642,725.974 481.07,721.969 485.91,718.623C491.032,714.815 496.164,710.294 500.475,705.612C503.876,701.919 506.671,698.06 508.732,694.479C513.13,686.679 514.818,679.229 515.2,672.598C515.736,663.283 513.438,655.602 511.992,650.78C510.539,646.235 505.714,643.782 501.223,645.305C496.733,646.828 494.267,651.754 495.72,656.299Z" style="fill:rgb(41,47,54);"/>
        </g>
        <g transform="matrix(1.42514,-0.339089,-0.197406,-0.942724,17.3713,1508.38)">
            <path d="M505.367,657.771C506.067,660.519 507.298,664.904 506.376,673.363C505.891,677.823 504.768,683.723 502.295,691.541C501.382,694.363 499.775,698.012 497.922,702.1C496.177,705.949 494.181,710.27 492.872,714.984C491.697,719.217 490.795,723.673 491.721,728.314C494.432,741.135 495.8,751.575 492.819,761.533C490.614,768.901 486.06,776.393 477.027,784.122C475.76,785.256 474.154,784.637 473.443,782.741C472.731,780.845 473.182,778.384 474.448,777.25C481.73,770.435 485.708,764.485 487.219,758.23C489.131,750.315 486.781,742.583 483.964,733.138C481.634,725.652 481.946,717.772 483.388,710.236C485.381,699.825 490.204,690.403 491.763,684.583C493.078,679.942 493.829,676.226 494.232,673.229C494.847,668.663 494.308,666.517 493.95,665.25C492.678,660.513 494.203,654.991 497.354,652.927C500.505,650.863 504.095,653.034 505.367,657.771Z" style="fill:rgb(41,47,54);"/>
        </g>
        <g transform="matrix(0.270052,-0.722764,0.666794,0.27918,245.36,628.59)">
            <path d="M800.406,78.403C792.073,72.403 799.228,26.848 810.561,21.736C821.895,16.625 859.406,43.292 856.406,54.403C853.406,65.514 808.739,84.403 800.406,78.403Z" style="fill:rgb(41,47,54);stroke:rgb(41,47,54);stroke-width:4.45px;"/>
        </g>
        <g transform="matrix(0.96124,0,0,1,21.8736,0)">
            <path d="M410.783,368.987C423.679,384.924 449.47,416.799 475.062,420.172C500.655,423.544 564.339,389.223 564.339,389.223C564.339,389.223 544.896,367.003 541.722,353.512C538.548,340.021 545.293,308.279 545.293,308.279C545.293,308.279 508.035,320.777 497.679,321.372C491.899,321.705 486.07,315.135 483.155,311.85" style="fill:rgb(242,242,242);"/>
            <path d="M409.642,369.84C412.833,374.327 416.694,380.101 421.56,385.995C427.683,393.412 435.266,400.986 443.246,407.483C453.118,415.521 463.926,421.627 474.648,423.074C484.117,424.346 498.654,420.808 513.399,415.521C522.609,412.219 531.934,408.306 540.079,404.545C554.799,397.747 565.723,391.596 565.723,391.596C566.459,391.2 566.973,390.508 567.124,389.71C567.275,388.913 567.048,388.092 566.505,387.471C566.505,387.471 557.796,377.884 551.181,367.473C547.988,362.449 545.318,357.223 544.343,352.942C543.369,348.534 543.591,342.115 544.201,335.564C545.419,322.482 548.394,308.888 548.394,308.888C548.622,307.815 548.234,306.708 547.376,305.988C546.519,305.267 545.325,305.045 544.25,305.406C544.25,305.406 529.666,310.697 516.298,314.844C508.587,317.235 501.309,319.274 497.568,319.588C495.644,319.747 493.701,318.953 491.889,317.81C488.741,315.824 485.984,312.817 484.255,310.947C483.737,310.364 482.824,310.294 482.216,310.792C481.609,311.29 481.536,312.168 482.054,312.752C483.832,314.841 486.703,318.16 489.992,320.452C492.428,322.15 495.111,323.244 497.79,323.157C501.717,323.035 509.456,321.362 517.651,319.274C526.41,317.042 535.69,314.345 541.247,312.689C540.316,317.961 538.946,326.649 538.345,335.12C537.837,342.285 537.906,349.297 539.101,354.082C540.244,358.788 543.296,364.486 546.799,370.037C551.487,377.468 557.031,384.62 560.013,388.334C555.804,390.438 547.447,394.536 537.375,399.056C529.336,402.665 520.222,406.587 511.19,409.855C497.579,414.779 484.233,418.401 475.476,417.27C465.753,416.019 456.046,410.342 447.019,403.154C439.212,396.937 432.113,389.407 425.676,382.627C420.449,377.123 415.628,372.172 411.925,368.133C411.435,367.527 410.525,367.418 409.895,367.889C409.265,368.36 409.151,369.234 409.642,369.84Z" style="fill:rgb(41,47,54);"/>
        </g>
        <path d="M546.483,305.898C546.483,305.898 563.744,331.094 566.719,345.18C569.695,359.265 564.339,390.413 564.339,390.413C564.339,390.413 544.698,365.217 541.722,351.131C538.746,337.045 546.483,305.898 546.483,305.898Z" style="fill:rgb(41,47,54);stroke:rgb(41,47,54);stroke-width:3.5px;"/>
        <path d="M547.674,323.753C547.674,323.753 597.272,307.683 613.143,299.946C624.342,294.486 635.732,287.519 642.902,277.329C654.21,261.26 672.264,221.581 680.993,203.528C686.414,192.316 690.516,174.761 695.277,169.007C698.313,165.339 708.959,164.284 709.562,169.007C710.752,178.332 701.626,215.828 702.419,224.954C702.765,228.927 714.562,219.783 714.323,223.764C713.728,233.683 705.197,271.775 698.848,284.472C694.763,292.642 683.167,294.001 676.232,299.946C669.288,305.898 665.15,315.451 657.186,320.182C637.149,332.086 556.006,371.367 556.006,371.367C556.006,371.367 547.872,356.686 546.483,348.751C545.095,340.815 547.674,323.753 547.674,323.753Z" style="fill:rgb(209,215,219);stroke:rgb(41,47,54);stroke-width:7.99px;"/>
        <path d="M664.328,367.796C672.066,362.44 687.342,358.273 696.468,359.464C705.526,360.645 716.704,367.399 719.084,374.938C721.465,382.477 716.505,397.753 710.752,404.697C704.999,411.641 691.31,410.252 684.564,416.601C677.819,422.949 676.246,434.834 670.28,442.788C661.948,453.898 640.521,484.252 634.569,483.26C628.618,482.268 631.993,452.095 634.569,436.837C637.149,421.56 645.084,403.11 650.044,391.603C653.707,383.105 656.719,373.064 664.328,367.796Z" style="fill:rgb(209,215,219);stroke:rgb(41,47,54);stroke-width:6.67px;"/>
    </g>
</svg>
