<?xml version="1.0" encoding="UTF-8" standalone="no"?>
<!DOCTYPE svg PUBLIC "-//W3C//DTD SVG 1.1//EN" "http://www.w3.org/Graphics/SVG/1.1/DTD/svg11.dtd">
<svg width="100%" height="100%" viewBox="0 0 1024 1280" version="1.1" xmlns="http://www.w3.org/2000/svg" xmlns:xlink="http://www.w3.org/1999/xlink" xml:space="preserve" xmlns:serif="http://www.serif.com/" style="fill-rule:evenodd;clip-rule:evenodd;stroke-linecap:round;stroke-linejoin:round;stroke-miterlimit:1.5;">
    <g id="Ebene2" transform="matrix(-1.06581,0,0,1.06581,934.303,-35.0406)">
        <path d="M476.253,880.641C478.832,902.861 516.725,991.542 522.676,1019.91C524.918,1030.6 521.324,1045.25 511.963,1050.86C500.06,1058 465.54,1059.39 451.255,1062.77C442.707,1064.78 429.432,1067.13 426.258,1071.1C423.084,1075.07 428.302,1082.66 432.21,1086.57C436.574,1090.94 444.967,1095.76 452.446,1097.29C464.151,1099.67 486.371,1104.23 502.44,1100.86C518.51,1097.48 535.969,1084.19 548.864,1077.05C559.461,1071.18 576.682,1069.7 579.813,1058C583.583,1043.92 571.798,1013.62 571.481,992.534C571.02,961.906 540.532,904.25 527.438,881.832C520.388,869.762 501.448,858.223 492.918,858.025C484.387,857.826 475.021,870.029 476.253,880.641Z" style="fill:rgb(209,215,219);stroke:rgb(41,47,54);stroke-width:12.19px;"/>
        <path d="M515.534,548.533C515.534,548.533 478.175,683.006 467.92,724.705C461.925,749.086 455.93,780.776 454.008,798.73C452.809,809.928 454.604,821.312 456.389,832.432C458.707,846.877 467.92,885.403 467.92,885.403C467.92,885.403 495.894,898.298 508.392,900.877C519.661,903.203 542.912,900.877 542.912,900.877C542.912,900.877 543.111,770.534 558.387,725.896C571.349,688.018 619.095,663.005 634.569,633.048C648.105,606.845 651.234,546.153 651.234,546.153C651.234,546.153 600.049,554.088 577.433,554.485C556.708,554.849 515.534,548.533 515.534,548.533Z" style="fill:rgb(242,242,242);"/>
        <path d="M513.725,548.031C513.98,547.115 514.879,546.533 515.819,546.678C515.819,546.678 534.36,549.355 552.8,550.902C561.743,551.653 570.659,552.125 577.388,551.923C584.959,551.692 595.746,550.561 606.718,549.173C628.358,546.435 650.695,542.675 650.695,542.675C651.742,542.513 652.806,542.831 653.592,543.54C654.378,544.25 654.803,545.276 654.749,546.334C654.749,546.334 653.81,573.784 648.91,599.884C646.428,613.109 642.825,625.952 638.177,634.912C627.033,656.172 599.832,674.947 579.999,697.49C572.048,706.527 565.329,716.196 561.576,726.987C556.309,742.495 552.904,768.454 550.745,795.606C546.724,846.195 547.013,900.884 547.013,900.884C547.01,902.988 545.415,904.748 543.321,904.958C543.321,904.958 532.662,906.038 522.173,906.028C516.813,906.022 511.498,905.717 507.562,904.902C503.126,903.984 496.809,901.832 490.422,899.373C478.453,894.765 466.209,889.114 466.209,889.114C465.072,888.589 464.237,887.572 463.946,886.353C463.946,886.353 460.033,869.986 456.676,854.564C454.861,846.229 453.213,838.167 452.403,833.072C451.324,826.286 450.247,819.403 449.819,812.524C449.523,807.773 449.533,803.023 450.045,798.306C451.092,788.66 453.307,775.084 456.072,760.786C458.489,748.285 461.325,735.23 464.159,723.78C469.429,702.551 481.712,657.268 492.634,617.949C493.966,613.153 495.239,608.435 496.571,603.887C505.779,572.459 513.725,548.031 513.725,548.031ZM516.966,550.661C515.622,556.423 510.802,576.892 504.277,602.218C493.303,644.816 477.613,701.146 471.681,725.63C468.912,736.967 466.145,749.891 463.79,762.267C461.115,776.325 458.972,789.672 457.971,799.154C457.521,803.422 457.534,807.718 457.815,812.014C458.248,818.637 459.316,825.261 460.374,831.792C461.183,836.78 462.833,844.667 464.626,852.825C467.3,864.988 470.303,877.747 471.432,882.51C475.212,884.212 484.367,888.266 493.364,891.719C499.278,893.988 505.116,896.008 509.223,896.853C512.714,897.571 517.43,897.788 522.182,897.794C528.55,897.802 534.983,897.402 538.858,897.106C539.049,883.872 539.956,837.968 543.703,795.019C546.127,767.228 549.73,740.662 555.198,724.804C559.121,713.153 566.192,702.646 574.64,692.828C593.779,670.587 620.322,652.09 630.962,631.185C635.285,622.78 638.37,610.685 640.813,598.324C644.645,578.93 646.64,558.8 647.379,550.237C639.759,551.271 623.376,553.42 607.382,555.026C596.186,556.151 585.184,557.011 577.478,557.047C570.595,557.082 561.496,556.357 552.373,555.384C537.206,553.766 521.979,551.447 516.966,550.661L516.966,550.661Z" style="fill:rgb(41,47,54);"/>
        <path d="M517.915,609.241C515.463,644.945 510.72,737.664 506.38,797.674C505.189,814.149 504.785,840.749 505.64,854.082C509.122,908.413 541.722,980.631 541.722,980.631C541.722,980.631 570.363,995.91 585.765,994.915C603.992,993.737 651.086,973.563 651.086,973.563C651.086,973.563 615.701,878.398 617.905,829.01C620.446,772.034 658.798,674.091 666.337,631.709C669.669,612.977 665.655,590.171 663.138,574.721C661.12,562.337 651.234,539.01 651.234,539.01C651.234,539.01 591.915,551.311 569.1,553.295C550.899,554.877 514.344,550.914 514.344,550.914C514.344,550.914 519.249,589.808 517.915,609.241Z" style="fill:rgb(242,242,242);"/>
        <path d="M515.454,609.072C515.828,602.773 515.525,594.41 514.925,586.019C513.688,568.717 511.227,551.307 511.227,551.307C511.107,550.354 511.429,549.397 512.103,548.712C512.777,548.026 513.727,547.687 514.683,547.79C514.683,547.79 531.078,549.325 547.32,549.79C555.141,550.014 562.922,549.989 568.762,549.401C576.599,548.61 588.777,546.513 601.339,544.133C625.104,539.63 650.212,534.078 650.212,534.078C652.565,533.59 654.935,534.832 655.872,537.045C655.872,537.045 660.555,547.681 664.266,558.496C666.152,563.996 667.758,569.549 668.492,573.849C670.041,583.5 672.171,595.972 672.756,608.573C673.136,616.771 672.858,625.018 671.457,632.62C666.001,662.263 645.08,718.923 632.374,769.962C626.98,791.628 623.193,812.277 622.509,829.215C621.89,845.215 625.389,866.087 630.259,886.869C640.242,929.477 656.16,971.676 656.16,971.676C657.167,974.383 655.872,977.403 653.218,978.54C653.218,978.54 633.247,987.081 614.168,993.421C603.383,997.005 592.857,999.846 586.112,1000.28C580.41,1000.64 573.056,999.101 565.812,996.744C552.338,992.361 539.205,985.348 539.205,985.348C538.163,984.792 537.335,983.907 536.849,982.831C536.849,982.831 520.927,947.416 510.103,907.366C505.34,889.746 501.569,871.234 500.518,854.41C500.08,847.389 499.986,836.743 500.176,825.79C500.35,815.683 500.763,805.314 501.355,797.311C503.819,764.542 505.926,721.976 508.712,684.35C511.027,653.07 513.859,625.244 515.454,609.072L515.454,609.072ZM520.376,609.41C519.746,625.635 519.416,653.58 518.123,684.893C516.564,722.637 513.685,765.213 511.406,798.038C510.852,805.882 510.483,816.045 510.345,825.949C510.196,836.591 510.312,846.934 510.761,853.753C511.824,869.923 515.539,887.702 520.172,904.627C529.505,938.714 542.6,969.355 545.845,976.743C549.575,978.633 559.252,983.343 569.124,986.542C574.952,988.431 580.834,989.851 585.418,989.552C591.52,989.154 601.009,986.446 610.762,983.193C623.847,978.828 637.359,973.403 644.266,970.55C639.899,958.086 628.297,923.701 620.585,889.08C615.741,867.335 612.457,845.494 613.3,828.804C614.152,811.369 618.413,790.188 623.929,767.868C636.482,717.073 656.142,660.35 661.217,630.798C662.394,623.933 662.49,616.498 662.084,609.114C661.415,596.947 659.324,584.909 657.784,575.593C657.187,571.747 655.773,566.785 654.185,561.844C652.065,555.246 649.611,548.695 648.081,544.741C639.902,546.291 620.984,549.813 602.849,552.741C589.957,554.823 577.462,556.602 569.439,557.188C563.318,557.637 555.182,557.463 547.013,557.002C535.405,556.346 523.734,555.139 517.876,554.485C518.5,560.675 519.672,573.223 520.285,585.696C520.709,594.337 520.881,602.941 520.376,609.41L520.376,609.41Z" style="fill:rgb(41,47,54);"/>
        <g transform="matrix(0.999638,-0.0268885,0.0268885,0.999638,-28.9928,15.8346)">
            <path d="M553.626,986.583C553.626,986.583 581.4,1083 582.194,1109.19C582.617,1123.16 570.779,1137.24 558.387,1143.71C544.698,1150.85 510.178,1147.08 500.06,1152.04C493.607,1155.2 492.308,1168.69 497.679,1173.47C504.821,1179.82 526.849,1190.56 542.912,1190.13C565.529,1189.54 614.929,1176.05 633.379,1169.9C641.669,1167.13 651.234,1159.18 653.615,1153.23C655.996,1147.28 651.353,1139.72 647.663,1134.19C643.695,1128.23 630.865,1125.59 629.808,1117.52C627.626,1100.86 634.382,1056.41 634.569,1034.2C634.71,1017.51 630.934,984.265 630.934,984.265C630.934,984.265 597.459,992.148 584.575,992.534C574.074,992.849 553.626,986.583 553.626,986.583Z" style="fill:rgb(209,215,219);stroke:rgb(41,47,54);stroke-width:11.65px;"/>
        </g>
        <g transform="matrix(0.992458,-0.122589,0.122589,0.992458,-32.2985,74.7046)">
            <path d="M575.037,257.477C573.479,268.014 571.851,279.615 568.348,290.173C564.375,302.146 557.578,322.987 551.2,329.313C546.194,334.278 530.413,321.089 530.081,328.132C529.736,335.474 532.785,372.61 549.127,373.365C566.671,374.175 621.342,344.947 635.346,332.995C643.312,326.196 633.233,312.125 633.153,301.653C633.068,290.328 637.528,275.509 634.832,265.043C632.197,254.812 625.768,244.716 616.977,238.855C607.454,232.507 584.685,223.848 577.695,226.952C570.705,230.055 576.531,247.373 575.037,257.477Z" style="fill:rgb(209,215,219);stroke:rgb(41,47,54);stroke-width:8.53px;"/>
        </g>
        <g transform="matrix(-1.04127,-0.165076,0.151891,-1.02693,878.985,1411.32)">
            <path d="M511.992,650.78C513.438,655.602 515.736,663.283 515.2,672.598C514.818,679.229 513.13,686.679 508.732,694.479C506.671,698.06 503.876,701.919 500.475,705.612C496.164,710.294 491.032,714.815 485.91,718.623C481.07,721.969 475.642,725.974 472.167,731.877C470.087,735.412 468.714,739.451 468.303,744.411C468.141,746.369 467.908,748.335 468.016,750.558C468.258,751.594 467.624,752.643 466.602,752.9C465.58,753.157 464.553,752.524 464.311,751.489C463.297,749.172 462.572,747.034 462.133,744.84C460.871,738.527 462.072,732.929 463.896,727.922C466.827,719.879 472.615,713.698 477.88,708.544C481.302,705.404 484.619,701.786 487.637,698.151C490.737,694.418 493.414,690.622 495.132,687.11C497.846,681.707 498.736,676.634 498.805,672.153C498.911,665.318 496.907,659.79 495.72,656.299C494.267,651.754 496.733,646.828 501.223,645.305C505.714,643.782 510.539,646.235 511.992,650.78Z" style="fill:rgb(41,47,54);"/>
        </g>
        <g transform="matrix(-1,0,0,1,991.967,8.92764)">
            <path d="M662.499,309.514C662.499,309.514 682.535,336.864 684.897,350.653C687.232,364.288 676.669,392.248 676.669,392.248C676.669,392.248 658.005,370.384 655.643,356.595C653.281,342.806 662.499,309.514 662.499,309.514Z" style="fill:rgb(41,47,54);stroke:rgb(41,47,54);stroke-width:3.75px;"/>
        </g>
        <g transform="matrix(1.28066,-0.711274,-0.444604,-0.854415,213.408,1591.23)">
            <path d="M493.95,665.25C494.308,666.517 494.85,668.662 494.238,673.231C493.837,676.229 493.091,679.949 491.779,684.593C490.234,690.42 485.431,699.857 483.467,710.276C482.052,717.784 481.753,725.623 484.095,733.057C488.125,746.806 492.346,748.91 496.196,760.768C497.696,765.387 499.037,771.623 500.318,780.786C500.59,782.944 501.97,784.312 503.397,783.839C504.824,783.366 505.761,781.23 505.489,779.072C504.351,768.975 502.93,762.159 501.529,756.941C498.337,745.053 494.593,742.292 491.59,728.396C490.669,723.701 491.589,719.209 492.793,714.944C493.875,711.111 495.442,707.578 496.901,704.29C499.128,699.276 501.202,694.83 502.279,691.531C504.758,683.718 505.883,677.82 506.372,673.362C507.298,664.905 506.066,660.52 505.367,657.771C504.095,653.034 500.505,650.863 497.354,652.927C494.203,654.991 492.678,660.513 493.95,665.25Z" style="fill:rgb(41,47,54);"/>
        </g>
        <g transform="matrix(0.953041,-0.30284,0.30284,0.953041,-25.5571,191.188)">
            <path d="M551.508,136.485C535.438,143.825 531.272,182.512 530.081,203.145C528.951,222.744 533.652,249.172 544.366,260.282C555.079,271.391 579.679,276.55 594.36,269.804C609.041,263.059 627.095,238.26 632.452,219.81C637.808,201.359 639.99,172.989 626.5,159.102C613.009,145.214 567.577,129.144 551.508,136.485Z" style="fill:rgb(209,215,219);stroke:rgb(41,47,54);stroke-width:7.55px;"/>
        </g>
        <g transform="matrix(0.953041,-0.30284,0.30284,0.953041,-25.5571,191.188)">
            <path d="M551.508,136.485C552.896,143.23 583.052,150.174 590.789,159.102C597.723,167.103 592.178,183.504 597.931,190.051C603.685,196.598 620.746,191.241 625.309,198.383C629.872,205.525 620.945,233.102 625.309,232.903C629.674,232.705 647.133,210.882 651.497,197.193C655.862,183.504 656.457,163.665 651.497,150.769C646.537,137.874 633.245,125.177 621.738,119.82C610.232,114.463 594.162,115.852 582.457,118.63C570.868,121.379 550.119,129.74 551.508,136.485Z" style="fill:rgb(41,47,54);stroke:rgb(41,47,54);stroke-width:8.26px;"/>
        </g>
        <g transform="matrix(-0.315239,-0.70423,-0.647795,0.320808,924.384,659.599)">
            <path d="M800.406,78.403C792.073,72.403 799.228,26.848 810.561,21.736C821.895,16.625 859.406,43.292 856.406,54.403C853.406,65.514 808.739,84.403 800.406,78.403Z" style="fill:rgb(41,47,54);stroke:rgb(41,47,54);stroke-width:4.45px;"/>
        </g>
        <g transform="matrix(-1,0,0,1,992.967,8.92764)">
            <path d="M646.93,427.612C646.93,427.612 631.158,412.601 622.23,408.695C614.363,405.253 592.907,405.092 592.907,405.092C592.907,405.092 605.499,419.794 611.783,422.543C620.711,426.449 646.93,427.612 646.93,427.612Z" style="fill:rgb(41,47,54);stroke:rgb(41,47,54);stroke-width:2.68px;"/>
        </g>
        <g transform="matrix(-1,0,0,1,992.967,8.92764)">
            <path d="M627.501,431.874L656.516,382.772L621.922,359.337L590.675,417.367L627.501,431.874Z" style="fill:rgb(209,215,219);stroke:rgb(41,47,54);stroke-width:4.4px;"/>
        </g>
        <g transform="matrix(-1,0,0,1,992.967,8.92764)">
            <path d="M464.572,427.411C464.572,427.411 506.606,474.467 522.602,488.788C533.825,498.837 547.711,509.991 560.544,513.339C573.224,516.647 590.276,518.081 599.602,508.875C613.924,494.74 646.473,428.527 646.473,428.527C646.473,428.527 621.178,427.039 611.878,422.947C603.197,419.127 590.675,403.976 590.675,403.976C590.675,403.976 578.714,428.984 569.472,425.179C559.986,421.273 533.761,380.541 533.761,380.541L444.485,354.874L464.572,427.411Z" style="fill:rgb(242,242,242);"/>
            <path d="M463.323,427.756C463.376,427.948 463.473,428.125 463.606,428.274C463.606,428.274 476.698,444.217 491.221,460.317C502.156,472.438 513.976,484.551 520.85,490.744C527.453,496.675 534.969,502.98 542.657,507.903C548.389,511.573 554.226,514.473 559.862,515.954C567.61,517.989 576.927,519.323 585.274,518.178C591.539,517.318 597.262,515.064 601.548,510.847C605.857,506.607 611.813,497.811 618.023,487.453C632.688,462.988 649.002,429.77 649.002,429.77C649.418,428.923 649.383,427.923 648.908,427.108C648.432,426.292 647.58,425.769 646.638,425.713C646.638,425.713 635.909,425.149 625.922,423.637C620.859,422.87 615.987,421.883 612.929,420.559C610.244,419.396 607.177,417.049 604.253,414.467C598.06,408.999 592.553,402.424 592.553,402.424C592.023,401.783 591.203,401.456 590.378,401.557C589.552,401.659 588.836,402.174 588.477,402.924C588.477,402.924 584.079,412.291 578.587,418.49C575.87,421.557 573.091,424.183 570.342,423.064C566.893,421.628 561.242,414.914 555.452,407.323C545.723,394.566 535.96,379.125 535.96,379.125C535.617,378.593 535.092,378.203 534.484,378.028C534.484,378.028 512.252,371.307 489.91,364.968C467.566,358.628 445.118,352.672 445.118,352.672C444.321,352.443 443.462,352.662 442.873,353.246C442.283,353.829 442.055,354.686 442.277,355.485L463.323,427.756ZM465.738,426.752L447.747,358.276C455.074,360.527 471.672,365.593 488.335,370.446C507.974,376.166 527.696,381.59 532.121,382.802C534.691,386.682 545.67,403.079 555.317,414.771C560.532,421.092 565.471,426.018 568.601,427.293C572.093,428.747 576.007,427.282 579.638,424.044C584.415,419.783 588.828,412.497 591.154,408.288C593.398,410.842 596.997,414.761 600.864,418.259C604.199,421.275 607.748,423.959 610.827,425.335C614.179,426.833 619.517,428.043 625.084,428.954C631.372,429.983 637.953,430.649 642.088,431.009C638.05,439.066 628.008,458.818 617.87,476.562C610.348,489.725 602.82,501.795 597.656,506.904C594.215,510.312 589.563,512.035 584.519,512.744C576.873,513.819 568.334,512.566 561.226,510.725C556.083,509.392 550.768,506.728 545.53,503.399C538.065,498.654 530.77,492.558 524.353,486.832C521.198,484.021 517.033,479.921 512.356,475.182C505.124,467.854 496.794,458.901 489.044,450.815C477.407,438.673 467.271,428.317 465.738,426.752L465.738,426.752Z" style="fill:rgb(41,47,54);"/>
        </g>
        <g transform="matrix(-1,0,0,1,992.967,8.92764)">
            <path d="M359.672,287.916C359.672,287.916 337.425,344.188 332.889,373.845C328.053,405.464 330.843,449.172 330.657,477.629C330.511,499.95 331.773,544.586 331.773,544.586C331.773,544.586 389.803,564.859 414.354,565.789C436.533,566.629 479.079,550.166 479.079,550.166C479.079,550.166 483.915,490.648 483.543,463.121C483.19,436.989 479.079,400.628 479.079,400.628C479.079,400.628 519.201,402.231 541.573,402.86C574.679,403.79 675.487,390.584 675.487,390.584C675.487,390.584 655.586,366.963 653.168,353.758C650.75,340.552 660.98,311.351 660.98,311.351C660.98,311.351 586.397,325.301 551.616,323.627C517.723,321.996 484.287,307.26 452.296,301.308C421.627,295.602 359.672,287.916 359.672,287.916Z" style="fill:rgb(242,242,242);"/>
            <path d="M359.999,285.279C358.797,285.13 357.646,285.813 357.201,286.939C357.201,286.939 346.185,312.037 337.493,337.608C333.173,350.314 329.528,363.149 327.797,373.066C325.808,385.765 325.004,400.387 324.775,415.217C324.429,437.554 325.374,460.368 325.224,477.593L326.225,544.743C326.29,547.044 327.769,549.066 329.943,549.826C329.943,549.826 355.083,558.656 379.381,565.018C392.494,568.451 405.377,571.136 414.138,571.484C421.909,571.791 432.054,570.156 442.137,567.746C461.757,563.056 481.165,555.556 481.165,555.556C483.232,554.755 484.66,552.843 484.84,550.634C484.84,550.634 487.009,524.131 488.353,498.272C489.031,485.219 489.496,472.33 489.376,463.042C489.241,455.099 488.774,446.223 488.155,437.692C487.241,425.099 486.031,413.261 485.273,406.324C485.273,406.324 541.429,407.983 541.429,407.983C550.882,408.189 565.764,407.181 582.281,405.745C623.949,402.123 676.127,395.464 676.127,395.464C677.911,395.231 679.425,394.042 680.076,392.365C680.727,390.688 680.411,388.789 679.251,387.413C679.251,387.413 670.916,377.371 664.595,366.852C661.604,361.876 659.019,356.821 658.316,352.815C657.613,348.814 658.347,343.184 659.458,337.485C661.804,325.454 666.202,313.181 666.202,313.181C666.855,311.317 666.465,309.246 665.179,307.747C663.892,306.248 661.904,305.549 659.963,305.912C659.963,305.912 627.079,311.649 594.94,315.361C579.012,317.2 563.281,318.683 551.875,318.255C542.034,317.916 532.22,316.436 522.46,314.396C498.837,309.458 475.537,301.318 453.01,297.471C442.886,295.745 429.385,293.872 415.808,292.093C388.055,288.455 359.999,285.279 359.999,285.279ZM361.449,290.84C368.44,291.799 391.764,295.036 414.85,298.703C428.267,300.834 441.594,303.13 451.583,305.145C473.919,309.644 496.889,318.485 520.292,324.078C530.574,326.535 540.938,328.355 551.358,328.999C563.22,329.696 579.654,328.796 596.247,326.979C618.436,324.548 640.912,320.7 652.983,318.494C651.614,323.281 650.026,329.426 648.928,335.507C647.638,342.649 647.071,349.712 648.021,354.7C648.97,359.679 652.063,366.029 655.877,372.176C659.234,377.584 663.098,382.864 666.17,386.848C651.979,388.683 622.6,392.341 594.822,394.908C573.643,396.866 553.404,398.134 541.717,397.736L479.299,395.121C477.693,395.057 476.138,395.697 475.043,396.875C473.948,398.052 473.422,399.649 473.603,401.247C473.603,401.247 475.088,415.348 476.283,432.26C476.997,442.376 477.618,453.501 477.71,463.2C477.839,472.288 477.392,484.902 476.744,497.676C475.733,517.616 474.228,537.942 473.605,546.042C467.38,548.319 453.471,553.184 439.451,556.573C430.486,558.741 421.483,560.344 414.57,560.095C406.415,559.8 394.433,557.255 382.219,554.103C363.85,549.361 344.988,543.187 337.251,540.587C337.25,540.587 336.09,477.664 336.09,477.664C336.166,460.455 335.157,437.668 335.375,415.351C335.515,401.028 336.149,386.901 337.982,374.624C338.727,369.571 340.093,363.745 341.584,357.508C343.57,349.207 345.799,340.21 348.303,331.592C353.651,313.18 359.479,296.407 361.449,290.84L361.449,290.84Z" style="fill:rgb(41,47,54);"/>
        </g>
        <g transform="matrix(0.629873,-0.0903484,0.116313,0.81089,202.435,153.731)">
            <path d="M395.211,517.268C389.015,514.549 385.786,527.955 383.987,536.859C382.498,544.222 378.404,553.316 382.853,556.709C399.399,569.327 453.581,588.446 491.413,594.562C531.171,600.99 601.64,602.181 621.4,595.277C627.784,593.046 635.678,586.979 632.481,577.869C629.633,569.756 632.61,560.173 626.585,558.404C607.54,552.809 545.159,561.423 506.597,554.567C468.046,547.713 413.662,525.362 395.211,517.268Z" style="fill:rgb(41,47,54);stroke:rgb(41,47,54);stroke-width:10.87px;"/>
        </g>
        <g transform="matrix(-1,0,0,1,992.967,8.92764)">
            <path d="M658.748,320.279C658.748,320.279 707.292,324.557 730.169,324.743C752.144,324.921 780.573,324.557 796.01,321.395C806.136,319.321 814.61,309.305 822.793,305.772C829.834,302.731 837.859,297.774 845.112,300.192C852.366,302.61 862.782,312.467 866.316,320.279C869.849,328.091 871.458,339.764 866.316,347.062C860.55,355.246 842.323,367.893 831.721,369.381C821.172,370.862 813.297,357.134 802.706,355.99C788.943,354.502 766.438,357.663 749.14,360.453C732.128,363.197 713.058,370.125 698.922,372.729C687.529,374.828 664.328,376.077 664.328,376.077C664.328,376.077 651.864,360.801 650.936,351.526C650.006,342.226 658.748,320.279 658.748,320.279Z" style="fill:rgb(209,215,219);stroke:rgb(41,47,54);stroke-width:8.24px;"/>
        </g>
    </g>
</svg>
