<?xml version="1.0" encoding="UTF-8" standalone="no"?>
<!DOCTYPE svg PUBLIC "-//W3C//DTD SVG 1.1//EN" "http://www.w3.org/Graphics/SVG/1.1/DTD/svg11.dtd">
<svg width="100%" height="100%" viewBox="0 0 1024 1280" version="1.1" xmlns="http://www.w3.org/2000/svg" xmlns:xlink="http://www.w3.org/1999/xlink" xml:space="preserve" xmlns:serif="http://www.serif.com/" style="fill-rule:evenodd;clip-rule:evenodd;stroke-linecap:round;stroke-linejoin:round;stroke-miterlimit:1.5;">
    <g id="Ebene2" transform="matrix(1.07389,0,0,1.07389,24.372,-48.1363)">
        <path d="M476.253,880.641C478.832,902.861 516.725,991.542 522.676,1019.91C524.918,1030.6 521.324,1045.25 511.963,1050.86C500.06,1058 465.54,1059.39 451.255,1062.77C442.707,1064.78 429.432,1067.13 426.258,1071.1C423.084,1075.07 428.302,1082.66 432.21,1086.57C436.574,1090.94 444.967,1095.76 452.446,1097.29C464.151,1099.67 486.371,1104.23 502.44,1100.86C518.51,1097.48 535.969,1084.19 548.864,1077.05C559.461,1071.18 576.682,1069.7 579.813,1058C583.583,1043.92 571.798,1013.62 571.481,992.534C571.02,961.906 540.532,904.25 527.438,881.832C520.388,869.762 501.448,858.223 492.918,858.025C484.387,857.826 475.021,870.029 476.253,880.641Z" style="fill:rgb(209,215,219);stroke:rgb(41,47,54);stroke-width:12.19px;"/>
        <path d="M515.534,548.533C515.534,548.533 477.245,685.424 467.92,724.705C463.294,744.196 460.58,764.78 459.588,784.223C458.616,803.26 460.58,824.496 461.968,841.36C463.184,856.124 467.92,885.403 467.92,885.403C467.92,885.403 495.894,898.298 508.392,900.877C519.661,903.203 542.912,900.877 542.912,900.877C542.912,900.877 543.111,770.534 558.387,725.896C571.349,688.018 619.095,663.005 634.569,633.048C648.105,606.845 651.234,546.153 651.234,546.153C651.234,546.153 600.049,554.088 577.433,554.485C556.708,554.849 515.534,548.533 515.534,548.533Z" style="fill:rgb(242,242,242);"/>
        <path d="M515.819,546.678C514.88,546.534 513.982,547.113 513.726,548.028C513.726,548.028 505.718,572.486 496.492,603.862C495.154,608.41 493.879,613.128 492.543,617.921C481.434,657.788 468.983,703.651 464.151,723.811C461.811,733.605 459.947,743.674 458.538,753.738C457.11,763.932 456.149,774.123 455.629,784.021C455.233,791.561 455.288,799.441 455.587,807.266C456.049,819.377 457.096,831.352 457.932,841.692C458.33,846.591 459.105,853.07 459.974,859.565C461.741,872.775 463.887,886.055 463.887,886.055C464.104,887.398 464.975,888.544 466.21,889.113C466.21,889.113 478.453,894.765 490.422,899.373C496.809,901.832 503.126,903.984 507.562,904.902C511.499,905.716 516.813,906.021 522.173,906.027C532.662,906.039 543.321,904.963 543.321,904.963C545.417,904.753 547.015,902.99 547.018,900.884C547.018,900.884 546.73,846.195 550.749,795.606C552.906,768.454 556.308,742.494 561.573,726.986C565.326,716.195 572.045,706.525 579.996,697.488C599.83,674.945 627.031,656.171 638.176,634.911C642.825,625.952 646.429,613.11 648.913,599.885C653.814,573.785 654.752,546.334 654.752,546.334C654.806,545.275 654.381,544.248 653.594,543.538C652.807,542.828 651.742,542.51 650.695,542.672C650.695,542.672 628.358,546.432 606.718,549.171C595.746,550.559 584.959,551.691 577.388,551.921C570.659,552.124 561.743,551.652 552.8,550.902C534.36,549.354 515.819,546.678 515.819,546.678ZM516.963,550.661C521.973,551.446 537.203,553.766 552.373,555.384C561.496,556.358 570.595,557.083 577.478,557.049C585.184,557.013 596.187,556.153 607.383,555.028C623.373,553.422 639.754,551.274 647.375,550.24C646.636,558.806 644.641,578.932 640.81,598.324C638.368,610.685 635.285,622.78 630.963,631.185C620.324,652.091 593.782,670.589 574.643,692.83C566.195,702.647 559.123,713.154 555.201,724.805C549.731,740.662 546.124,767.227 543.699,795.018C539.95,837.964 539.044,883.864 538.853,897.103C534.978,897.4 528.548,897.801 522.182,897.794C517.43,897.789 512.714,897.572 509.223,896.853C505.116,896.008 499.278,893.989 493.364,891.719C484.504,888.319 475.491,884.336 471.609,882.59C470.934,878.326 469.387,868.381 468.044,858.477C467.184,852.136 466.404,845.811 466.005,841.027C465.146,830.792 464.071,818.938 463.577,806.949C463.265,799.368 463.185,791.732 463.546,784.425C464.026,774.747 464.936,764.783 466.301,754.814C467.647,744.991 469.434,735.162 471.689,725.6C477.111,702.409 493.046,645.324 504.206,602.203C510.751,576.909 515.61,556.421 516.963,550.661Z" style="fill:rgb(41,47,54);"/>
        <path d="M517.915,609.241C515.534,658.839 496.092,786.604 500.06,848.502C503.014,894.588 541.722,980.631 541.722,980.631C541.722,980.631 570.355,995.771 585.765,994.915C603.62,993.923 648.854,974.679 648.854,974.679C648.854,974.679 616.443,898.228 617.905,858.025C619.888,803.467 653.218,694.55 660.757,647.332C664.575,623.418 664.725,592.775 663.138,574.721C662.039,562.222 651.234,539.01 651.234,539.01C651.234,539.01 591.915,551.311 569.1,553.295C550.899,554.877 514.344,550.914 514.344,550.914C514.344,550.914 518.849,589.785 517.915,609.241Z" style="fill:rgb(242,242,242);"/>
        <path d="M515.451,609.123C514.127,625.865 510.173,651.411 506.527,680.448C503.676,703.152 501.183,727.978 498.939,752.169C495.54,788.791 493.401,824.045 494.947,848.83C495.919,864.393 500.834,884.427 507.031,904.269C519.415,943.919 536.845,982.825 536.845,982.825C537.333,983.911 538.17,984.802 539.222,985.359C539.222,985.359 552.353,992.309 565.825,996.689C573.046,999.037 580.377,1000.6 586.063,1000.28C592.663,999.919 602.832,997.256 613.23,993.867C631.7,987.847 650.973,979.661 650.973,979.661C653.722,978.492 655.004,975.316 653.838,972.566C653.838,972.566 639.351,938.823 630.094,904.566C625.593,887.907 622.282,871.136 622.678,858.198C623.202,841.285 626.643,819.048 631.6,795.104C642.594,742.002 660.465,680.57 665.792,648.136C667.696,636.682 668.808,623.705 669.243,611.256C669.732,597.277 669.372,583.968 668.542,574.246C668.116,569.78 666.597,564.042 664.657,558.384C660.926,547.505 655.803,536.884 655.803,536.884C654.816,534.764 652.501,533.601 650.211,534.076C650.211,534.076 625.104,539.628 601.339,544.131C588.776,546.511 576.598,548.609 568.761,549.4C562.922,549.988 555.141,550.012 547.32,549.789C531.078,549.325 514.683,547.79 514.683,547.79C513.733,547.687 512.787,548.022 512.114,548.7C511.441,549.379 511.113,550.326 511.223,551.276C511.223,551.276 513.508,568.703 514.748,586.025C515.35,594.43 515.695,602.808 515.451,609.123ZM520.379,609.359C520.749,602.899 520.532,594.318 520.108,585.702C519.494,573.214 518.411,560.655 517.841,554.482C523.687,555.135 535.381,556.346 547.013,557.003C555.182,557.464 563.318,557.638 569.439,557.19C577.463,556.604 589.958,554.824 602.85,552.743C621.076,549.801 640.094,546.257 648.205,544.719C649.831,548.602 652.449,555.131 654.571,561.734C656.12,566.556 657.429,571.409 657.734,575.196C658.582,584.58 658.932,597.428 658.581,610.931C658.269,622.937 657.416,635.463 655.723,646.529C650.701,678.901 633.934,740.388 622.928,793.305C617.826,817.832 613.855,840.53 613.131,857.851C612.553,871.573 615.729,889.427 620.316,907.152C627.306,934.166 637.505,960.89 641.82,971.737C635.051,974.502 622.282,979.561 609.883,983.618C600.527,986.68 591.407,989.215 585.467,989.548C580.871,989.806 574.976,988.375 569.137,986.484C559.26,983.286 549.578,978.611 545.839,976.731C542.372,968.898 527.773,935.308 516.981,901.144C510.992,882.185 506.151,863.056 505.173,848.174C503.928,829.245 504.935,804.093 506.882,776.915C509.24,743.996 513.42,708.168 516.252,676.668C518.708,649.349 520.112,625.31 520.379,609.359Z" style="fill:rgb(41,47,54);"/>
        <g transform="matrix(0.999638,-0.0268885,0.0268885,0.999638,-28.9928,15.8346)">
            <path d="M553.626,986.583C553.626,986.583 581.4,1083 582.194,1109.19C582.617,1123.16 570.779,1137.24 558.387,1143.71C544.698,1150.85 510.178,1147.08 500.06,1152.04C493.607,1155.2 492.308,1168.69 497.679,1173.47C504.821,1179.82 526.849,1190.56 542.912,1190.13C565.529,1189.54 614.929,1176.05 633.379,1169.9C641.669,1167.13 651.234,1159.18 653.615,1153.23C655.996,1147.28 651.353,1139.72 647.663,1134.19C643.695,1128.23 630.865,1125.59 629.808,1117.52C627.626,1100.86 634.382,1056.41 634.569,1034.2C634.71,1017.51 630.934,984.265 630.934,984.265C630.934,984.265 597.459,992.148 584.575,992.534C574.074,992.849 553.626,986.583 553.626,986.583Z" style="fill:rgb(209,215,219);stroke:rgb(41,47,54);stroke-width:11.65px;"/>
        </g>
        <path d="M569.363,257.901C567.381,266.549 568.768,278.137 564.602,284.089C560.435,290.04 548.964,287.744 544.366,293.611C538.612,300.952 529.339,315.701 530.081,328.132C530.875,341.424 532.788,374.19 549.127,373.365C568.768,372.373 632.452,338.448 647.926,322.18C658.679,310.876 644.157,285.279 641.974,275.756C641.016,271.573 637.239,268.596 634.832,265.043C630.666,258.893 625.768,244.716 616.977,238.855C607.454,232.507 585.631,223.777 577.695,226.952C569.76,230.126 571.545,248.378 569.363,257.901Z" style="fill:rgb(209,215,219);stroke:rgb(41,47,54);stroke-width:8.53px;"/>
        <path d="M381.025,279.514C381.025,279.514 385.786,309.868 382.215,321.176C378.742,332.175 359.598,347.364 359.598,347.364C359.598,347.364 397.229,367.433 417.925,369.98C443.716,373.155 497.084,354.506 514.344,366.409C531.604,378.313 522.285,416.304 521.486,441.402C520.494,472.549 508.392,553.295 508.392,553.295C508.392,553.295 552.113,555.092 573.862,553.295C597.867,551.311 652.425,541.391 652.425,541.391C652.425,541.391 672.859,474.533 679.803,441.402C686.628,408.834 693.69,366.806 694.087,342.602C694.349,326.629 691.673,309.03 682.184,296.179C672.661,283.283 636.95,265.23 636.95,265.23C636.95,265.23 603.62,316.018 590.526,330.699C581.807,340.475 558.387,353.316 558.387,353.316C558.387,353.316 553.03,325.739 551.245,314.034C549.679,303.768 547.674,283.085 547.674,283.085C547.674,283.085 509.186,287.251 491.727,290.227C475.309,293.026 459.501,302.544 442.923,300.94C424.472,299.155 381.025,279.514 381.025,279.514Z" style="fill:rgb(242,242,242);"/>
        <path d="M382.041,277.266C381.215,276.893 380.251,277.002 379.53,277.551C378.809,278.101 378.447,279.001 378.588,279.896C378.588,279.896 380.268,292.669 380.36,304.635C380.406,310.661 380.058,316.465 378.797,320.097C377.661,323.351 374.85,326.906 371.736,330.288C365.065,337.532 356.692,343.701 356.692,343.701C355.458,344.681 354.8,346.216 354.942,347.786C355.084,349.355 356.007,350.748 357.398,351.489C357.398,351.489 374.475,360.728 392.079,367.604C401.046,371.107 410.16,373.96 417.325,374.859C436.784,377.289 471.858,367.514 495.539,367.448C502.181,367.43 507.807,368.07 511.457,370.596C516.387,374.006 518.294,380.194 519.123,387.459C520.98,403.734 516.822,425.162 516.287,441.236C515.93,451.933 514.231,468.537 512.178,485.664C508.285,518.151 503.096,552.501 503.096,552.501C502.871,554.005 503.295,555.533 504.264,556.705C505.232,557.877 506.653,558.583 508.172,558.645C508.172,558.645 528.023,559.472 547.684,559.469C557.39,559.468 567.05,559.262 574.305,558.666C582.514,557.992 594.258,556.423 606.203,554.598C629.402,551.053 653.373,546.607 653.373,546.607C655.324,546.252 656.914,544.837 657.494,542.941C657.494,542.941 666.525,512.825 674.527,482.944C678.489,468.145 682.2,453.405 684.45,442.376C688.213,423.962 692.004,402.543 694.713,383.001C696.843,367.637 698.31,353.422 698.468,342.674C698.671,332.718 697.752,322.158 694.92,312.39C692.934,305.542 690.002,299.084 685.885,293.446C682.388,288.649 675.597,283.112 668.137,277.997C654.709,268.789 639.18,260.819 639.18,260.819C636.936,259.684 634.198,260.415 632.818,262.518C632.818,262.518 618.975,283.324 605.609,302.072C598.288,312.34 591.126,321.989 586.508,327.115C583.846,330.082 579.67,333.306 575.328,336.37C570.725,339.619 565.904,342.65 562.206,344.885C562.207,344.885 556.101,313.293 556.101,313.293L552.182,282.648C552.065,281.443 551.471,280.336 550.533,279.572C549.594,278.808 548.389,278.452 547.186,278.582C547.186,278.582 530.114,280.658 513.545,282.986C505.185,284.161 496.954,285.395 491.087,286.47C479.631,288.576 468.512,293.931 457.19,296.536C452.585,297.595 447.948,298.188 443.228,297.792C437.004,297.266 427.84,294.681 418.521,291.528C400.553,285.448 382.041,277.266 382.041,277.266ZM384.21,283.659C390.715,286.557 403.815,292.241 416.64,296.893C426.421,300.441 436.052,303.372 442.618,304.088C448,304.678 453.318,304.167 458.61,303.092C469.868,300.804 480.989,295.772 492.368,293.984C498.174,293.068 506.314,292.05 514.58,291.101C525.908,289.801 537.468,288.634 543.63,288.028C543.63,288.028 546.389,314.775 546.389,314.775L553.135,354.336C553.461,356.013 554.568,357.433 556.114,358.159C557.661,358.885 559.461,358.828 560.959,358.007C560.959,358.007 571.782,352.162 581.59,345.247C586.668,341.666 591.452,337.771 594.545,334.283C599.288,328.911 606.662,318.839 614.15,308.092C624.03,293.912 634.145,278.563 638.655,271.667C643.991,274.471 653.883,279.869 662.829,285.842C669.349,290.194 675.401,294.792 678.482,298.912C682.921,304.859 685.749,311.935 687.46,319.367C689.21,326.969 689.8,334.941 689.706,342.531C689.517,352.987 688.077,366.817 685.905,381.75C683.094,401.079 679.063,422.236 675.155,440.428C672.821,451.279 669.002,465.772 664.939,480.321C658.255,504.259 650.902,528.343 648.317,536.732C641.092,537.996 622.594,541.185 604.578,543.907C592.904,545.67 581.438,547.256 573.418,547.923C566.403,548.507 557.062,548.706 547.677,548.717C534.798,548.733 521.835,548.388 514.554,548.154C516.179,536.897 519.781,511.375 522.645,486.904C524.69,469.426 526.354,452.481 526.686,441.567C527.187,425.045 531.255,403.003 529.296,386.283C528.06,375.731 524.409,367.158 517.231,362.223C512.209,358.771 504.614,357.281 495.494,357.337C472.177,357.478 437.695,367.427 418.526,365.102C412.013,364.316 403.751,361.664 395.583,358.54C384.763,354.402 374.124,349.382 367.76,346.248C370.724,343.417 374.484,339.593 377.789,335.525C381.393,331.089 384.465,326.379 385.633,322.255C386.843,318.007 387.001,311.333 386.575,304.419C386.095,296.625 384.968,288.529 384.21,283.659L384.21,283.659Z" style="fill:rgb(41,47,54);"/>
        <g transform="matrix(0.998597,-0.0529518,0.0529518,0.998597,-22.2956,32.0853)">
            <path d="M689.588,384.078C667.633,407.951 623.722,455.698 602.693,476.925C590.425,489.309 576.307,508.073 563.411,511.446C550.516,514.818 536.033,505.296 525.32,497.161C514.607,489.027 499.132,471.172 499.132,462.641C499.132,454.11 518.73,453.953 525.32,445.976C532.859,436.85 536.827,419.789 544.366,407.885C551.904,395.982 562.816,382.293 570.553,374.555C576.234,368.874 585.938,363.932 590.789,361.461" style="fill:rgb(242,242,242);"/>
            <path d="M688.264,382.86C683.083,387.82 676.598,393.634 669.848,400.473C646.079,424.553 616.39,457.742 599.941,474.199C591.931,482.259 583.133,493.064 574.405,500.454C570.335,503.9 566.332,506.601 562.411,507.622C557.821,508.879 552.98,508.157 548.214,506.473C540.742,503.834 533.465,498.888 527.413,494.405C521.73,490.18 514.599,483.223 509.378,476.352C505.4,471.116 502.41,466.063 502.431,462.641C502.445,461.555 503.327,460.92 504.344,460.259C507.724,458.065 513.217,456.759 518.094,454.821C522.169,453.201 525.831,451.141 528.196,448.352C530.884,445.183 533.208,441.119 535.34,436.605C537.395,432.255 539.335,427.497 541.295,422.776C543.177,418.242 545.037,413.727 547.391,409.801C550.753,404.147 554.84,398.08 559.007,392.423C563.637,386.139 568.339,380.364 572.236,376.238C574.204,374.16 576.698,372.156 579.308,370.351C583.828,367.224 588.646,364.654 591.606,363.065C592.491,362.614 592.843,361.53 592.392,360.645C591.942,359.76 590.858,359.408 589.973,359.858C586.855,361.362 581.8,363.827 576.989,366.816C574.022,368.66 571.158,370.707 568.87,372.872C564.618,376.89 559.435,382.552 554.305,388.75C549.685,394.33 545.13,400.343 541.34,405.969C538.225,410.657 535.565,416.112 533.186,421.66C530.903,426.985 528.89,432.387 526.521,437.02C525.265,439.476 523.952,441.725 522.444,443.6C520.4,446.142 516.754,447.665 513.069,449.104C508.441,450.911 503.691,452.497 500.584,454.635C497.539,456.73 495.791,459.333 495.834,462.641C495.86,466.98 499.27,473.543 504.288,480.203C509.85,487.587 517.232,495.27 523.227,499.918C529.706,504.96 537.551,510.467 545.627,513.534C551.885,515.91 558.295,516.795 564.411,515.27C569.313,513.982 574.42,510.776 579.498,506.451C588.366,498.9 597.313,487.887 605.445,479.652C619.825,465.029 644.994,437.961 666.342,414.543C668.977,411.653 671.609,408.868 674.025,406.054C680.61,398.383 686.19,391.108 690.913,385.296C691.585,384.565 691.537,383.426 690.806,382.754C690.075,382.082 688.936,382.129 688.264,382.86Z" style="fill:rgb(41,47,54);"/>
        </g>
        <g transform="matrix(0.629873,-0.0903484,0.116313,0.81089,202.435,153.731)">
            <path d="M395.709,514.571C389.513,511.853 385.786,527.955 383.987,536.859C382.498,544.222 378.404,553.316 382.853,556.709C399.399,569.327 453.581,588.446 491.413,594.562C531.171,600.99 601.64,602.181 621.4,595.277C627.784,593.046 622.786,580.037 619.589,570.928C616.741,562.814 615.997,554.194 609.972,552.424C590.927,546.829 540.826,549.588 506.853,543.586C471.142,537.277 414.16,522.665 395.709,514.571Z" style="fill:rgb(41,47,54);stroke:rgb(41,47,54);stroke-width:10.87px;"/>
        </g>
        <path d="M378.916,278.051C378.916,278.051 359.923,303.536 356.027,315.224C352.553,325.647 355.54,348.181 355.54,348.181C355.54,348.181 380.7,328.103 384.596,316.415C388.492,304.726 378.916,278.051 378.916,278.051Z" style="fill:rgb(41,47,54);stroke:rgb(41,47,54);stroke-width:3.34px;"/>
        <g transform="matrix(-1.04127,-0.165076,0.151891,-1.02693,878.985,1411.32)">
            <path d="M495.72,656.299C496.907,659.79 498.911,665.318 498.805,672.153C498.736,676.634 497.846,681.707 495.132,687.11C493.414,690.622 490.737,694.418 487.637,698.151C484.619,701.786 481.302,705.404 477.88,708.544C472.615,713.698 466.827,719.879 463.896,727.922C462.072,732.929 460.871,738.527 462.133,744.84C462.572,747.034 463.297,749.172 464.311,751.489C464.553,752.524 465.58,753.157 466.602,752.9C467.624,752.643 468.258,751.594 468.016,750.558C467.908,748.335 468.141,746.369 468.303,744.412C468.714,739.451 470.087,735.412 472.167,731.877C475.642,725.974 481.07,721.969 485.91,718.623C491.032,714.815 496.164,710.294 500.475,705.612C503.876,701.919 506.671,698.06 508.732,694.479C513.13,686.679 514.818,679.229 515.2,672.598C515.736,663.283 513.438,655.602 511.992,650.78C510.539,646.235 505.714,643.782 501.223,645.305C496.733,646.828 494.267,651.754 495.72,656.299Z" style="fill:rgb(41,47,54);"/>
        </g>
        <g transform="matrix(1.28066,-0.711274,-0.444604,-0.854415,213.408,1591.23)">
            <path d="M505.367,657.771C506.066,660.52 507.298,664.905 506.372,673.362C505.883,677.82 504.758,683.718 502.279,691.531C501.202,694.83 499.128,699.276 496.901,704.29C495.442,707.578 493.875,711.111 492.793,714.944C491.589,719.209 490.669,723.701 491.59,728.396C494.593,742.292 498.337,745.053 501.529,756.941C502.93,762.159 504.351,768.975 505.489,779.072C505.761,781.23 504.824,783.366 503.397,783.839C501.97,784.312 500.59,782.944 500.318,780.786C499.037,771.623 497.696,765.387 496.196,760.768C492.346,748.91 488.125,746.806 484.095,733.057C481.753,725.623 482.052,717.784 483.467,710.276C485.431,699.857 490.234,690.42 491.779,684.593C493.091,679.949 493.837,676.229 494.238,673.231C494.85,668.662 494.308,666.517 493.95,665.25C492.678,660.513 494.203,654.991 497.354,652.927C500.505,650.863 504.095,653.034 505.367,657.771Z" style="fill:rgb(41,47,54);"/>
        </g>
        <path d="M381.025,291.417C381.025,291.417 309.207,273.165 292.939,265.23C285.914,261.803 289.737,248.4 283.416,243.803C274.687,237.455 251.871,228.13 240.563,227.138C231.532,226.346 219.137,231.305 215.566,237.851C211.995,244.398 215.367,257.691 219.137,266.42C222.906,275.149 229.056,286.061 238.182,290.227C247.308,294.393 262.77,287.16 273.893,291.417C289.963,297.567 318.73,319.787 334.601,327.128C345.345,332.097 369.121,335.46 369.121,335.46C369.121,335.46 383.802,322.565 385.786,315.224C387.77,307.884 381.025,291.417 381.025,291.417Z" style="fill:rgb(209,215,219);stroke:rgb(41,47,54);stroke-width:8.7px;"/>
        <path d="M503.894,460.261C503.894,460.261 465.802,394.99 457.47,375.746C453.344,366.216 455.288,354.319 453.899,344.796C452.619,336.017 449.523,327.473 449.137,318.609C448.741,309.483 448.542,295.794 451.518,290.04C454.057,285.132 461.479,284.469 466.993,284.089C472.746,283.692 481.211,283.368 486.038,287.66C491.395,292.421 497.611,303.375 499.132,312.657C501.116,324.759 494.172,345.788 497.942,360.271C501.711,374.754 514.21,391.022 521.749,399.553C527.159,405.675 543.175,411.456 543.175,411.456C543.175,411.456 536.628,434.271 530.081,442.405C523.534,450.539 503.894,460.261 503.894,460.261Z" style="fill:rgb(209,215,219);stroke:rgb(41,47,54);stroke-width:8.94px;"/>
        <path d="M551.508,136.485C535.438,143.825 531.272,182.512 530.081,203.145C528.951,222.744 533.652,249.172 544.366,260.282C555.079,271.391 579.679,276.55 594.36,269.804C609.041,263.059 627.095,238.26 632.452,219.81C637.808,201.359 639.99,172.989 626.5,159.102C613.009,145.214 567.577,129.144 551.508,136.485Z" style="fill:rgb(209,215,219);stroke:rgb(41,47,54);stroke-width:7.55px;"/>
        <path d="M551.508,136.485C552.896,143.23 583.052,150.174 590.789,159.102C597.723,167.103 592.178,183.504 597.931,190.051C603.685,196.598 620.746,191.241 625.309,198.383C629.872,205.525 620.945,233.102 625.309,232.903C629.674,232.705 647.133,210.882 651.497,197.193C655.862,183.504 656.457,163.665 651.497,150.769C646.537,137.874 633.245,125.177 621.738,119.82C610.232,114.463 594.162,115.852 582.457,118.63C570.868,121.379 550.119,129.74 551.508,136.485Z" style="fill:rgb(41,47,54);stroke:rgb(41,47,54);stroke-width:8.26px;"/>
        <g transform="matrix(-0.0871669,-0.766627,-0.714529,0.109565,763.48,734.095)">
            <path d="M800.406,78.403C792.073,72.403 799.228,26.848 810.561,21.736C821.895,16.625 859.406,43.292 856.406,54.403C853.406,65.514 808.739,84.403 800.406,78.403Z" style="fill:rgb(41,47,54);stroke:rgb(41,47,54);stroke-width:4.45px;"/>
        </g>
    </g>
</svg>
