<?xml version="1.0" encoding="UTF-8" standalone="no"?>
<!DOCTYPE svg PUBLIC "-//W3C//DTD SVG 1.1//EN" "http://www.w3.org/Graphics/SVG/1.1/DTD/svg11.dtd">
<svg width="100%" height="100%" viewBox="0 0 1024 1280" version="1.1" xmlns="http://www.w3.org/2000/svg" xmlns:xlink="http://www.w3.org/1999/xlink" xml:space="preserve" xmlns:serif="http://www.serif.com/" style="fill-rule:evenodd;clip-rule:evenodd;stroke-linecap:round;stroke-linejoin:round;stroke-miterlimit:1.5;">
    <g id="Ebene-1" serif:id="Ebene 1" transform="matrix(1.02352,0,0,1.02352,-28.3702,3.81125)">
        <path d="M364.739,612.676C360.895,613.725 352.125,579.498 353.375,562.344C354.802,542.771 369.453,496.284 373.298,495.236C377.143,494.187 377.87,536.48 376.444,556.053C375.043,575.275 368.584,611.627 364.739,612.676Z" style="fill:rgb(41,47,54);stroke:rgb(41,47,54);stroke-width:3.98px;"/>
        <path d="M532.739,299.403C540.962,311.625 523.679,348.07 512,352.736C500.321,357.403 458.988,316.07 444,310.07C431.012,304.87 425.283,314.07 414.073,307.403C402.863,300.736 383.446,292.546 382.073,279.403C381.225,271.286 385.895,252.065 392.135,242.493C397.342,234.506 416.974,207.668 426.073,227.403C431.487,239.146 433.012,230.736 441.334,239.403C448.414,246.777 453.334,272.736 453.334,272.736C453.334,272.736 524.517,287.181 532.739,299.403Z" style="fill:rgb(209,215,219);stroke:rgb(41,47,54);stroke-width:9.08px;"/>
        <path d="M615.598,373.562C607.187,394.597 631.988,423.231 646.67,450.981C650.504,458.227 669.828,485.021 677.123,479.211C692.152,467.243 713.851,447.403 723.406,420.736C732.962,394.07 727.495,330.687 718.073,327.403C708.651,324.119 686.749,384.539 678.344,387.923C669.939,391.307 676.463,350.375 667.644,347.708C658.825,345.041 623.69,353.325 615.598,373.562Z" style="fill:rgb(242,242,242);"/>
        <path d="M678.05,383.33C677.907,382.18 677.869,380.609 677.717,379.383C676.811,372.062 676.652,361.527 675.098,354.466C673.906,349.051 671.529,345.487 668.562,344.671C663.319,343.222 649.52,345.24 636.895,351.281C626.842,356.09 617.534,363.304 613.928,372.894L613.928,372.894C610.287,380.764 610.99,389.927 614.376,399.774C616.247,405.213 619.009,410.827 622.163,416.553C628.665,428.359 637.051,440.591 643.406,452.707C645.927,457.504 654.915,470.508 663.101,477.855C666.448,480.858 669.757,482.914 672.499,483.568C675.196,484.211 677.558,483.735 679.501,482.196C687.799,475.62 698.089,466.706 707.338,455.61C715.342,446.008 722.551,434.78 727.121,422.067C732.045,407.943 732.918,383.9 731.178,363.407C730.089,350.58 727.957,339.164 725.353,332.392C723.585,327.796 721.239,325.119 719.127,324.379C717.477,323.789 715.587,323.986 713.568,325.221C711.098,326.732 708.104,330.336 704.967,335.236C697.649,346.666 688.883,365.523 682.217,376.792C680.525,379.653 679.209,382.044 678.05,383.33ZM717.278,330.55C718.398,331.204 719.032,333.422 719.968,336.33C722.656,344.681 724.34,358.684 724.718,373.371C725.155,390.325 723.802,408.225 719.692,419.405C715.466,431.236 708.739,441.661 701.327,450.616C692.494,461.286 682.673,469.882 674.746,476.226C674.194,476.668 673.55,475.992 672.697,475.545C669.507,473.874 665.828,470.269 662.322,466.28C656.738,459.925 651.675,452.523 649.933,449.254C643.458,437.12 635.151,424.763 628.324,413.06C625.205,407.712 622.425,402.504 620.278,397.498C616.695,389.145 614.835,381.395 617.269,374.23L617.269,374.23C620.879,365.714 629.637,359.649 638.897,355.717C650.154,350.937 662.21,349.26 666.726,350.745C667.264,350.923 667.334,351.66 667.616,352.423C668.224,354.061 668.547,356.214 668.806,358.624C669.857,368.415 669.285,381.941 671.379,387.332C673.107,391.784 676.093,393.097 679.82,391.589C681.572,390.87 684.034,388.513 686.513,384.64C693.399,373.884 703.232,350.285 711.343,337.554C712.89,335.127 714.353,333.123 715.717,331.76C716.218,331.26 717,330.732 717.278,330.55ZM678.196,384.16C678.339,384.751 678.562,385.047 678.929,384.806C679.382,384.509 678.869,384.247 678.196,384.16Z" style="fill:rgb(41,47,54);"/>
        <path d="M768.739,982.07C768.739,982.07 787.628,1093.62 794.073,1124.74C798.476,1146 805.628,1154.07 807.406,1168.74C808.674,1179.2 803.147,1195.09 792.739,1196.74C775.851,1199.4 733.006,1186.74 706.073,1184.74C681.163,1182.89 648.694,1187.18 631.139,1182.07C617.319,1178.05 591.362,1140.96 600.739,1132.74C610.117,1124.51 668.517,1146.51 690.073,1138.07C706.626,1131.59 725.752,1122.51 726.073,1104.74C726.517,1080.07 690.073,987.403 690.073,987.403L715.406,947.403L768.739,982.07Z" style="fill:rgb(209,215,219);"/>
        <path d="M774.138,981.156C773.882,979.647 773.007,978.313 771.723,977.479L718.39,942.812C717.163,942.015 715.668,941.742 714.238,942.054C712.809,942.366 711.563,943.237 710.781,944.474L685.447,984.474C684.513,985.949 684.338,987.782 684.977,989.407C684.977,989.407 702.739,1034.56 713.242,1070.07C717.566,1084.68 720.726,1097.57 720.598,1104.64C720.47,1111.77 716.355,1117.04 710.822,1121.3C704.322,1126.3 695.882,1129.91 688.076,1132.97C682.67,1135.09 674.668,1134.86 665.776,1133.89C650.945,1132.28 633.867,1128.3 620.874,1126.44C614.772,1125.56 609.49,1125.16 605.58,1125.53C601.76,1125.88 598.929,1127.04 597.13,1128.62C595.021,1130.47 593.722,1133.03 593.366,1136.23C593.006,1139.48 593.715,1143.64 595.437,1148.19C598.83,1157.17 606.166,1168.11 613.759,1176.06C619.296,1181.85 625.079,1186.01 629.608,1187.33C647.429,1192.52 680.382,1188.32 705.667,1190.2C721.674,1191.38 743.35,1196.4 761.746,1199.63C774.866,1201.94 786.435,1203.28 793.593,1202.14C799.26,1201.25 804.03,1197.48 807.404,1192.09C811.769,1185.12 813.735,1175.45 812.842,1168.08C811.046,1153.27 803.881,1145.09 799.434,1123.63C792.999,1092.56 774.138,981.156 774.138,981.156ZM763.743,985.352C766.51,1001.65 782.814,1097.38 788.711,1125.85C793.071,1146.89 800.21,1154.87 801.971,1169.39C802.599,1174.58 801.193,1181.37 798.123,1186.28C796.538,1188.81 794.548,1190.91 791.886,1191.33C785.532,1192.33 775.285,1190.89 763.641,1188.85C744.892,1185.55 722.792,1180.49 706.478,1179.28C681.945,1177.45 649.96,1181.85 632.669,1176.81C629.459,1175.88 625.602,1172.6 621.676,1168.49C615.077,1161.58 608.629,1152.12 605.679,1144.32C604.956,1142.41 604.449,1140.62 604.276,1139.03C604.219,1138.51 604.2,1138.01 604.238,1137.56C604.261,1137.28 604.173,1137.01 604.349,1136.85C604.622,1136.61 605.089,1136.64 605.614,1136.55C606.511,1136.4 607.539,1136.34 608.679,1136.34C613.914,1136.31 621.082,1137.45 629.062,1138.88C641.782,1141.16 656.432,1144.21 668.947,1145.19C678.147,1145.9 686.288,1145.43 692.07,1143.17C700.816,1139.74 710.216,1135.58 717.498,1129.98C725.748,1123.63 731.355,1115.48 731.547,1104.84C731.686,1097.1 728.473,1082.95 723.743,1066.96C714.628,1036.15 700.112,998.15 696.179,987.995C696.179,987.995 717.067,955.013 717.067,955.013L763.743,985.352Z" style="fill:rgb(41,47,54);"/>
        <g transform="matrix(1,0,0,1,8,0)">
            <path d="M362.073,504.736C362.073,504.736 286.739,514.292 268.739,510.07C257.991,507.549 254.073,488.736 254.073,488.736L170.073,538.07C170.073,538.07 177.751,553.456 202.053,553.421C229.676,553.382 236.607,552.015 254.073,553.421C287.184,556.088 362.073,574.07 362.073,574.07" style="fill:rgb(209,215,219);stroke:rgb(41,47,54);stroke-width:8.16px;"/>
        </g>
        <g transform="matrix(0.993877,-0.11049,0.11049,0.993877,-41.7052,26.8052)">
            <path d="M187.406,488.736C177.628,502.838 157.184,520.736 152.739,531.403C149.682,538.742 155.645,551.012 163.406,552.736C173.406,554.959 193.933,541.202 207.406,531.403C222.073,520.736 254.295,489.06 266.073,472.736C276.362,458.475 273.628,459.237 278.073,446.792C281.79,436.385 281.517,422.635 278.073,414.07C275.068,406.599 269.968,391.855 262.739,395.403C251.628,400.857 232.851,411.237 220.739,426.792C211.103,439.169 196.344,475.846 187.406,488.736Z" style="fill:rgb(209,215,219);stroke:rgb(41,47,54);stroke-width:9.1px;"/>
        </g>
        <path d="M747.528,215.403L760.739,267.403L834.073,227.403C834.073,227.403 823.898,213.693 817.895,203.505C810.561,191.06 810.561,154.736 810.561,154.736L747.528,215.403Z" style="fill:rgb(209,215,219);stroke:rgb(41,47,54);stroke-width:6.29px;"/>
        <path d="M703.164,111.403C689.387,128.959 683.144,171.596 684.739,192.736C686.08,210.497 700.739,230.66 712.739,238.245C724.739,245.83 743.628,242.941 756.739,238.245C769.851,233.549 783.851,220.988 791.406,210.07C798.771,199.427 799.804,185.478 802.073,172.736C804.962,156.514 814.517,126.959 808.739,112.736C802.962,98.514 783.565,87.607 767.406,87.403C749.81,87.181 716.942,93.847 703.164,111.403Z" style="fill:rgb(209,215,219);stroke:rgb(41,47,54);stroke-width:8.92px;"/>
        <g transform="matrix(0.996007,0.0892747,-0.0892747,0.996007,24.7937,-66.3937)">
            <path d="M825.406,154.736C829.628,144.514 829.643,129.223 827.739,116.403C826.252,106.383 826.509,104.953 819.739,94.731C813.012,84.573 789.295,73.68 773.739,72.403C758.184,71.126 737.406,75.403 725.073,79.736C715.177,83.213 698.406,90.625 699.739,98.403C701.073,106.181 711.517,117.848 724.406,123.07C737.295,128.292 753.628,125.278 759.739,131.736C765.851,138.195 765.628,156.155 769.739,165.155C773.851,174.155 802.284,190.403 810.561,190.403C818.839,190.403 822.143,162.636 825.406,154.736Z" style="fill:rgb(41,47,54);stroke:rgb(41,47,54);stroke-width:9.3px;"/>
        </g>
        <g transform="matrix(1.01904,0,0,1.03993,-5.8303,-40.0105)">
            <path d="M663.618,644.13C663.618,644.13 627.432,708.505 621.769,748.736C616.677,784.91 615.548,798.518 619.769,833.028C629.026,908.714 655.406,986.07 655.406,986.07C655.406,986.07 704.741,1007.26 730.073,1000.74C755.462,994.198 771.406,983.403 771.406,983.403C771.406,983.403 769.184,923.181 755.406,866.07C751.852,851.336 736.642,788.863 747.509,769.376C781.628,708.193 856.739,616.736 856.739,616.736L663.618,644.13Z" style="fill:rgb(242,242,242);"/>
            <path d="M663.232,641.514C662.395,641.633 661.663,642.129 661.255,642.855C661.255,642.855 642.909,671.964 629.665,703.636C623.293,718.876 618.396,734.769 616.465,748.019C613.886,765.988 612.296,778.459 611.835,790.63C611.355,803.351 612.102,815.747 614.26,833.675C617.502,860.604 622.891,887.747 628.51,911.596C638.801,955.267 649.861,987.886 649.861,987.886C650.384,989.421 651.546,990.667 653.059,991.317C653.059,991.317 675.579,1001 698.302,1005.48C710.319,1007.85 722.396,1008.68 731.572,1006.33C740.042,1004.15 747.499,1001.52 753.719,998.947C767.05,993.435 774.772,988.177 774.772,988.177C776.435,987.051 777.397,985.172 777.324,983.193C777.324,983.193 776.207,957.493 771.487,923.693C768.951,905.529 765.378,885.027 760.381,864.917C758.239,856.248 751.799,830.865 749.383,807.645C747.844,792.853 747.716,778.984 751.818,771.684C762.627,752.636 777.517,730.655 792.796,709.441C809.771,685.873 827.373,663.359 840.333,646.737C852.851,630.681 861.098,620.174 861.098,620.174C862.54,618.418 862.739,615.977 861.599,614.02C860.46,612.062 858.214,610.987 855.938,611.31L663.232,641.514ZM665.406,646.568L843.531,623.942C839.55,628.81 834.429,635.165 828.59,642.626C818.725,655.231 806.897,671.056 794.731,687.935C775.876,714.095 756.424,742.933 743.199,767.068C739.448,773.875 738.413,785.421 739.095,798.557C740.444,824.522 748.035,857.065 750.431,867.222C755.068,887.036 758.298,907.216 760.546,925.087C763.83,951.203 765.004,972.386 765.357,980.284C762.297,982.082 756.717,985.12 749.116,988.272C743.347,990.665 736.431,993.118 728.574,995.147C720.862,997.138 710.718,996.164 700.612,994.186C683.379,990.813 666.267,984.275 660.129,981.802C657.389,973.526 648.25,945.12 639.609,909.063C633.986,885.597 628.571,858.889 625.277,832.381C623.137,815.151 622.358,803.236 622.764,791.003C623.158,779.139 624.653,766.979 627.072,749.453C629.088,733.835 636,714.548 643.097,696.762C652.653,672.813 662.904,651.661 665.406,646.568L665.406,646.568Z" style="fill:rgb(41,47,54);"/>
        </g>
        <g transform="matrix(1,0,0,0.988127,0,2.70005)">
            <path d="M707.512,377.422L703.406,498.07C703.406,498.07 596.783,470.179 543.406,476.736C465.628,486.292 372.739,500.736 372.739,500.736C372.739,500.736 377.894,541.441 376.471,559.126C374.915,578.459 364.739,616.736 364.739,616.736C364.739,616.736 493.549,600.209 534.882,605.236C567.065,609.151 579.432,614.143 610.073,624.736C651.851,639.181 731.851,673.625 775.406,664.736C818.962,655.847 853.999,636.206 870.073,594.57C888.517,546.792 880.517,376.736 874.073,319.403C868.122,266.461 832.739,227.403 832.739,227.403C832.739,227.403 785.862,260.787 759.406,271.403C724.517,285.403 660.739,308.07 623.406,311.403C593.444,314.078 534.882,297.77 534.882,297.77C534.882,297.77 533.233,318.755 529.513,327.605C524.767,338.898 506.406,365.525 506.406,365.525C506.406,365.525 580.812,391.403 611.406,391.403C656.418,391.403 782.073,363.403 782.073,363.403L707.512,377.422Z" style="fill:rgb(242,242,242);"/>
            <path d="M704.472,383.046L698.896,491.853C684.794,488.253 646.726,479.002 608.726,473.827C584.732,470.559 560.763,469.003 542.741,471.192C514.503,474.63 484.275,478.708 457.213,482.513C409.654,489.201 371.875,495.043 371.875,495.043C368.823,495.518 366.701,498.369 367.094,501.469C367.094,501.469 369.309,519.094 370.397,536.094C370.939,544.569 371.213,552.884 370.744,558.654C370.241,564.835 368.815,573.009 367.147,581.194C363.683,598.185 359.139,615.212 359.139,615.212C358.637,617.101 359.098,619.119 360.368,620.593C361.638,622.068 363.551,622.805 365.469,622.559C365.469,622.559 418.32,615.828 467.09,612.335C493.974,610.41 519.601,609.436 534.171,611.222C546.356,612.709 555.637,614.347 564.174,616.404C577.826,619.694 589.59,624.046 608.138,630.466C636.598,640.317 682.698,659.368 723.1,667.892C743.155,672.124 761.87,673.73 776.6,670.729C798.865,666.107 818.955,658.734 835.605,647.313C853.047,635.349 866.779,618.984 875.32,596.644C883.259,575.878 886.394,532.521 886.685,485.065C887.072,422.105 882.693,351.856 878.899,318.848C876.818,299.92 871.091,282.704 864.496,268.283C852.067,241.11 836.528,223.888 836.528,223.888C834.782,221.962 831.894,221.645 829.782,223.15C829.782,223.15 808.771,237.991 787.008,250.902C776.531,257.117 765.884,262.89 757.391,266.26C736.918,274.388 706.449,285.469 677.287,293.853C657.277,299.605 637.896,304.095 622.881,305.384C613.401,306.209 600.951,304.969 588.503,303.071C562.466,299.102 536.452,291.995 536.452,291.995C534.751,291.521 532.929,291.84 531.484,292.865C530.039,293.891 529.121,295.515 528.981,297.295C528.981,297.295 528.342,306.273 526.87,314.815C526.184,318.794 525.353,322.683 524.257,325.343C522.712,329.088 519.597,334.599 516.211,340.207C509.61,351.139 501.964,362.388 501.964,362.388C500.991,363.799 500.729,365.59 501.256,367.225C501.783,368.86 503.038,370.151 504.646,370.71C504.646,370.71 536.721,381.582 567.551,389.047C584.215,393.082 600.525,396.103 611.406,396.015C627.458,395.89 653.633,392.193 680.785,387.418C688.672,386.03 696.643,384.554 704.472,383.046ZM710.184,381.944L708.226,498.238C708.176,499.717 707.465,501.093 706.293,501.98C705.121,502.866 703.615,503.166 702.199,502.795C702.199,502.795 654.638,490.796 607.319,484.722C584.299,481.768 561.339,480.135 544.071,482.281C515.907,485.772 485.759,489.91 458.769,493.761C422.028,499.004 391.136,503.721 379.054,505.585C379.821,512.248 381.07,523.929 381.821,535.335C382.421,544.448 382.691,553.391 382.197,559.598C381.675,566.162 380.201,574.848 378.445,583.543C376.464,593.354 374.13,603.177 372.476,609.858C389.405,607.79 429.007,603.172 466.247,600.435C494.036,598.393 520.528,597.432 535.593,599.25C548.322,600.794 558.016,602.51 566.935,604.653C580.927,608.015 592.994,612.44 612.007,619.006C636.334,627.408 673.67,642.627 709.158,652.035C733.462,658.479 756.846,662.294 774.212,658.744C794.878,654.599 813.585,647.996 829.088,637.513C844.731,626.935 857.07,612.391 864.826,592.495C872.609,572.527 875.596,530.714 876.141,484.967C876.885,422.483 872.848,352.738 869.247,319.959C867.206,302.192 861.734,286.053 855.465,272.544C846.854,253.99 836.733,240.394 831.861,234.367C824.767,239.337 808.818,250.307 792.439,260.196C781.479,266.813 770.32,272.935 761.421,276.546C740.743,284.933 709.964,296.39 680.484,305.092C659.701,311.227 639.548,315.974 623.931,317.422C613.672,318.362 600.174,317.242 586.699,315.185C568.136,312.352 549.61,307.841 540.021,305.349C539.61,308.703 539.029,312.854 538.273,316.909C537.357,321.822 536.171,326.595 534.769,329.867C533.01,333.977 529.535,340.037 525.716,346.173C521.954,352.22 517.874,358.36 514.941,362.693C525.817,366.406 548.165,373.782 569.907,379.418C585.661,383.501 601.079,386.708 611.406,386.791C627.127,386.914 652.809,383.643 679.469,379.387C688.517,377.943 697.676,376.384 706.599,374.8C706.731,374.751 706.868,374.713 707.01,374.687L781.488,360.216C783.207,359.893 784.864,361.024 785.212,362.758C785.56,364.492 784.469,366.188 782.762,366.569C782.762,366.569 748.994,374.377 710.184,381.944Z" style="fill:rgb(41,47,54);"/>
        </g>
        <g transform="matrix(0.968749,0,0,0.975643,27.3874,14.8949)">
            <path d="M697.829,492.736C697.829,492.736 732.542,537.736 755.411,553.812C807.175,590.199 857.203,619.21 862.948,610.667C874.604,593.333 878.738,579.673 875.093,573.236C872.537,568.722 810.43,553.922 775.982,536.736C732.93,515.258 699.406,474.07 699.406,474.07L697.829,492.736Z" style="fill:rgb(41,47,54);stroke:rgb(41,47,54);stroke-width:11.78px;"/>
        </g>
        <g transform="matrix(0.963394,0.26809,-0.26809,0.963394,76.2567,-199.416)">
            <path d="M800.406,78.403C792.073,72.403 799.228,26.848 810.561,21.736C821.895,16.625 859.406,43.292 856.406,54.403C853.406,65.514 808.739,84.403 800.406,78.403Z" style="fill:rgb(41,47,54);stroke:rgb(41,47,54);stroke-width:4.45px;"/>
        </g>
    </g>
</svg>
